<?xml version="1.0" encoding="utf-8"?>
<!-- Generator: Adobe Illustrator 17.0.0, SVG Export Plug-In . SVG Version: 6.00 Build 0)  -->
<!DOCTYPE svg PUBLIC "-//W3C//DTD SVG 1.1//EN" "http://www.w3.org/Graphics/SVG/1.1/DTD/svg11.dtd">
<svg version="1.1" id="Layer_1" xmlns="http://www.w3.org/2000/svg" xmlns:xlink="http://www.w3.org/1999/xlink" x="0px" y="0px"
	 width="834.5px" height="792.5px" viewBox="0 0 834.5 792.5" enable-background="new 0 0 834.5 792.5" xml:space="preserve">
<g id="Layer_1_1_">
</g>
<g id="Layer_2">
	
		<circle fill="none" stroke="#E6E6E6" stroke-width="0.5" stroke-miterlimit="10" stroke-dasharray="12,10" cx="56.011" cy="467.045" r="78.017"/>
	
		<circle fill="none" stroke="#E6E6E6" stroke-width="0.5" stroke-miterlimit="10" stroke-dasharray="12,10" cx="56.011" cy="464.35" r="40.704"/>
	
		<line fill="none" stroke="#E6E6E6" stroke-width="0.5" stroke-miterlimit="10" x1="-209.54" y1="834.207" x2="578.478" y2="834.207"/>
	
		<line fill="none" stroke="#E6E6E6" stroke-width="0.5" stroke-miterlimit="10" x1="-209.54" y1="874.638" x2="578.478" y2="874.638"/>
	
		<circle fill="none" stroke="#E6E6E6" stroke-width="0.5" stroke-miterlimit="10" stroke-dasharray="12,10" cx="162.927" cy="691.433" r="183.721"/>
	
		<circle fill="none" stroke="#E6E6E6" stroke-width="0.5" stroke-miterlimit="10" stroke-dasharray="12,10" cx="162.927" cy="691.433" r="142.011"/>
	<g>
		<g>
			<g>
				<g>
					<g>
						<path fill="none" stroke="#3900A3" stroke-width="0.5" stroke-miterlimit="10" d="M165.637,616.711
							c-2.696-2.554-4.364-4.113-4.364-4.113s-1.669,1.559-4.364,4.113"/>
					</g>
					<g>
						<g>
							<path fill="none" stroke="#3900A3" stroke-width="0.5" stroke-miterlimit="10" d="M136.821,636.172
								c-1.429,1.423-2.848,2.847-4.234,4.251"/>
							
								<path fill="none" stroke="#3900A3" stroke-width="0.5" stroke-miterlimit="10" stroke-dasharray="3.9179,3.9179,16.3247,16.3247" d="
								M121.377,652.292c-0.448,0.509-0.872,1-1.271,1.471c-4.686,5.531-11.565,14.431-22.037,20.671"/>
							<path fill="none" stroke="#3900A3" stroke-width="0.5" stroke-miterlimit="10" d="M90.756,678.051
								c-1.81,0.72-3.708,1.351-5.698,1.873"/>
						</g>
					</g>
					<g>
						<path fill="none" stroke="#3900A3" stroke-width="0.5" stroke-miterlimit="10" d="M71.206,681.582
							c-1.93-0.022-3.925-0.143-5.99-0.372c0,0,0.336,2.353,1.85,5.69"/>
					</g>
					<g>
						<g>
							<path fill="none" stroke="#3900A3" stroke-width="0.5" stroke-miterlimit="10" d="M76.417,698.858
								c1.455,1.179,3.096,2.319,4.944,3.384"/>
							
								<path fill="none" stroke="#3900A3" stroke-width="0.5" stroke-miterlimit="10" stroke-dasharray="0.2072,0.2072,0.8633,0.8633" d="
								M82.113,702.664c0.491,0.269,0.996,0.533,1.516,0.791"/>
							<path fill="none" stroke="#3900A3" stroke-width="0.5" stroke-miterlimit="10" d="M84.021,703.647
								c1.698,0.821,3.547,1.578,5.561,2.25"/>
						</g>
					</g>
					<g>
						<path fill="none" stroke="#3900A3" stroke-width="0.5" stroke-miterlimit="10" d="M97.012,707.807
							c1.869,0.352,3.847,0.638,5.94,0.848c0,0,0.414,2.194,1.652,5.763"/>
					</g>
					<g>
						<g>
							<path fill="none" stroke="#3900A3" stroke-width="0.5" stroke-miterlimit="10" d="M114.112,732.919
								c1.097,1.578,2.297,3.182,3.606,4.794"/>
							
								<path fill="none" stroke="#3900A3" stroke-width="0.5" stroke-miterlimit="10" stroke-dasharray="2.7122,2.7122,11.3006,11.3006" d="
								M125.435,745.958c2.043,1.898,4.264,3.767,6.678,5.578c3.558,2.669,7.231,5.568,10.721,8.488"/>
							<path fill="none" stroke="#3900A3" stroke-width="0.5" stroke-miterlimit="10" d="M147.122,763.709
								c1.554,1.374,3.039,2.733,4.422,4.054"/>
						</g>
					</g>
					<g>
						<path fill="none" stroke="#3900A3" stroke-width="0.5" stroke-miterlimit="10" d="M158.635,775.402
							c1.668,2.177,2.638,4.005,2.638,5.294c0-1.289,0.969-3.117,2.638-5.294"/>
					</g>
					<g>
						<g>
							<path fill="none" stroke="#3900A3" stroke-width="0.5" stroke-miterlimit="10" d="M178.778,760.811
								c1.511-1.279,3.063-2.557,4.629-3.817"/>
							
								<path fill="none" stroke="#3900A3" stroke-width="0.5" stroke-miterlimit="10" stroke-dasharray="2.7122,2.7122,11.3009,11.3009" d="
								M192.339,750.064c6.526-5.195,11.546-10.795,15.389-16.146"/>
							<path fill="none" stroke="#3900A3" stroke-width="0.5" stroke-miterlimit="10" d="M210.86,729.214
								c1.112-1.805,2.091-3.555,2.951-5.223"/>
						</g>
					</g>
					<g>
						<path fill="none" stroke="#3900A3" stroke-width="0.5" stroke-miterlimit="10" d="M217.941,714.417
							c1.239-3.569,1.652-5.763,1.652-5.763c2.093-0.209,4.071-0.495,5.941-0.848"/>
					</g>
					<g>
						<g>
							<path fill="none" stroke="#3900A3" stroke-width="0.5" stroke-miterlimit="10" d="M239.99,702.904
								c1.883-1.002,3.565-2.084,5.067-3.21"/>
							
								<path fill="none" stroke="#3900A3" stroke-width="0.5" stroke-miterlimit="10" stroke-dasharray="0.2077,0.2077,0.8653,0.8653" d="
								M245.743,699.167c0.458-0.361,0.898-0.725,1.321-1.093"/>
							<path fill="none" stroke="#3900A3" stroke-width="0.5" stroke-miterlimit="10" d="M247.389,697.788
								c1.613-1.436,2.97-2.912,4.11-4.362"/>
						</g>
					</g>
					<g>
						<path fill="none" stroke="#3900A3" stroke-width="0.5" stroke-miterlimit="10" d="M255.479,686.9
							c1.514-3.338,1.85-5.69,1.85-5.69c-2.064,0.229-4.06,0.35-5.99,0.372"/>
					</g>
					<g>
						<g>
							<path fill="none" stroke="#3900A3" stroke-width="0.5" stroke-miterlimit="10" d="M224.635,674.529
								c-1.763-1.043-3.425-2.161-4.992-3.326"/>
							
								<path fill="none" stroke="#3900A3" stroke-width="0.5" stroke-miterlimit="10" stroke-dasharray="3.9181,3.9181,16.3254,16.3254" d="
								M207.768,660.036c-2.041-2.309-3.801-4.469-5.328-6.272c-3.866-4.563-10.115-11.019-16.59-17.468"/>
							<path fill="none" stroke="#3900A3" stroke-width="0.5" stroke-miterlimit="10" d="M180.042,630.566
								c-1.464-1.432-2.907-2.834-4.302-4.184"/>
						</g>
					</g>
				</g>
				<g>
					<g>
						<path fill="none" stroke="#3900A3" stroke-width="0.5" stroke-miterlimit="10" d="M164.566,724.224
							c-2.932,2.111-5.008,3.298-5.008,3.298s-2.076-1.187-5.008-3.298"/>
					</g>
					<g>
						<g>
							<path fill="none" stroke="#3900A3" stroke-width="0.5" stroke-miterlimit="10" d="M136.688,703.234
								c-0.649-1.896-1.052-3.859-1.13-5.873"/>
							
								<path fill="none" stroke="#3900A3" stroke-width="0.5" stroke-miterlimit="10" stroke-dasharray="1.0627,1.0627,4.4278,4.4278" d="
								M135.908,692.956c0.556-2.843,1.713-5.563,3.231-8.109"/>
							<path fill="none" stroke="#3900A3" stroke-width="0.5" stroke-miterlimit="10" d="M140.333,682.983
								c1.133-1.654,2.402-3.223,3.734-4.692"/>
						</g>
					</g>
					<g>
						<path fill="none" stroke="#3900A3" stroke-width="0.5" stroke-miterlimit="10" d="M154.55,669.069
							c2.932-2.111,5.008-3.298,5.008-3.298s2.076,1.187,5.008,3.298"/>
					</g>
					<g>
						<g>
							<path fill="none" stroke="#3900A3" stroke-width="0.5" stroke-miterlimit="10" d="M182.428,690.059
								c0.649,1.896,1.052,3.859,1.13,5.873"/>
							
								<path fill="none" stroke="#3900A3" stroke-width="0.5" stroke-miterlimit="10" stroke-dasharray="1.0627,1.0627,4.428,4.428" d="
								M183.208,700.337c-0.556,2.843-1.713,5.563-3.231,8.109"/>
							<path fill="none" stroke="#3900A3" stroke-width="0.5" stroke-miterlimit="10" d="M178.783,710.311
								c-1.133,1.654-2.402,3.223-3.734,4.692"/>
						</g>
					</g>
				</g>
			</g>
		</g>
		<g>
			<g>
				<g>
					<path fill="none" stroke="#3900A3" stroke-width="0.5" stroke-miterlimit="10" d="M159.036,384.531
						c2.696,2.554,4.364,4.113,4.364,4.113s1.669-1.559,4.364-4.113"/>
					
						<path fill="none" stroke="#3900A3" stroke-width="0.5" stroke-miterlimit="10" stroke-dasharray="7.6388,7.6388,31.8285,31.8285" d="
						M190.565,362.354c5.52-5.556,10.654-10.926,14.002-14.877c6.179-7.295,16.175-20.447,33.192-25.634"/>
					<path fill="none" stroke="#3900A3" stroke-width="0.5" stroke-miterlimit="10" d="M253.466,319.66
						c1.93,0.022,3.925,0.143,5.99,0.372c0,0-0.336-2.353-1.85-5.69"/>
					
						<path fill="none" stroke="#3900A3" stroke-width="0.5" stroke-miterlimit="10" stroke-dasharray="2.6197,2.6197,10.9155,10.9155" d="
						M251.494,305.36c-3.954-4.13-9.825-8.173-18.509-10.669"/>
					<path fill="none" stroke="#3900A3" stroke-width="0.5" stroke-miterlimit="10" d="M227.66,293.435
						c-1.869-0.352-3.847-0.638-5.94-0.848c0,0-0.414-2.194-1.652-5.763"/>
					
						<path fill="none" stroke="#3900A3" stroke-width="0.5" stroke-miterlimit="10" stroke-dasharray="5.6976,5.6976,23.7402,23.7402" d="
						M208.875,265.988c-4.09-5.455-9.415-11.109-16.315-16.284c-6.323-4.743-13.011-10.213-18.384-15.238"/>
					<path fill="none" stroke="#3900A3" stroke-width="0.5" stroke-miterlimit="10" d="M166.038,225.839
						c-1.668-2.177-2.638-4.005-2.638-5.294c0,1.289-0.969,3.117-2.638,5.294"/>
					
						<path fill="none" stroke="#3900A3" stroke-width="0.5" stroke-miterlimit="10" stroke-dasharray="5.6976,5.6976,23.7402,23.7402" d="
						M143.684,242.277c-3.102,2.559-6.318,5.083-9.444,7.428c-11.287,8.465-18.359,18.211-22.706,26.271"/>
					<path fill="none" stroke="#3900A3" stroke-width="0.5" stroke-miterlimit="10" d="M106.732,286.824
						c-1.239,3.569-1.652,5.763-1.652,5.763c-2.093,0.209-4.071,0.495-5.941,0.848"/>
					
						<path fill="none" stroke="#3900A3" stroke-width="0.5" stroke-miterlimit="10" stroke-dasharray="2.6197,2.6197,10.9156,10.9156" d="
						M88.666,296.472c-8.527,3.493-13.691,8.571-16.795,13.119"/>
					<path fill="none" stroke="#3900A3" stroke-width="0.5" stroke-miterlimit="10" d="M69.194,314.342
						c-1.514,3.338-1.85,5.69-1.85,5.69c2.064-0.229,4.06-0.35,5.989-0.372"/>
					
						<path fill="none" stroke="#3900A3" stroke-width="0.5" stroke-miterlimit="10" stroke-dasharray="7.6389,7.6389,31.8285,31.8285" d="
						M103.291,328.792c8.758,6.035,14.735,13.718,18.942,18.685c5.615,6.628,16.257,17.247,25.315,26.04"/>
				</g>
				<g>
					<path fill="none" stroke="#3900A3" stroke-width="0.5" stroke-miterlimit="10" d="M160.108,277.017
						c2.932-2.111,5.008-3.298,5.008-3.298s2.076,1.187,5.008,3.298"/>
					
						<path fill="none" stroke="#3900A3" stroke-width="0.5" stroke-miterlimit="10" stroke-dasharray="4.7829,4.7829,19.9286,19.9286" d="
						M184.309,290.884c2.832,4.122,4.821,8.774,4.821,13.71c0,8.253-5.56,15.712-11.329,21.231"/>
					<path fill="none" stroke="#3900A3" stroke-width="0.5" stroke-miterlimit="10" d="M170.124,332.171
						c-2.932,2.111-5.008,3.298-5.008,3.298s-2.076-1.187-5.008-3.298"/>
					
						<path fill="none" stroke="#3900A3" stroke-width="0.5" stroke-miterlimit="10" stroke-dasharray="4.7829,4.7829,19.9286,19.9286" d="
						M145.923,318.304c-2.832-4.122-4.821-8.774-4.821-13.71c0-8.253,5.56-15.712,11.329-21.231"/>
				</g>
			</g>
		</g>
		<g>
			<g>
				<g>
					<g>
						
							<line fill="none" stroke="#3900A3" stroke-width="0.5" stroke-miterlimit="10" x1="50.458" y1="545.167" x2="44.458" y2="545.194"/>
						
							<line fill="none" stroke="#3900A3" stroke-width="0.5" stroke-miterlimit="10" stroke-dasharray="4.2529,4.2529,17.7206,17.7206" x1="26.738" y1="545.274" x2="-8.349" y2="545.433"/>
						<path fill="none" stroke="#3900A3" stroke-width="0.5" stroke-miterlimit="10" d="M-17.209,545.473l-6,0.027
							c0,0,0-2.253,0-5.998"/>
						
							<path fill="none" stroke="#3900A3" stroke-width="0.5" stroke-miterlimit="10" stroke-dasharray="12.1183,12.1183,50.493,50.493" d="
							M-23.209,489.012c0-10.793,0-19.519,0-21.967c0-24.832,14.327-50.863,36.217-65.848"/>
						
							<path fill="none" stroke="#3900A3" stroke-width="0.5" stroke-miterlimit="10" stroke-dasharray="12.1183,50.493,12.1183,12.1183,50.493,50.493" d="
							M35.833,390.681c5.436-1.417,11.11-2.181,16.959-2.181c42.667,0,173.333,0,213.333,0s80.836,28.423,80.836,78.545
							c0,0,5.831,26.789-25.503,56.122c-17.312,16.208-56.606,50.732-88.305,78.385"/>
						<path fill="none" stroke="#3900A3" stroke-width="0.5" stroke-miterlimit="10" d="M214.11,618.136
							c-1.557,1.354-3.069,2.668-4.528,3.936"/>
					</g>
				</g>
				<g>
					<path fill="none" stroke="#3900A3" stroke-width="0.5" stroke-miterlimit="10" stroke-dasharray="5.9948" d="M191.325,637.91
						c-2.907,2.517-4.533,3.923-4.533,3.923"/>
				</g>
			</g>
		</g>
		<g>
			<g>
				<g>
					<path fill="none" stroke="#3900A3" stroke-width="0.5" stroke-miterlimit="10" stroke-dasharray="3.2892" d="M111.034,508.259
						c0,0,0.016-1.194,0.04-3.289"/>
				</g>
				<g>
					<g>
						
							<line fill="none" stroke="#3900A3" stroke-width="0.5" stroke-miterlimit="10" x1="161.458" y1="504.054" x2="155.458" y2="504.054"/>
						
							<line fill="none" stroke="#3900A3" stroke-width="0.5" stroke-miterlimit="10" stroke-dasharray="9.2508,9.2508,38.5448,38.5448" x1="116.913" y1="504.054" x2="40.594" y2="504.054"/>
						<polyline fill="none" stroke="#3900A3" stroke-width="0.5" stroke-miterlimit="10" points="21.322,504.054 15.322,504.054 
							15.322,498.054 						"/>
						
							<path fill="none" stroke="#3900A3" stroke-width="0.5" stroke-miterlimit="10" stroke-dasharray="12.7896,12.7896,53.2901,53.2901" d="
							M19.858,445.441c6.585-13.357,19.76-21.766,35.656-21.766c7.772,0,32.009,0,61.492,0"/>
						
							<path fill="none" stroke="#3900A3" stroke-width="0.5" stroke-miterlimit="10" stroke-dasharray="12.7896,53.2901,12.7896,12.7896,53.2901,53.2901" d="
							M143.651,423.675c52.441,0,110.396,0,122.495,0c21.494,0,43.436,14.593,43.436,42.091c0,0,3.133,11.697-13.704,27.79
							c-9.055,8.656-73.225,64.922-110.614,97.747"/>
						<path fill="none" stroke="#3900A3" stroke-width="0.5" stroke-miterlimit="10" d="M165.285,608.863
							c-1.844,1.625-3.359,2.963-4.495,3.971"/>
					</g>
				</g>
			</g>
		</g>
	</g>
</g>
<g id="Layer_3">
</g>
</svg>
