<?xml version="1.0" encoding="utf-8"?>
<!-- Generator: Adobe Illustrator 17.0.0, SVG Export Plug-In . SVG Version: 6.00 Build 0)  -->
<!DOCTYPE svg PUBLIC "-//W3C//DTD SVG 1.1//EN" "http://www.w3.org/Graphics/SVG/1.1/DTD/svg11.dtd">
<svg version="1.1" id="Layer_1" xmlns="http://www.w3.org/2000/svg" xmlns:xlink="http://www.w3.org/1999/xlink" x="0px" y="0px"
	 width="424px" height="420.802px" viewBox="-85.596 0 424 420.802" enable-background="new -85.596 0 424 420.802"
	 xml:space="preserve">
<g>
	<path fill="#3900A3" d="M244.945,284.411c-4.206-24.603-15.534-45.488-33.102-63.049c-2.085-2.084-2.263-3.351,0.03-5.255
		c4.722-3.922,9.18-8.165,13.954-12.019c12.675-10.23,20.377-23.244,20.881-39.612c0.934-30.359-22.369-53.929-52.952-54.064
		c-20.609-0.092-41.218-0.018-62.72-0.018c1.82-1.93,3.012-3.261,4.274-4.524c9.617-9.634,19.41-19.096,28.819-28.928
		c7.589-7.93,16.286-12.018,27.837-9.646c-1.916-6.037-5.154-10.517-9.797-14.156c-4.039-3.167-10.215-2.654-13.265-5.948
		c-3.131-3.381-3.632-9.072-6.613-13.25c-8.925-12.511-23.654-19.137-31.863-32.714c-3.93,6.146-8.52,10.624-13.52,14.873
		c-10.026,8.521-20.777,16.623-24.25,30.4c-0.579,2.295-2.304,1.849-3.88,2.237c-9.878,2.433-16.512,8.364-19.828,18.592
		c11.114-2.274,19.786,1.17,27.058,8.902c3.83,4.073,7.847,7.975,11.855,11.876c7.278,7.084,14.613,14.111,21.924,21.162
		c-1.534,1.156-2.208,1.145-2.881,1.157c-22.536,0.425-45.104-1.149-67.609,0.834c-24.356,2.146-44.871,24.663-45.177,49.383
		c-0.33,26.753,0.087,32.446-0.124,48.666c-0.051,3.919,1.056,5.08,4.994,5.001c12.243-0.245,24.494-0.09,36.742-0.09
		c-2.886,3.066-5.491,5.737-8.038,8.444c-2.677,2.843-5.31,5.748-7.729,8.811C18.54,258.599,10.204,289.37,15.73,323.428
		c4.771,29.413,19.205,53.547,42.595,72.155c25.643,20.399,55.085,28.235,87.237,24.189c31.648-3.983,57.748-19.099,77.092-44.528
		C243.1,348.369,250.676,317.919,244.945,284.411z M121.946,65.419c-2.536-2.667-4.037-5.699-4.561-9.281
		c0.063-4.181,7.891-15.031,11.98-16.828c1.315-0.577,2.157-0.114,2.949,0.689c2.732,2.775,5.773,5.339,8.036,8.463
		c4.521,6.244,3.937,11.115-1.37,16.906C130.558,74.563,130.601,74.521,121.946,65.419z M220.834,306.768
		c-1.249,44.731-33.888,79.779-74.986,86.634c-50.842,8.48-96.56-25.161-104.501-74.186c-5.535-34.166,6.41-62.346,32.6-85.296
		c17.336-15.191,31.181-27.099,46.698-40.734c1.164-1.023,3.366-1.986,2.695-3.8c-0.706-1.909-2.964-0.936-4.504-0.939
		c-24.421-0.062-48.844-0.126-73.264,0.034c-4.204,0.028-5.767-0.81-5.765-5.538c0.004-11.771-0.974-17.497,1.023-26.156
		c2.773-12.029,11.89-19.835,24.208-19.875c43.623-0.145,87.246-0.14,130.87-0.016c11.252,0.032,18.844,6.005,23.084,16.221
		c4.081,9.834,2.048,20.136-6.127,27.483c-17.436,15.672-35.182,31.001-52.807,46.463c-16.228,14.235-32.401,28.534-48.731,42.651
		c-6.493,5.613-12.411,11.818-18.767,17.544c-6.541,5.893-14.518,7.834-23.765,5.597c3.684,10.301,10.05,16.721,20.232,18.61
		c2.52,0.468,3.558,1.506,4.125,3.595c2.603,9.618,9.092,16.47,16.297,22.764c7.379,6.447,15.351,12.273,21.013,21.219
		c6.638-10.74,17.005-17.017,25.402-25.329c5.35-5.296,9.842-11.103,11.838-18.542c0.543-2.022,1.466-3.246,4.063-3.704
		c10.223-1.802,16.571-8.256,20.319-18.493c-12.533,2.752-21.674-2.274-29.296-11.085c-0.73-0.844-1.63-1.539-2.359-2.383
		c-2.993-3.475-9.216-6.334-8.699-10.002c0.498-3.532,6.215-6.367,9.712-9.425c8.125-7.105,16.409-14.031,24.38-21.303
		c2.664-2.432,4.194-2.497,6.833,0.054C211.897,257.431,221.573,280.291,220.834,306.768z M143.519,304.702
		c0.081,3.353-8.329,15.094-12.271,16.482c-1.397,0.491-2.104-0.313-2.867-1.066c-2.518-2.486-5.247-4.817-7.425-7.579
		c-5.522-6.999-4.585-12.242,3.156-19.786c6.452-6.289,6.404-6.24,12.669-0.081C140.02,295.857,142.958,299.138,143.519,304.702z"/>
</g>
</svg>
