<?xml version="1.0" encoding="utf-8"?>
<!-- Generator: Adobe Illustrator 17.0.0, SVG Export Plug-In . SVG Version: 6.00 Build 0)  -->
<!DOCTYPE svg PUBLIC "-//W3C//DTD SVG 1.1//EN" "http://www.w3.org/Graphics/SVG/1.1/DTD/svg11.dtd">
<svg version="1.1" id="Layer_1" xmlns="http://www.w3.org/2000/svg" xmlns:xlink="http://www.w3.org/1999/xlink" x="0px" y="0px"
	 width="297.807px" height="420.802px" viewBox="0 0 297.807 420.802" enable-background="new 0 0 297.807 420.802"
	 xml:space="preserve">
<g>
	<path fill="#3900A3" d="M250.207,274.469c-3.759-21.986-13.882-40.65-29.581-56.343c-1.863-1.862-2.022-2.995,0.027-4.696
		c4.22-3.505,8.204-7.297,12.47-10.741c11.327-9.142,18.21-20.772,18.66-35.399c0.835-27.13-19.99-48.193-47.32-48.314
		c-18.417-0.082-36.834-0.016-56.049-0.016c1.626-1.725,2.692-2.914,3.819-4.043c8.594-8.609,17.346-17.065,25.754-25.851
		c6.782-7.087,14.554-10.74,24.876-8.62c-1.712-5.395-4.606-9.398-8.755-12.65c-3.609-2.83-9.129-2.372-11.854-5.315
		c-2.798-3.021-3.246-8.107-5.91-11.841c-7.976-11.18-21.138-17.102-28.474-29.235c-3.512,5.492-7.614,9.494-12.082,13.291
		c-8.96,7.615-18.567,14.855-21.671,27.167c-0.517,2.051-2.059,1.652-3.467,1.999c-8.827,2.174-14.756,7.474-17.719,16.615
		c9.932-2.032,17.682,1.046,24.18,7.955c3.423,3.64,7.012,7.127,10.594,10.613c6.504,6.331,13.059,12.61,19.592,18.911
		c-1.371,1.033-1.973,1.023-2.575,1.034c-20.139,0.38-40.307-1.027-60.418,0.745c-21.766,1.918-40.099,22.04-40.372,44.131
		c-0.295,23.908,0.078,28.995-0.111,43.49c-0.046,3.502,0.944,4.54,4.463,4.469c10.941-0.219,21.889-0.08,32.834-0.08
		c-2.579,2.74-4.907,5.127-7.183,7.546c-2.392,2.541-4.745,5.137-6.907,7.874c-19.146,24.237-26.596,51.735-21.658,82.171
		c4.264,26.285,17.162,47.852,38.065,64.481c22.916,18.229,49.226,25.232,77.959,21.616c28.282-3.559,51.606-17.068,68.893-39.792
		C248.558,331.624,255.328,304.413,250.207,274.469z M140.29,78.768c-2.266-2.383-3.608-5.093-4.076-8.294
		c0.056-3.736,7.052-13.432,10.706-15.038c1.175-0.516,1.928-0.102,2.635,0.616c2.441,2.48,5.159,4.771,7.181,7.563
		c4.04,5.58,3.518,9.933-1.224,15.108C147.986,86.939,148.024,86.902,140.29,78.768z M228.66,294.448
		c-1.116,39.974-30.284,71.294-67.011,77.42c-45.435,7.578-86.29-22.485-93.387-66.296c-4.946-30.532,5.728-55.715,29.133-76.224
		c15.492-13.575,27.865-24.217,41.731-36.402c1.04-0.914,3.008-1.775,2.408-3.396c-0.631-1.706-2.649-0.836-4.025-0.839
		c-21.824-0.055-43.649-0.113-65.472,0.03c-3.757,0.025-5.154-0.724-5.152-4.949c0.004-10.519-0.87-15.636,0.914-23.374
		c2.478-10.75,10.625-17.725,21.633-17.761c38.983-0.13,77.967-0.125,116.951-0.014c10.055,0.029,16.84,5.366,20.629,14.496
		c3.647,8.788,1.83,17.994-5.475,24.56c-15.582,14.005-31.44,27.704-47.191,41.521c-14.502,12.721-28.955,25.499-43.548,38.115
		c-5.802,5.016-11.091,10.561-16.771,15.678c-5.845,5.266-12.974,7.001-21.237,5.002c3.292,9.205,8.981,14.943,18.08,16.631
		c2.252,0.418,3.18,1.346,3.686,3.213c2.326,8.595,8.125,14.718,14.564,20.343c6.594,5.761,13.718,10.968,18.778,18.962
		c5.932-9.598,15.196-15.207,22.7-22.635c4.781-4.733,8.795-9.922,10.579-16.57c0.485-1.807,1.31-2.901,3.631-3.31
		c9.136-1.61,14.809-7.378,18.158-16.526c-11.2,2.459-19.369-2.032-26.18-9.906c-0.652-0.754-1.457-1.375-2.108-2.13
		c-2.675-3.105-8.236-5.66-7.774-8.938c0.445-3.156,5.554-5.69,8.679-8.423c7.261-6.349,14.664-12.539,21.787-19.037
		c2.381-2.173,3.748-2.231,6.106,0.048C220.674,250.358,229.321,270.787,228.66,294.448z M159.568,292.602
		c0.072,2.996-7.443,13.489-10.966,14.729c-1.248,0.439-1.88-0.28-2.562-0.953c-2.25-2.222-4.689-4.305-6.635-6.773
		c-4.935-6.255-4.097-10.94,2.82-17.682c5.766-5.62,5.723-5.576,11.322-0.072C156.441,284.697,159.067,287.629,159.568,292.602z"/>
</g>
</svg>
