<?xml version="1.0" encoding="utf-8"?>
<!-- Generator: Adobe Illustrator 17.0.0, SVG Export Plug-In . SVG Version: 6.00 Build 0)  -->
<!DOCTYPE svg PUBLIC "-//W3C//DTD SVG 1.1//EN" "http://www.w3.org/Graphics/SVG/1.1/DTD/svg11.dtd">
<svg version="1.1" id="Layer_1" xmlns="http://www.w3.org/2000/svg" xmlns:xlink="http://www.w3.org/1999/xlink" x="0px" y="0px"
	 width="834.5px" height="792.5px" viewBox="0 357.5 834.5 792.5" enable-background="new 0 357.5 834.5 792.5"
	 xml:space="preserve">
<g id="Layer_1_1_">
</g>
<g id="Layer_2">
	
		<circle fill="none" stroke="#E6E6E6" stroke-width="0.5" stroke-miterlimit="10" stroke-dasharray="12,10" cx="498.944" cy="762.045" r="78.017"/>
	
		<circle fill="none" stroke="#E6E6E6" stroke-width="0.5" stroke-miterlimit="10" stroke-dasharray="12,10" cx="498.944" cy="759.35" r="40.704"/>
	
		<circle fill="none" stroke="#E6E6E6" stroke-width="0.5" stroke-miterlimit="10" stroke-dasharray="12,10" cx="286.011" cy="762.045" r="78.017"/>
	
		<circle fill="none" stroke="#E6E6E6" stroke-width="0.5" stroke-miterlimit="10" stroke-dasharray="12,10" cx="286.011" cy="759.35" r="40.704"/>
	
		<circle fill="none" stroke="#E6E6E6" stroke-width="0.5" stroke-miterlimit="10" stroke-dasharray="12,10" cx="394.002" cy="845.404" r="324.789"/>
	
		<circle fill="none" stroke="#E6E6E6" stroke-width="0.5" stroke-miterlimit="10" stroke-dasharray="12,10" cx="394.002" cy="845.404" r="283.749"/>
	
		<line fill="none" stroke="#E6E6E6" stroke-width="0.5" stroke-miterlimit="10" x1="513.83" y1="1196.062" x2="20.161" y2="681.326"/>
	
		<line fill="none" stroke="#E6E6E6" stroke-width="0.5" stroke-miterlimit="10" x1="565.772" y1="1196.838" x2="21.367" y2="629.201"/>
	
		<line fill="none" stroke="#E6E6E6" stroke-width="0.5" stroke-miterlimit="10" x1="631.924" y1="1196.693" x2="20.973" y2="559.67"/>
	<line fill="none" stroke="#E6E6E6" stroke-width="0.5" stroke-miterlimit="10" x1="680.185" y1="1193.631" x2="20" y2="505.273"/>
	
		<line fill="none" stroke="#E6E6E6" stroke-width="0.5" stroke-miterlimit="10" x1="174.163" y1="386.762" x2="174.163" y2="1197.6"/>
	
		<line fill="none" stroke="#E6E6E6" stroke-width="0.5" stroke-miterlimit="10" x1="133.105" y1="386.762" x2="133.105" y2="1197.6"/>
	
		<line fill="none" stroke="#E6E6E6" stroke-width="0.5" stroke-miterlimit="10" x1="718.625" y1="536.347" x2="718.625" y2="1197.228"/>
	
		<line fill="none" stroke="#E6E6E6" stroke-width="0.5" stroke-miterlimit="10" x1="677.567" y1="536.347" x2="677.567" y2="1197.228"/>
	
		<line fill="none" stroke="#E6E6E6" stroke-width="0.5" stroke-miterlimit="10" x1="20.46" y1="1129.207" x2="808.478" y2="1129.207"/>
	
		<line fill="none" stroke="#E6E6E6" stroke-width="0.5" stroke-miterlimit="10" x1="20.46" y1="1169.638" x2="808.478" y2="1169.638"/>
	
		<line fill="none" stroke="#E6E6E6" stroke-width="0.5" stroke-miterlimit="10" x1="20.46" y1="683.997" x2="720.777" y2="683.997"/>
	
		<line fill="none" stroke="#E6E6E6" stroke-width="0.5" stroke-miterlimit="10" x1="20.46" y1="642.939" x2="740.276" y2="642.939"/>
	
		<line fill="none" stroke="#E6E6E6" stroke-width="0.5" stroke-miterlimit="10" x1="20.46" y1="840.328" x2="826.015" y2="840.328"/>
	<line fill="none" stroke="#E6E6E6" stroke-width="0.5" stroke-miterlimit="10" x1="20.46" y1="799.27" x2="826.015" y2="799.27"/>
	
		<line fill="none" stroke="#E6E6E6" stroke-width="0.5" stroke-miterlimit="10" x1="20.46" y1="911.755" x2="826.015" y2="911.755"/>
	
		<line fill="none" stroke="#E6E6E6" stroke-width="0.5" stroke-miterlimit="10" x1="20.46" y1="870.697" x2="826.015" y2="870.697"/>
	
		<line fill="none" stroke="#E6E6E6" stroke-width="0.5" stroke-miterlimit="10" x1="20.46" y1="981.834" x2="826.015" y2="981.834"/>
	
		<line fill="none" stroke="#E6E6E6" stroke-width="0.5" stroke-miterlimit="10" x1="20.46" y1="940.776" x2="826.015" y2="940.776"/>
	
		<circle fill="none" stroke="#E6E6E6" stroke-width="0.5" stroke-miterlimit="10" stroke-dasharray="12,10" cx="392.927" cy="986.433" r="183.721"/>
	
		<circle fill="none" stroke="#E6E6E6" stroke-width="0.5" stroke-miterlimit="10" stroke-dasharray="12,10" cx="392.927" cy="986.433" r="142.011"/>
	
		<line fill="none" stroke="#E6E6E6" stroke-width="0.5" stroke-miterlimit="10" x1="383.791" y1="913.833" x2="846.536" y2="509.378"/>
	
		<line fill="none" stroke="#E6E6E6" stroke-width="0.5" stroke-miterlimit="10" x1="278.73" y1="898.35" x2="804.324" y2="438.342"/>
	<rect x="206.96" y="683.998" fill="none" stroke="#E6E6E6" stroke-width="0.5" stroke-miterlimit="10" width="369" height="486"/>
	<g>
		<g>
			<g>
				<path fill="none" stroke="#3900A3" stroke-width="0.5" stroke-miterlimit="10" d="M395.637,911.711
					c-2.696-2.554-4.364-4.113-4.364-4.113s-1.669,1.559-4.364,4.113"/>
				<path fill="none" stroke="#3900A3" stroke-width="0.5" stroke-miterlimit="10" stroke-dasharray="13.4258,27.9705" d="
					M366.821,931.172c-6.519,6.49-12.824,13-16.715,17.592c-6.401,7.556-16.896,21.397-35.048,26.16"/>
				<path fill="none" stroke="#3900A3" stroke-width="0.5" stroke-miterlimit="10" d="M301.206,976.582
					c-1.93-0.022-3.925-0.143-5.99-0.372c0,0,0.336,2.353,1.85,5.69"/>
				<path fill="none" stroke="#3900A3" stroke-width="0.5" stroke-miterlimit="10" stroke-dasharray="7.3521,15.3169" d="
					M306.417,993.858c3.328,2.696,7.625,5.191,13.165,7.039"/>
				<path fill="none" stroke="#3900A3" stroke-width="0.5" stroke-miterlimit="10" d="M327.012,1002.807
					c1.869,0.352,3.847,0.638,5.94,0.848c0,0,0.414,2.194,1.652,5.763"/>
				<path fill="none" stroke="#3900A3" stroke-width="0.5" stroke-miterlimit="10" stroke-dasharray="10.0141,20.8626" d="
					M344.112,1027.919c4.28,6.156,10.111,12.7,18.001,18.617c6.741,5.056,13.895,10.939,19.431,16.227"/>
				<path fill="none" stroke="#3900A3" stroke-width="0.5" stroke-miterlimit="10" d="M388.635,1070.402
					c1.668,2.177,2.638,4.005,2.638,5.294c0-1.289,0.969-3.117,2.638-5.294"/>
				<path fill="none" stroke="#3900A3" stroke-width="0.5" stroke-miterlimit="10" stroke-dasharray="10.014,20.8626" d="
					M408.778,1055.811c3.764-3.185,7.778-6.367,11.655-9.275c11.888-8.916,19.101-19.254,23.378-27.545"/>
				<path fill="none" stroke="#3900A3" stroke-width="0.5" stroke-miterlimit="10" d="M447.941,1009.417
					c1.239-3.569,1.652-5.763,1.652-5.763c2.093-0.209,4.071-0.495,5.941-0.848"/>
				<path fill="none" stroke="#3900A3" stroke-width="0.5" stroke-miterlimit="10" stroke-dasharray="7.3522,15.317" d="
					M469.99,997.904c5.248-2.793,8.932-6.2,11.509-9.478"/>
				<path fill="none" stroke="#3900A3" stroke-width="0.5" stroke-miterlimit="10" d="M485.479,981.9
					c1.514-3.338,1.85-5.69,1.85-5.69c-2.064,0.229-4.06,0.35-5.99,0.372"/>
				<path fill="none" stroke="#3900A3" stroke-width="0.5" stroke-miterlimit="10" stroke-dasharray="13.4258,27.9705" d="
					M454.635,969.529c-10.561-6.245-17.486-15.206-22.195-20.765c-5.904-6.969-17.366-18.351-26.7-27.382"/>
			</g>
			<g>
				<path fill="none" stroke="#3900A3" stroke-width="0.5" stroke-miterlimit="10" d="M394.566,1019.224
					c-2.932,2.111-5.008,3.298-5.008,3.298s-2.076-1.187-5.008-3.298"/>
				<path fill="none" stroke="#3900A3" stroke-width="0.5" stroke-miterlimit="10" stroke-dasharray="13.4229,27.9643" d="
					M366.688,998.234c-0.726-2.12-1.144-4.324-1.144-6.588c0-6.896,3.881-13.237,8.523-18.355"/>
				<path fill="none" stroke="#3900A3" stroke-width="0.5" stroke-miterlimit="10" d="M384.55,964.069
					c2.932-2.111,5.008-3.298,5.008-3.298s2.076,1.187,5.008,3.298"/>
				<path fill="none" stroke="#3900A3" stroke-width="0.5" stroke-miterlimit="10" stroke-dasharray="13.4229,27.9643" d="
					M412.428,985.059c0.726,2.12,1.144,4.324,1.144,6.588c0,6.896-3.881,13.237-8.523,18.356"/>
			</g>
		</g>
	</g>
	<path fill="#3900A3" d="M352.233,642.477c10.976,12.956,41.167,41.167,41.167,41.167s30.191-28.211,41.167-41.167
		c8.444-9.968,24.014-30.875,54.889-27.445c0,0-3.431-24.014-37.736-27.445c0,0-4.613-24.472-29.16-42.882
		c-13.722-10.292-29.16-24.014-29.16-29.16c0,5.146-15.438,18.868-29.16,29.16c-24.547,18.41-29.16,42.882-29.16,42.882
		c-34.306,3.431-37.736,27.445-37.736,27.445C328.219,611.602,343.79,632.509,352.233,642.477z M395.116,568.719
		c0,0,24.014,13.722,24.014,30.875s-24.014,30.875-24.014,30.875s-24.014-13.722-24.014-30.875S395.116,568.719,395.116,568.719z"/>
	
		<line fill="none" stroke="#E6E6E6" stroke-width="0.5" stroke-miterlimit="10" stroke-dasharray="12,50" x1="293.458" y1="1044.833" x2="756.203" y2="640.378"/>
	<g>
		<g>
			<path fill="none" stroke="#3900A3" stroke-width="0.5" stroke-miterlimit="10" stroke-dasharray="12,50,12,12,50,50" d="
				M280.458,840.167l-73.667,0.333c0,0,0-70.7,0-78.455c0-37.878,33.334-78.545,76.001-78.545s173.333,0,213.333,0
				s80.836,28.423,80.836,78.545c0,0,5.831,26.789-25.503,56.122c-22.018,20.613-79.591,70.854-111.876,98.905"/>
			<path fill="none" stroke="#3900A3" stroke-width="0.5" stroke-miterlimit="10" stroke-dasharray="12,50,12,12,50,50" d="
				M421.325,932.91c-2.907,2.517-4.533,3.923-4.533,3.923"/>
		</g>
	</g>
	<g>
		<g>
			
				<path fill="none" stroke="#3900A3" stroke-width="0.2715" stroke-miterlimit="10" stroke-dasharray="6.5154,27.1475,6.5154,6.5154,27.1475,27.1475" d="
				M341.034,803.259c0,0,0.016-1.194,0.04-3.289"/>
			
				<path fill="none" stroke="#3900A3" stroke-width="0.5" stroke-miterlimit="10" stroke-dasharray="6.5154,60,50,6.5154,27.1475,20" d="
				M391.458,799.054H245.322v-38.288c0-24.599,17.265-42.091,40.192-42.091s189.139,0,210.632,0
				c21.494,0,43.436,14.593,43.436,42.091c0,0,3.133,11.697-13.704,27.79c-11.831,11.309-117.74,103.888-135.088,119.278"/>
		</g>
	</g>
</g>
<g id="Layer_3">
</g>
</svg>
