<?xml version="1.0" encoding="utf-8"?>
<!-- Generator: Adobe Illustrator 17.0.0, SVG Export Plug-In . SVG Version: 6.00 Build 0)  -->
<!DOCTYPE svg PUBLIC "-//W3C//DTD SVG 1.1//EN" "http://www.w3.org/Graphics/SVG/1.1/DTD/svg11.dtd">
<svg version="1.1" xmlns="http://www.w3.org/2000/svg" xmlns:xlink="http://www.w3.org/1999/xlink" x="0px" y="0px" width="1924px"
	 height="1150px" viewBox="0 0 1924 1150" enable-background="new 0 0 1924 1150" xml:space="preserve">
<g id="Layer_1">
</g>
<g id="Layer_2">
	<circle fill="none" stroke="#E6E6E6" stroke-width="1.3477" stroke-miterlimit="10" cx="479.484" cy="715.547" r="78.017"/>
	<circle fill="none" stroke="#E6E6E6" stroke-width="1.3477" stroke-miterlimit="10" cx="479.484" cy="712.852" r="40.704"/>
	<circle fill="none" stroke="#E6E6E6" stroke-width="1.3477" stroke-miterlimit="10" cx="266.551" cy="715.547" r="78.017"/>
	<circle fill="none" stroke="#E6E6E6" stroke-width="1.3477" stroke-miterlimit="10" cx="266.551" cy="712.852" r="40.704"/>
	<circle fill="none" stroke="#E6E6E6" stroke-width="1.3167" stroke-miterlimit="10" cx="374.542" cy="798.906" r="324.789"/>
	<circle fill="none" stroke="#E6E6E6" stroke-width="1.3222" stroke-miterlimit="10" cx="374.542" cy="798.906" r="283.749"/>
	
		<line fill="none" stroke="#E6E6E6" stroke-width="0.8357" stroke-miterlimit="10" x1="494.37" y1="1149.564" x2="0.701" y2="634.828"/>
	
		<line fill="none" stroke="#E6E6E6" stroke-width="0.8776" stroke-miterlimit="10" x1="546.312" y1="1150.34" x2="1.907" y2="582.703"/>
	
		<line fill="none" stroke="#E6E6E6" stroke-width="0.9297" stroke-miterlimit="10" x1="612.464" y1="1150.195" x2="1.513" y2="513.172"/>
	
		<line fill="none" stroke="#E6E6E6" stroke-width="0.9665" stroke-miterlimit="10" x1="660.725" y1="1147.133" x2="0.54" y2="458.775"/>
	
		<line fill="none" stroke="#E6E6E6" stroke-width="1.2455" stroke-miterlimit="10" x1="154.703" y1="340.264" x2="154.703" y2="1151.102"/>
	
		<line fill="none" stroke="#E6E6E6" stroke-width="1.2455" stroke-miterlimit="10" x1="113.645" y1="340.264" x2="113.645" y2="1151.102"/>
	
		<line fill="none" stroke="#E6E6E6" stroke-width="1.2159" stroke-miterlimit="10" x1="699.165" y1="489.849" x2="699.165" y2="1150.73"/>
	
		<line fill="none" stroke="#E6E6E6" stroke-width="1.2159" stroke-miterlimit="10" x1="658.107" y1="489.849" x2="658.107" y2="1150.73"/>
	
		<line fill="none" stroke="#E6E6E6" stroke-width="1.3133" stroke-miterlimit="10" x1="1" y1="1082.709" x2="1829.966" y2="1082.709"/>
	
		<line fill="none" stroke="#E6E6E6" stroke-width="1.3133" stroke-miterlimit="10" x1="1" y1="1123.14" x2="1829.966" y2="1123.14"/>
	
		<line fill="none" stroke="#E6E6E6" stroke-width="1.3138" stroke-miterlimit="10" x1="1" y1="637.499" x2="1824.761" y2="637.499"/>
	
		<line fill="none" stroke="#E6E6E6" stroke-width="1.3138" stroke-miterlimit="10" x1="1" y1="596.441" x2="1824.761" y2="596.441"/>
	<line fill="none" stroke="#E6E6E6" stroke-width="1.2384" stroke-miterlimit="10" x1="1" y1="793.83" x2="806.555" y2="793.83"/>
	<line fill="none" stroke="#E6E6E6" stroke-width="1.2384" stroke-miterlimit="10" x1="1" y1="752.772" x2="806.555" y2="752.772"/>
	<line fill="none" stroke="#E6E6E6" stroke-width="1.2384" stroke-miterlimit="10" x1="1" y1="865.257" x2="806.555" y2="865.257"/>
	<line fill="none" stroke="#E6E6E6" stroke-width="1.2384" stroke-miterlimit="10" x1="1" y1="824.199" x2="806.555" y2="824.199"/>
	<line fill="none" stroke="#E6E6E6" stroke-width="1.2384" stroke-miterlimit="10" x1="1" y1="935.336" x2="806.555" y2="935.336"/>
	<line fill="none" stroke="#E6E6E6" stroke-width="1.2384" stroke-miterlimit="10" x1="1" y1="894.278" x2="806.555" y2="894.278"/>
	<circle fill="none" stroke="#E6E6E6" stroke-width="1.3477" stroke-miterlimit="10" cx="373.467" cy="939.935" r="183.721"/>
	<circle fill="none" stroke="#E6E6E6" stroke-width="1.3188" stroke-miterlimit="10" cx="373.467" cy="939.935" r="142.011"/>
	
		<line fill="none" stroke="#E6E6E6" stroke-width="1.3477" stroke-miterlimit="10" x1="310.481" y1="922.888" x2="836.076" y2="462.88"/>
	
		<line fill="none" stroke="#E6E6E6" stroke-width="1.3477" stroke-miterlimit="10" x1="259.27" y1="851.852" x2="784.864" y2="391.844"/>
	<rect x="187.5" y="637.5" fill="none" stroke="#E6E6E6" stroke-miterlimit="10" width="369" height="486"/>
	<path fill="#3900A3" d="M332.773,595.979c10.976,12.956,41.167,41.167,41.167,41.167s30.191-28.211,41.167-41.167
		c8.444-9.968,24.014-30.875,54.889-27.445c0,0-3.431-24.014-37.736-27.445c0,0-4.613-24.472-29.16-42.882
		c-13.722-10.292-29.16-24.014-29.16-29.16c0,5.146-15.438,18.868-29.16,29.16c-24.547,18.41-29.16,42.882-29.16,42.882
		c-34.306,3.431-37.736,27.445-37.736,27.445C308.759,565.104,324.33,586.011,332.773,595.979z M375.656,522.221
		c0,0,24.014,13.722,24.014,30.875s-24.014,30.875-24.014,30.875s-24.014-13.722-24.014-30.875S375.656,522.221,375.656,522.221z"/>
	<path fill="#F2F2F2" d="M414.48,907.767c-10.976-12.956-41.167-41.167-41.167-41.167s-30.191,28.211-41.167,41.167
		c-8.444,9.968-24.014,30.875-54.889,27.445c0,0,3.431,24.014,37.736,27.445c0,0,4.613,24.472,29.16,42.882
		c13.722,10.292,29.16,24.014,29.16,29.16c0-5.146,15.438-18.868,29.16-29.16c24.547-18.411,29.16-42.882,29.16-42.882
		c34.306-3.431,37.736-27.445,37.736-27.445C438.494,938.642,422.924,917.734,414.48,907.767z M371.598,981.524
		c0,0-24.014-13.722-24.014-30.875c0-17.153,24.014-30.875,24.014-30.875s24.014,13.722,24.014,30.875
		C395.612,967.802,371.598,981.524,371.598,981.524z"/>
</g>
<g id="Layer_3">
</g>
</svg>
