<?xml version="1.0" encoding="utf-8"?>
<!-- Generator: Adobe Illustrator 17.0.0, SVG Export Plug-In . SVG Version: 6.00 Build 0)  -->
<!DOCTYPE svg PUBLIC "-//W3C//DTD SVG 1.1//EN" "http://www.w3.org/Graphics/SVG/1.1/DTD/svg11.dtd">
<svg version="1.1" id="Layer_1" xmlns="http://www.w3.org/2000/svg" xmlns:xlink="http://www.w3.org/1999/xlink" x="0px" y="0px"
	 width="173.297px" height="113px" viewBox="0 0 173.297 113" enable-background="new 0 0 173.297 113" xml:space="preserve">
<path fill="#0096FF" d="M29.726,96.329c-7.42-14.693-7.211-28.922-2.967-43.302c7.468-25.298,28.986-38.353,55.057-33.832
	c15.942,2.765,27.526,11.227,34.559,25.67c3.297,6.77,5.858,13.899,8.758,20.862c0.537,1.29,1.104,2.569,1.981,4.604
	c1.47-6.019,2.613-11.194,4.011-16.3c1.93-7.048,4.793-13.416,12.339-16.367c0.995-0.389,1.956-2.189,2.031-3.391
	c0.496-7.97,0.808-15.954,1.009-23.938c0.03-1.181-1.121-2.363-1.217-3.584c-0.078-0.993,0.35-2.308,1.041-2.984
	c0.499-0.489,2.131-0.556,2.655-0.107c0.728,0.624,1.533,2.287,1.199,2.849c-3.254,5.475-1.001,11.353-1.419,17.005
	c-0.32,4.313-0.064,8.669-0.064,12.913c3.573,1.546,5.32,0.794,6.022-2.672c1.555-7.682,3.366-15.314,4.897-23.001
	c0.257-1.292-0.609-2.777-0.506-4.139c0.076-0.999,0.66-2.371,1.439-2.785c0.726-0.386,2.385-0.062,2.94,0.564
	c0.58,0.653,0.666,2.14,0.384,3.088c-0.878,2.949-2.333,5.747-3.007,8.729c-0.927,4.097-1.254,8.325-2.002,12.468
	c-0.921,5.099-1.525,9.539,3.801,13.369c4.248,3.055,4.52,9.254,1.944,13.975c-1.164,2.133-2.709,4.166-4.461,5.85
	c-3.974,3.821-5.768,7.979-5.747,13.818c0.063,17.711-14.057,33.157-31.565,35.494c-21.869,2.919-43.796,1.653-65.706,0.752
	c-12.914-0.531-25.82-1.305-38.715-2.177c-3.426-0.232-6.948-0.821-10.157-1.986c-3.318-1.205-4.064-4.307-1.374-6.495
	c2.76-2.245,6.306-4.042,9.772-4.764C20.532,95.707,24.705,96.329,29.726,96.329z"/>
</svg>
