<?xml version="1.0" encoding="utf-8"?>
<!-- Generator: Adobe Illustrator 17.0.0, SVG Export Plug-In . SVG Version: 6.00 Build 0)  -->
<!DOCTYPE svg PUBLIC "-//W3C//DTD SVG 1.1//EN" "http://www.w3.org/Graphics/SVG/1.1/DTD/svg11.dtd">
<svg version="1.1" id="Layer_1" xmlns="http://www.w3.org/2000/svg" xmlns:xlink="http://www.w3.org/1999/xlink" x="0px" y="0px"
	 width="478px" height="327px" viewBox="0 0 478 327" enable-background="new 0 0 478 327" xml:space="preserve">
<g>
	<path fill="#FFFFFF" d="M397.964,261.055c-1.182-1.169-2.385-2.317-3.698-3.59c-0.565,1.498-1.427,2.26-2.869,2.478
		c-0.664,0.1-1.306,0.672-1.856,1.148c-1.867,1.614-3.637,3.343-5.536,4.917c-15.841,13.128-32.669,24.75-51.594,33.03
		c-6.047,2.646-12.342,4.728-18.529,7.052c-1.547,0.581-3.116,1.103-4.784,1.69c-0.106-0.681-0.173-1.111-0.267-1.718
		c-0.169,0.696-0.29,1.194-0.445,1.832c-0.894-1.55-0.718-1.992,0.531-2.45c6.35-2.326,12.726-4.589,19.005-7.093
		c3.2-1.276,6.24-2.968,9.309-4.555c2.418-1.251,4.739-2.689,7.159-3.935c2.654-1.366,5.556-2.327,8.029-3.953
		c7.162-4.711,14.163-9.667,21.226-14.528c0.162-0.112,0.314-0.24,0.461-0.372c1.823-1.635,3.654-3.263,5.464-4.912
		c2.758-2.513,5.461-5.09,8.271-7.544c1.305-1.139,0.938-2.063-0.009-3.084c-2.048-2.208-4.069-4.443-6.184-6.585
		c-0.312-0.316-1.077-0.246-1.633-0.247c-1.106-0.002-2.289,0.333-3.297,0.037c-0.971-0.285-1.462-0.128-2.185,0.482
		c-5.095,4.298-10.05,8.794-15.409,12.739c-11.605,8.544-24.063,15.688-37.303,21.414c-4.103,1.774-8.296,3.341-12.479,5.014
		c-0.137-0.337-0.231-0.464-0.235-0.594c-0.022-0.641-0.014-1.283-0.03-1.925c-0.023-0.913,0.392-1.409,1.281-1.717
		c6.6-2.288,12.972-5.109,19.19-8.289c9.197-4.704,18.054-9.97,26.321-16.17c4.878-3.658,9.586-7.543,14.482-11.415
		c-9.311,0-18.439,0-27.81,0c0.995,1.716,1.866,3.09,2.604,4.533c0.564,1.102,1.266,1.425,2.374,0.849
		c0.993-0.516,1.567,0.037,2.046,0.829c0.578,0.956-0.308,1.243-0.801,1.589c-2.668,1.87-5.29,3.826-8.083,5.494
		c-5.677,3.389-11.446,6.627-17.208,9.871c-0.36,0.203-1.221,0.104-1.434-0.172c-0.252-0.329-0.277-1.249-0.015-1.486
		c1.362-1.233,1.115-2.305,0.185-3.713c-3.67-5.557-7.218-11.194-10.849-16.777c-0.227-0.349-0.755-0.675-1.163-0.702
		c-1.316-0.089-2.642-0.033-4.129-0.033c1.419,3.726,1.88,7.36,1.789,11.102c-0.093,3.802-0.024,7.608-0.038,11.411
		c-0.008,2.075-0.066,4.149-0.049,6.224c0.009,1.041-0.734,1.232-1.456,1.31c-0.372,0.04-1.127-0.325-1.119-0.476
		c0.029-0.551,0.143-1.305,0.522-1.59c1.078-0.812,1.242-1.698,0.958-2.968c-1.586-7.085-3.104-14.185-4.618-21.285
		c-0.204-0.955-0.505-2.007-0.268-2.882c0.103-0.38,1.452-0.422,2.286-0.631c-10.844,0-21.636,0-32.839,0
		c0.421,0.84,0.651,1.381,0.952,1.88c0.581,0.966,1.364,1.844,1.779,2.872c1.98,4.901,1.823,9.882,0.572,14.955
		c-1.206,4.889-7.447,7.36-11.973,4.945c-0.42-0.224-0.848-0.431-1.385-0.703c-1.532,4.208-2.299,8.398-2.593,12.679
		c-0.021,0.312,0.4,0.697,0.685,0.978c0.772,0.759,0.744,2.057-0.175,2.269c-0.956,0.22-1.112,0.791-1.237,1.56
		c-0.116,0.715-0.399,1.41-0.456,2.127c-0.06,0.763-0.218,1.776,0.179,2.244c0.39,0.459,1.425,0.493,2.178,0.495
		c1.775,0.005,3.585,0.07,5.314-0.249c1.556-0.287,3.47,0.254,4.573-1.499c0.036-0.056,0.186-0.046,0.284-0.057
		c2.068-0.226,4.199,0.218,6.205-0.816c0.526-0.271,1.448,0.351,2.128,0.23c2.909-0.518,5.813-1.094,8.686-1.783
		c1.921-0.461,3.395-3.117,2.898-4.997c-2.357-8.924-4.747-17.839-7.092-26.766c-0.849-3.231-1.606-6.486-2.444-9.886
		c0.707-0.041,1.292-0.029,1.861-0.117c1.19-0.184,1.67,0.241,1.994,1.474c2.912,11.08,5.91,22.138,8.906,33.196
		c0.91,3.36,3.362,4.717,6.71,3.751c2.179-0.629,4.335-1.336,6.514-1.962c0.378-0.109,0.946-0.15,1.211,0.055
		c0.674,0.521,0.05,3.253-0.771,3.531c-2.148,0.727-4.299,1.451-6.466,2.119c-0.826,0.255-1.304,0.576-1.472,1.554
		c-0.15,0.873-0.586,1.905-1.244,2.432c-0.959,0.768-0.891,1.51-0.634,2.463c0.656,2.431,1.255,4.878,1.949,7.298
		c0.305,1.064,0.784,2.079,1.168,3.076c2.644-0.728,5.007-1.379,7.478-2.059c0.019,0.979,0.646,2.039-0.636,2.49
		c-2.886,1.016-5.747,2.217-8.723,2.841c-6.127,1.286-12.318,2.268-18.493,3.318c-1.333,0.227-2.506,0.305-1.817,2.205
		c0.125,0.344-0.473,0.951-0.738,1.437c-0.479-0.333-1.097-0.574-1.398-1.026c-0.299-0.448-0.279-1.109-0.367-1.525
		c-5.287,0.535-10.438,1.038-15.58,1.622c-0.317,0.036-0.685,0.669-0.817,1.091c-0.526,1.68-0.754,3.492-1.518,5.047
		c-0.5,1.019-0.574,1.767-0.183,2.78c28.206-0.349,56.353-0.696,84.5-1.044c-9.9-0.681-19.89,0.63-30.147-1.489
		c0.857-0.298,1.31-0.458,1.764-0.613c6.578-2.248,13.263-4.225,19.714-6.792c24.366-9.695,46.77-22.674,66.385-40.251
		c2.578-2.31,3.674-5.147,3.992-8.417c0.05-0.511-0.145-1.204-0.487-1.569C401.351,264.369,399.648,262.72,397.964,261.055z
		 M378.495,251.819c2.103,0.038,3.952,1.93,3.918,4.009c-0.038,2.323-1.857,4.155-4.109,4.135c-2.288-0.019-4.09-1.769-4.091-3.971
		C374.213,253.721,376.206,251.778,378.495,251.819z M361.804,265.344c2.304-0.003,4.019,1.617,4.058,3.832
		c0.04,2.281-1.779,4.12-4.115,4.162c-2.258,0.041-4.109-1.783-4.066-4.006C357.725,267.1,359.537,265.347,361.804,265.344z
		 M339.677,275.683c0.371-0.312,0.885-0.453,1.265-0.757c0.911-0.727,1.663-0.62,2.379,0.278c0.242,0.304,0.547,0.61,0.891,0.772
		c3.919,1.854,3.599,5.626,4.074,9.022c0.038,0.274-0.27,0.705-0.537,0.896c-2.551,1.827-2.452,1.672-4.973-0.182
		c-2.358-1.734-3.758-3.765-3.64-6.751c0.025-0.63-0.164-1.269-0.311-2.301C339,276.453,339.289,276.01,339.677,275.683z
		 M324.191,286.542c2.298-0.003,4.118,1.751,4.105,3.958c-0.013,2.283-1.764,4.059-4.011,4.069c-2.268,0.01-4.027-1.748-4.038-4.035
		C320.236,288.392,322.061,286.545,324.191,286.542z M308.487,261.063c0.164-0.028,0.327-0.056,0.491-0.083
		c0.766,3.307,1.6,6.601,2.266,9.928c0.309,1.544,0.689,2.583,2.611,2.303c0.442-0.064,1.089,0.739,1.472,1.267
		c0.077,0.106-0.533,0.945-0.965,1.146c-1.593,0.741-3.244,1.356-5.119,2.119c0-4.359,0-8.392,0-12.425
		c-0.142-0.005-0.283-0.01-0.424-0.015c0,3.132,0,6.264,0,9.396c-0.11,0-0.221,0-0.331,0
		C308.487,270.154,308.487,265.609,308.487,261.063z M304.247,301.791c-2.27-0.061-4.072-1.905-3.996-4.088
		c0.08-2.304,1.844-3.994,4.106-3.934c2.425,0.065,3.472,1.306,3.387,4.018C307.659,300.535,306.509,301.852,304.247,301.791z"/>
	<path fill="#FFFFFF" d="M224.802,244.434c-2.17-1.189-4.734-1.947-5.297-4.884c-0.01-0.052-0.164-0.077-0.01-0.01
		c-0.406,0.256-0.706,0.607-0.95,0.572c-1.585-0.231-3.221-0.358-4.718-0.876c-2.326-0.804-2.67-0.742-3.293,1.596
		c-0.191,0.716-0.371,1.435-0.557,2.152c-0.615,2.364-0.616,2.367-3.041,2.237c-0.238-0.013-0.473-0.076-0.868-0.143
		c0.531-2.011,1.011-3.968,1.575-5.901c0.269-0.922,0.01-1.416-0.904-1.617c-1.055-0.232-2.139-0.38-3.157-0.722
		c-8.097-2.716-16.172-5.496-23.814-9.366c-1.037-0.525-1.536-0.339-1.964,0.8c-1.98,5.267-4.076,10.49-6.061,15.755
		c-0.457,1.211-1.116,1.48-2.365,0.993c1.196-3.278,2.378-6.519,3.56-9.759c-0.169-0.123-0.337-0.246-0.505-0.37
		c-0.476,0.334-1.034,0.594-1.416,1.014c-2.528,2.775-5.013,5.589-7.527,8.376c-0.322,0.357-0.723,0.887-1.106,0.904
		c-2.026,0.091-4.058,0.042-6.472,0.042c6.219-7.017,12.129-13.686,18.148-20.477c-0.666-0.471-1.118-0.833-1.609-1.131
		c-2.785-1.688-5.705-3.185-8.344-5.076c-4.855-3.477-9.561-7.163-14.293-10.81c-0.875-0.675-1.393-0.686-2.209,0.141
		c-9.749,9.877-19.523,19.729-29.336,29.543c-1.806,1.806-3.478,3.496-2.428,6.386c0.326,0.897-0.073,1.561-1.285,1.552
		c-2.318-0.017-4.639,0.185-6.956,0.14c-1.103-0.021-2.199-0.4-3.221-0.601c-1.011,0.191-2.037,0.548-3.064,0.549
		c-4.001,0.004-8.003-0.102-12.004-0.174c-0.457-0.008-0.913-0.061-1.727-0.119c3.874-3.941,7.486-7.617,11.129-11.324
		c-0.408-0.478-0.685-0.819-0.978-1.146c-5.881-6.559-11.15-13.587-16.025-20.918c-9.411-14.153-16.525-29.415-21.985-45.475
		c-0.423-1.244-0.771-2.329-2.396-2.577c-0.756-0.115-1.394-1.004-2.088-1.541c-0.239-0.185-0.483-0.362-0.932-0.699
		c0,1.397-0.086,2.525,0.036,3.629c0.062,0.558,0.376,1.208,0.787,1.588c1.91,1.766,1.971,4.065,0.172,5.983
		c-0.413,0.44-0.75,1.168-0.739,1.757c0.12,6.816,0.483,13.632,0.422,20.445c-0.035,3.856,1.157,7.224,2.953,10.434
		c1.48,2.644,3.332,5.077,4.92,7.664c1.293,2.106,2.391,4.331,3.665,6.449c1.548,2.575,3.114,5.146,4.818,7.618
		c1.225,1.777,2.708,3.375,4.041,5.08c1.247,1.594,2.391,3.271,3.681,4.828c1.743,2.104,3.606,4.108,5.363,6.201
		c0.462,0.55,0.723,1.268,1.106,1.965c-1.983,0.426-3.207-0.123-4.369-1.515c-9.298-11.141-17.617-22.95-24.68-35.634
		c-0.243-0.437-0.517-0.856-0.776-1.284c-0.099,0.037-0.197,0.074-0.296,0.112c0.317,9.86,0.635,19.72,0.958,29.76
		c-0.872-0.229-1.328-0.348-2.2-0.577c2.445,3.175,4.668,6.061,7.051,9.155c-2.175,0.099-3.961,0.18-5.747,0.261
		c0.005,0.166,0.01,0.333,0.015,0.499c57.175,0,114.35,0,171.917,0C226.328,245.286,225.569,244.854,224.802,244.434z
		 M60.403,193.909c-2.081,0.036-3.952-1.746-3.97-3.78c-0.02-2.265,1.729-4.105,3.941-4.146c2.196-0.041,3.99,1.672,4.037,3.853
		C64.459,192.052,62.669,193.87,60.403,193.909z M75.724,209.645c-1.659,2.453-3.679,3.959-6.7,4.025
		c-0.778,0.017-1.551,0.254-2.698,0.455c-0.275-0.348-0.653-0.85-1.055-1.333c-0.993-1.191-1.168-2.335,0.159-3.414
		c0.037-0.03,0.07-0.072,0.092-0.115c1.9-3.71,5.207-4.771,9.052-4.757c0.4,0.001,0.94,0.234,1.175,0.542
		C77.503,207.356,77.333,207.268,75.724,209.645z M82.816,231.317c-2.132,0.01-3.883-1.695-3.923-3.82
		c-0.045-2.349,1.701-4.136,4.058-4.156c2.259-0.019,4.03,1.763,4.011,4.036C86.943,229.602,85.15,231.306,82.816,231.317z"/>
	<path fill="#FFFFFF" d="M203.015,256.245c0.624-2.319,1.222-4.645,1.889-7.191c-16.649,0-33.116,0-49.583,0
		c0,0.064,0,0.128,0,0.192c0.979,0.085,1.957,0.169,3.287,0.285c-2.631,2.983-5.067,5.802-7.575,8.556
		c-0.812,0.892-0.985,1.542-0.045,2.477c1.183,1.177,1.084,1.599-0.402,3.035c-2.484-1.598-5.026-3.197-7.522-4.866
		c-0.584-0.39-1.559-0.687-1.051-1.799c0.492-1.076,1.284-1.082,2.211-0.68c0.948,0.411,1.652,0.178,2.322-0.637
		c1.033-1.256,2.176-2.423,3.282-3.62c0.775-0.839,1.565-1.664,2.348-2.495c-0.081-0.132-0.163-0.265-0.244-0.397
		c-0.672-0.069-1.344-0.196-2.016-0.197c-9.536-0.019-19.071-0.029-28.607-0.014c-0.798,0.001-1.595,0.199-2.444,0.312
		c0.117,0.302,0.125,0.423,0.189,0.472c4.694,3.634,9.296,7.397,14.121,10.85c4.116,2.945,8.471,5.56,12.753,8.269
		c2.777,1.756,5.518,3.605,8.44,5.088c7.818,3.97,15.675,7.881,24.036,10.632c2.683,0.883,2.417,1.859,2.081,4.159
		c-0.446-0.104-0.786-0.156-1.107-0.263c-10.478-3.5-20.437-8.169-30.117-13.449c-11.627-6.342-22.286-14.085-32.221-22.803
		c-2.324-2.04-4.454-3.596-7.759-3.112c-1.394,0.204-2.674-0.033-3.792,1.234c-2.022,2.29-4.248,4.4-6.388,6.587
		c-0.543,0.555-0.568,1.044,0.043,1.626c1.479,1.409,2.864,2.918,4.361,4.306c2.229,2.065,4.421,4.192,6.812,6.058
		c4.457,3.478,8.961,6.908,13.606,10.126c3.766,2.61,7.746,4.917,11.673,7.289c2.499,1.51,5.078,2.886,7.608,4.344
		c0.501,0.289,0.902,0.767,1.419,1.011c3.538,1.669,7.068,3.361,10.652,4.927c4.407,1.925,8.826,3.833,13.311,5.564
		c3.509,1.354,7.169,2.315,10.68,3.664c2.511,0.965,5.004,1.759,7.701,2.027c1.32,0.131,1.816-0.398,2.116-1.443
		c0.898-3.131,1.794-6.263,2.633-9.411c0.084-0.314-0.19-0.753-0.365-1.1c-0.494-0.984-1.225-1.901-1.478-2.938
		c-0.223-0.914-0.559-1.322-1.432-1.568c-2.089-0.591-4.157-1.258-6.211-1.96c-0.396-0.135-0.931-0.532-0.985-0.873
		c-0.139-0.89-0.047-1.817-0.047-2.893c2.637,0.787,5.122,1.541,7.615,2.268c2.681,0.782,5.766-0.944,6.507-3.653
		c1.889-6.907,3.748-13.821,5.662-20.721c0.159-0.573,0.644-1.055,1.069-1.721c-0.04-0.188-0.335-0.752-0.231-1.23
		C202.138,259.111,202.627,257.69,203.015,256.245z M168.957,251.151c-1.781,4.65-3.546,9.307-5.385,13.933
		c-0.433,1.089-0.341,1.887,0.61,2.576c0.821,0.595,0.912,1.322,0.404,2.188c-0.589,1.003-1.295,0.406-1.91,0.123
		c-1.432-0.66-2.86-1.342-4.219-2.136c-0.385-0.225-0.844-1.036-0.713-1.278c0.267-0.494,1.007-1.18,1.384-1.09
		c1.813,0.436,2.416-0.496,2.961-1.974c1.517-4.116,3.154-8.187,4.753-12.273c0.232-0.593,0.51-1.169,0.817-1.868
		c0.61,0.105,1.075,0.186,1.734,0.3C169.245,250.17,169.139,250.675,168.957,251.151z M109.769,260.377
		c-2.356-0.02-3.97-1.67-3.965-4.052c0.005-2.203,1.771-3.957,3.957-3.929c2.218,0.028,3.979,1.76,4.004,3.938
		C113.791,258.66,112.075,260.397,109.769,260.377z M126.221,273.973c-2.241-0.032-3.965-1.846-3.925-4.13
		c0.039-2.22,1.875-3.904,4.195-3.85c2.196,0.052,3.831,1.785,3.821,4.048C130.302,272.295,128.522,274.005,126.221,273.973z
		 M149.163,278.871c0.158,4.134-2.407,6.492-5.446,8.63c-1.064,0.748-1.654-0.029-2.364-0.395c-0.664-0.342-1.226-0.881-1.687-1.225
		c0.399-2.306,0.696-4.208,1.08-6.093c0.078-0.385,0.424-0.77,0.742-1.043c0.898-0.771,1.838-1.492,2.775-2.216
		c1.843-1.426,3.092-1.399,4.785,0.146c0.205,0.187,0.3,0.582,0.302,0.882C149.352,277.995,149.147,278.436,149.163,278.871z
		 M163.906,295.331c-2.215,0.009-4.019-1.824-4.017-4.082c0.002-2.13,1.815-3.898,4.018-3.917c2.257-0.019,3.974,1.726,3.999,4.065
		C167.929,293.523,166.099,295.322,163.906,295.331z M184.082,294.703c2.159,0.064,3.876,1.88,3.85,4.071
		c-0.025,2.112-2.062,3.934-4.227,3.907c-2.109-0.026-3.894-2.481-3.757-3.978C180,296.301,181.724,294.632,184.082,294.703z"/>
	<path fill="#FFFFFF" d="M428.047,9.243c-0.642-0.004-1.284,0.034-1.926,0.032c-1.555-0.006-3.209-0.388-4.243,1.34
		c-0.131,0.219-0.625,0.256-0.961,0.309c-1.609,0.253-3.226,0.452-4.829,0.731c-0.819,0.142-1.412-0.097-1.602-0.88
		c-0.237-0.979-1.854-1.625-0.691-2.957c0.683-0.781,0.528-1.4-0.433-1.934c-0.321-0.178-0.626-0.903-0.518-1.247
		c0.584-1.863,0.63-1.851-1.428-1.978c-0.345-0.021-0.691-0.032-1.036-0.034c-11.953-0.08-23.906-0.17-35.859-0.233
		c-4.199-0.022-8.398,0-12.596,0.056c-0.598,0.008-1.191,0.316-1.787,0.486c0.04,0.174,0.08,0.348,0.12,0.522
		c1.446,0.092,2.892,0.184,3.979,0.253c-4.159,0.503-8.643,1.045-13.22,1.598c0.151,0.304,0.211,0.496,0.326,0.645
		c5.601,7.229,10.872,14.68,15.225,22.742c0.516,0.957,1.122,1.152,2.163,0.906c3.122-0.738,6.263-1.411,9.414-2.014
		c1.29-0.247,2.226-0.805,3.037-1.858c3.646-4.736,7.372-9.41,11.049-14.121c1.321-1.693,3.363-3.196,1.546-5.73
		c2.374-0.67,2.899-0.492,4.025,1.238c0.485,0.745,1.065,1.448,1.42,2.25c0.211,0.476,0.302,1.303,0.033,1.626
		c-0.463,0.553-1.225,1.18-2.044,0.443c-0.857-0.772-1.435-0.492-2.055,0.305c-3.276,4.209-6.583,8.395-9.853,12.609
		c-0.289,0.372-0.392,0.888-0.665,1.535c0.633,0,0.978,0.056,1.299-0.008c5.324-1.078,10.65-2.147,15.956-3.307
		c0.443-0.097,0.699-0.888,1.124-1.262c0.555-0.489,1.156-0.958,1.816-1.271c0.182-0.086,0.802,0.339,0.95,0.656
		c1.29,2.776,2.546,5.569,3.724,8.394c0.131,0.315-0.155,1.028-0.467,1.26c-0.793,0.589-1.5,0.623-2.172-0.433
		c-1.893-2.973-1.076-2.721-4.797-1.974c-5.762,1.156-11.474,2.632-17.279,3.485c-4.446,0.653-7.94,2.277-10.134,6.301
		c-0.256,0.469-0.626,0.902-1.025,1.261c-1.182,1.062-1.125,2.184-0.531,3.575c3.009,7.046,5.33,14.323,7.087,21.78
		c0.393,1.667,0.807,3.328,1.22,5.031c0.452-0.084,0.742-0.121,1.023-0.194c12.85-3.34,25.692-6.709,38.554-10
		c1.96-0.502,3.451-1.297,4.569-3.109c0.854-1.385,1.267-2.572,0.702-4.123c-2.393-6.57-4.39-13.312-7.202-19.696
		c-3.574-8.113-7.792-15.944-11.748-23.888c-0.449-0.902-0.993-1.757-1.614-2.847c1.793,0,3.304-0.038,4.81,0.034
		c0.279,0.013,0.631,0.424,0.79,0.733c3.461,6.705,7.098,13.328,10.29,20.16c3.803,8.139,6.811,16.607,9.305,25.249
		c0.24,0.831,0.729,1.59,1.102,2.383c0.204-0.052,0.407-0.104,0.611-0.156c0-8.079,0-16.158,0-24.224
		c-3.204,1.36-4.849,1.233-6.207-0.498c-1.117-1.424-1.091-3.492,0.062-4.943c1.354-1.703,3.22-1.871,6.315-0.464
		c0-4.49,0-8.899,0-13.554c-0.07,0.588-0.113,0.944-0.188,1.575C430.928,9.264,430.928,9.261,428.047,9.243z"/>
	<path fill="#FFFFFF" d="M429.958,210.038c-2.013,3.101-3.884,6.132-5.901,9.061c-5.405,7.849-10.68,15.792-16.904,23.046
		c-1.144,1.333-2.314,2.034-4.288,1.585c0.386-0.737,0.624-1.443,1.065-1.985c1.117-1.372,2.414-2.602,3.478-4.011
		c3.211-4.25,6.382-8.533,9.495-12.856c1.531-2.126,2.956-4.334,4.325-6.569c1.588-2.591,3.029-5.272,4.597-7.876
		c0.927-1.54,2.121-2.934,2.925-4.53c0.69-1.369,1.279-2.907,1.411-4.414c0.249-2.846,0.157-5.725,0.15-8.589
		c-0.001-0.388-0.334-0.775-0.461-1.051c-0.544,0.589-0.815,1.079-1.23,1.295c-1.571,0.819-3.072,0.516-4.423-0.547
		c-1.148-0.904-1.59-2.66-1.118-4.177c0.501-1.612,1.808-2.858,3.428-2.774c1.325,0.069,2.624,0.623,4.131,1.013
		c0-7.411,0-15.04,0-22.693c-1.242-0.093-1.859,0.608-2.268,1.865c-2.767,8.5-6.08,16.784-10.016,24.815
		c-6.504,13.27-14.514,25.576-23.769,37.081c-1.939,2.411-3.96,4.755-6.12,7.343c2.943,2.97,5.837,5.89,8.969,9.051
		c-8.371,0-16.538,0-24.893,0c0.158-0.713,0.262-1.384,0.458-2.027c0.288-0.947,0.089-1.676-0.627-2.399
		c-11.161-11.262-22.315-22.531-33.424-33.844c-0.926-0.943-1.51-0.87-2.434-0.104c-3.687,3.057-7.405,6.077-11.151,9.062
		c-0.885,0.705-1.136,1.287-0.488,2.338c1.391,2.257,2.661,4.59,3.964,6.902c3.564,6.324,7.122,12.651,10.674,18.982
		c0.227,0.405,0.39,0.846,0.734,1.603c-1.517,0-2.74-0.085-3.946,0.024c-1.234,0.111-1.872-0.446-2.426-1.463
		c-1.86-3.41-3.793-6.78-5.696-10.167c-2.467-4.393-4.932-8.787-7.398-13.18c-0.343-0.611-0.647-1.335-1.553-0.735
		c-1.354,0.896-2.679,1.838-4.055,2.7c-0.693,0.434-0.613,0.859-0.267,1.464c2.745,4.799,5.481,9.604,8.196,14.42
		c1.248,2.213,2.443,4.456,3.855,7.039c-1.67,0-2.988-0.052-4.299,0.017c-1.012,0.053-1.598-0.297-2.103-1.213
		c-3.221-5.833-6.524-11.621-9.76-17.447c-0.562-1.011-1.081-1.337-2.204-0.714c-2.113,1.172-4.288,2.24-6.479,3.261
		c-1.114,0.519-1.165,1.03-0.512,2.02c2.742,4.162,5.412,8.371,8.101,12.567c0.275,0.428,0.498,0.89,0.782,1.402
		c-1.437,0.464-2.352,0.202-3.05-0.992c-0.539-0.922-1.274-1.729-1.922-2.588c-0.153,0.074-0.306,0.148-0.458,0.221
		c0.102,1.137,0.205,2.273,0.329,3.653c-1.188,0-2.27-0.079-3.335,0.021c-1.225,0.115-1.741-0.339-1.976-1.555
		c-0.721-3.73-1.575-7.435-2.346-11.156c-0.194-0.939-0.474-1.396-1.58-0.992c-4.679,1.711-9.375,3.379-14.088,4.992
		c-1.121,0.384-1.471,0.874-1.118,2.054c0.644,2.15,1.141,4.345,1.746,6.702c-0.823,0-1.42-0.072-1.992,0.015
		c-1.239,0.188-1.76-0.322-1.996-1.533c-0.311-1.593-0.875-3.136-1.247-4.719c-0.194-0.826-0.608-1.036-1.373-0.852
		c-0.893,0.215-1.794,0.393-2.578,0.563c-0.343-0.658-0.596-1.144-0.849-1.63c0.421,3.695-1.188,6.132-4.09,8.219
		c0.85,0.449,1.676,0.836,2.498,0.828c26.823-0.255,53.646-0.556,80.469-0.834c19.215-0.199,38.431-0.358,57.647-0.573
		c7.542-0.085,15.082-0.275,22.362-0.413c0.087-0.642,0.146-1.083,0.215-1.596c-0.765,0.136-1.505,0.269-2.44,0.435
		C429.531,231.799,429.744,220.93,429.958,210.038z M410.556,207.021c0.277-1.004,0.994-1.9,1.608-2.786
		c0.146-0.211,0.597-0.211,0.777-0.267c2.004,0.361,3.85,0.663,5.678,1.05c0.385,0.081,0.769,0.422,1.039,0.74
		c1.114,1.314,2.216,2.642,3.243,4.023c0.223,0.3,0.297,0.926,0.139,1.259c-1.355,2.861-1.355,2.633-4.493,2.334
		c-2.935-0.28-5.127-1.346-6.503-3.976c-0.112-0.214-0.32-0.376-0.452-0.582C411.209,208.215,410.426,207.489,410.556,207.021z
		 M400.622,226.781c0.03-2.258,1.9-4.076,4.189-4.074c2.033,0.002,3.863,1.824,3.87,3.854c0.008,2.408-1.793,4.217-4.18,4.2
		C402.326,230.745,400.592,228.967,400.622,226.781z"/>
	<path fill="#FFFFFF" d="M430.096,67.671c-0.279-1.624-0.915-2.874-2.717-3.265c-0.545-0.118-1.087-0.514-1.503-0.914
		c-0.901-0.867-1.884-0.891-3.012-0.605c-13.115,3.316-26.231,6.631-39.361,9.887c-1.163,0.288-1.337,0.825-1.239,1.86
		c0.628,6.626,1.242,13.255,1.78,19.889c0.101,1.244,0.575,1.85,1.761,2.131c4.418,1.046,8.811,2.197,13.241,3.185
		c0.936,0.209,2.084,0.134,2.973-0.218c5.876-2.326,11.7-4.784,17.56-7.151c1.796-0.726,3.669-1.219,3.921-3.666
		c0.036-0.351,1.139-0.704,1.789-0.815c0.206-0.035,0.733,0.685,0.793,1.106c0.236,1.66,0.352,3.337,0.497,5.009
		c0.064,0.734-0.002,1.391-0.946,1.547c-0.822,0.136-1.617,0.26-1.936-0.776c-0.341-1.108-1.018-1.113-1.946-0.727
		c-4.923,2.048-9.86,4.062-14.786,6.103c-0.383,0.159-0.716,0.44-1.359,0.846c0.625,0.356,0.89,0.587,1.195,0.67
		c5.147,1.39,10.29,2.794,15.461,4.088c0.538,0.135,1.236-0.446,1.879-0.627c0.722-0.204,1.475-0.467,2.193-0.413
		c0.234,0.018,0.597,0.958,0.569,1.458c-0.378,6.748-0.797,13.494-1.277,20.236c-0.033,0.466-0.727,1.304-0.956,1.254
		c-0.604-0.132-1.526-0.591-1.602-1.041c-0.282-1.673-1.232-1.942-2.707-1.948c-12.346-0.047-24.692-0.143-37.038-0.262
		c-1.084-0.01-1.529,0.313-1.779,1.418c-1.088,4.807-2.27,9.593-3.468,14.375c-0.51,2.036-0.563,2.012,1.47,2.573
		c9.655,2.665,19.306,5.346,28.965,7.998c4.759,1.307,9.518,2.616,14.304,3.817c2.405,0.603,4.698-0.601,5.232-2.719
		c1.453-5.768,3.042-11.547,3.3-17.507c0.356-8.235,0.37-16.485,0.507-24.729c0.09-5.427,0.182-10.855,0.195-16.283
		c0.015-5.927,0.682-11.873-0.517-17.771C430.992,73.022,430.555,70.344,430.096,67.671z"/>
	<path fill="#FFFFFF" d="M131.216,134.357c0.427,0.206,0.941,0.535,1.101,0.934c0.427,1.064,1.175,1.035,2.045,0.827
		c0.575-0.137,1.148-0.287,1.719-0.441c14.431-3.908,28.863-7.813,43.293-11.728c6.762-1.835,13.518-3.691,20.278-5.533
		c0.829-0.226,1.655-0.344,1.359-1.606c-1.127-4.808-1.225-9.673-0.755-14.573c0.361-3.765,0.329-3.781-3.395-4.779
		c-14.673-3.933-29.343-7.875-44.023-11.776c-6.144-1.633-12.328-3.118-18.458-4.802c-1.13-0.311-1.581-0.123-2.315,0.724
		c-0.679,0.783-1.854,1.122-2.773,1.715c-0.6,0.387-1.46,0.777-1.638,1.343c-0.627,2.001-1.151,4.058-1.451,6.132
		c-0.377,2.605-0.495,5.248-0.7,7.597c0.054,0.127-0.016-0.038-0.179-0.421c-1.017,13.337,0.442,26.187,3.84,38.835
		c0.125-0.011,0.25-0.022,0.374-0.033c-0.03-0.414-0.079-0.827-0.086-1.241C129.435,134.459,130.251,133.89,131.216,134.357z"/>
	<path fill="#FFFFFF" d="M198.99,65.696c-6.928-6.829-13.877-13.636-20.793-20.476c-5.335-5.276-10.643-10.579-15.938-15.896
		c-0.816-0.82-1.499-0.908-2.613-0.45c-0.896,0.368-2.196,0.424-3.056,0.037c-1.077-0.484-1.658-0.289-2.263,0.506
		c-4.063,5.335-8.381,10.498-12.114,16.055c-5.084,7.568-8.305,16.075-11.12,24.708c-0.399,1.224-1.037,2.79,1.043,3.51
		c0.497,0.172,1.041,0.932,1.108,1.478c0.178,1.434,1.081,1.792,2.266,2.103c19.371,5.086,38.734,10.202,58.1,15.306
		c2.433,0.641,4.872,1.255,7.675,1.976c0.219-0.309,0.619-0.677,0.781-1.13c1.91-5.342,4.527-10.29,8.152-14.672
		c0.688-0.831,0.597-1.39-0.159-2.126C206.344,73.008,202.683,69.336,198.99,65.696z"/>
	<path fill="#FFFFFF" d="M288.855,118.324c2.675,0.686,5.334,1.429,8.001,2.145c10.577,2.843,21.154,5.685,31.73,8.527
		c8.341,2.242,16.683,4.484,25.024,6.725c0.921,0.247,1.805,0.5,2.508-0.529c0.83-1.214,1.932-1.57,3.299-0.623
		c0.174-0.3,0.387-0.53,0.449-0.796c1.618-6.973,2.719-14.035,2.959-21.184c0.137-4.08-0.079-8.191-0.431-12.263
		c-0.449-5.201-1.214-10.373-1.796-15.563c-0.134-1.198-0.817-1.61-1.858-1.961c-0.931-0.313-1.912-0.812-2.569-1.512
		c-0.725-0.772-1.379-0.992-2.335-0.725c-1.85,0.517-3.712,0.994-5.565,1.499c-19.529,5.316-39.055,10.644-58.594,15.923
		c-1.211,0.327-1.608,0.807-1.392,2.045c0.973,5.566,0.745,11.117-0.463,16.622C287.596,117.689,287.911,118.082,288.855,118.324z"
		/>
	<path fill="#FFFFFF" d="M346.469,47.397c-3.7-6.39-8.152-12.231-13.061-17.734c-0.701-0.786-1.403-0.932-2.485-0.686
		c-1.125,0.255-2.368-0.052-3.559-0.033c-0.54,0.008-1.263,0.023-1.589,0.35c-8.362,8.393-16.667,16.842-25.013,25.251
		c-7.372,7.427-14.776,14.821-22.181,22.215c-0.578,0.577-1.01,1.037-0.313,1.84c3.869,4.458,6.665,9.529,8.519,15.123
		c0.256,0.774,0.641,0.955,1.434,0.723c2.509-0.735,5.037-1.403,7.561-2.083c17.911-4.823,35.823-9.641,53.734-14.465
		c1.333-0.359,2.665-0.729,3.987-1.127c2.17-0.654,1.541-3.58,3.536-4.409c0.155-0.064,0.187-0.422,0.272-0.632
		c-0.157-0.512-0.291-0.986-0.446-1.453C354.202,62.285,350.686,54.679,346.469,47.397z"/>
	<path fill="#FFFFFF" d="M230.871,151.447c0.236-0.885,0.434-1.562-0.744-1.961c-5.341-1.809-10.171-4.552-14.474-8.197
		c-0.797-0.675-1.304-0.525-1.982,0.168c-6.727,6.879-13.475,13.739-20.228,20.592c-5.646,5.729-11.302,11.448-16.964,17.161
		c-3.336,3.367-6.695,6.711-10.039,10.07c-0.845,0.849-1.386,1.61-0.534,2.942c0.882,1.378,0.082,2.831-1.268,2.824
		c9.18,10.064,32.506,23.115,45.872,25.715c-0.184-0.388-0.665-0.936-0.548-1.285c0.13-0.389,0.787-0.813,1.241-0.845
		c1.685-0.119,2.29-1.072,2.682-2.6c2.71-10.569,5.49-21.12,8.268-31.672C225.043,173.385,227.95,162.414,230.871,151.447z"/>
	<path fill="#FFFFFF" d="M276.674,218.355c1.227,0.375,2.39,0.538,2.103,2.364c17.142-5.046,32.061-13.579,45.357-25.615
		c-1.67-0.231-2.372-1.636-1.506-3.152c0.785-1.374,0.31-2.109-0.626-3.045c-5.725-5.726-11.392-11.511-17.107-17.246
		c-9.933-9.968-19.897-19.906-29.818-29.888c-0.878-0.883-1.419-0.92-2.432-0.117c-4.277,3.39-8.847,6.309-14.143,7.882
		c-1.122,0.333-1.1,0.93-0.839,1.896c4.127,15.293,8.214,30.596,12.321,45.894c1.727,6.433,3.453,12.867,5.26,19.278
		C275.438,217.291,276.065,218.169,276.674,218.355z"/>
	<path fill="#FFFFFF" d="M53.61,54.895c0.384-0.178,0.654-0.71,1.03-0.777c1.662-0.3,2.118-1.507,2.523-2.905
		c4.451-15.331,10.585-29.948,18.405-43.877c0.962-1.713,2.117-1.751,3.597-1.679c0.555,0.027,1.106,0.144,1.846,0.246
		c-1.273,2.38-2.399,4.682-3.699,6.88c-4.239,7.167-7.528,14.78-10.591,22.492c-1.326,3.339-2.375,6.788-3.542,10.19
		c-0.8,2.331-1.679,4.64-2.333,7.012c-0.257,0.933-0.359,2.235,0.103,2.973c0.955,1.526,2.26,2.824,4.202,3.292
		c3.408,0.821,6.784,1.771,10.175,2.662c8.453,2.22,16.913,4.413,25.353,6.68c1.293,0.347,1.798,0.011,2.023-1.253
		c0.277-1.553,0.597-3.113,1.078-4.613c2.053-6.386,4.164-12.754,6.277-19.121c0.283-0.853,0.491-1.461-0.569-2.056
		c-8.485-4.765-16.941-9.581-25.376-14.432c-1.236-0.711-2.154-0.814-2.956,0.512c-0.428,0.708-0.966,0.834-1.737,0.373
		c-0.863-0.516-0.847-1.118-0.435-1.861c3.376-6.086,6.739-12.179,10.174-18.23c0.211-0.371,1.049-0.637,1.522-0.55
		c0.758,0.139,1.152,0.784,0.749,1.589c-0.769,1.537-0.006,2.293,1.283,3.027c8.027,4.57,16.035,9.174,24.017,13.822
		c1.162,0.677,1.754,0.49,2.502-0.599c4.274-6.223,8.623-12.393,12.941-18.586c0.231-0.332,0.405-0.704,0.501-0.873
		c-3.137-0.601-6.152-1.178-9.167-1.755c0.011-0.098,0.023-0.197,0.034-0.295c0.428-0.129,0.857-0.258,1.285-0.387
		c-0.004-0.169-0.008-0.339-0.011-0.508c-1.933-0.112-3.867-0.33-5.8-0.317c-10.72,0.074-21.439,0.194-32.158,0.321
		c-5.088,0.06-10.175,0.16-15.262,0.266c-1.491,0.031-1.694,0.401-0.902,1.653c0.706,1.117,1.448,2.22,2.275,3.249
		c0.527,0.656,0.689,1.149,0.247,1.958c-1.209,2.215-1.162,2.233-3.691,1.746c-0.872-0.168-1.757-0.271-2.627-0.451
		c-0.621-0.128-1.502-0.141-1.784-0.544c-0.824-1.175-1.93-1.004-3.048-0.991c-1.63,0.018-3.26,0.072-4.89,0.064
		c-1.006-0.005-1.658,0.393-2.083,1.327c-0.9,1.978-1.891,3.914-2.797,5.889c-0.379,0.825-0.862,1.692-0.913,2.563
		c-0.173,3.001-0.27,6.013-0.223,9.018c0.074,4.787,0.298,9.571,0.428,14.357c0.022,0.797,0.22,1.289,0.979,1.762
		c2.595,1.615,2.507,4.914-0.026,6.617c-0.422,0.284-0.703,0.937-0.823,1.471c-0.137,0.61-0.073,1.283,0.003,1.917
		c0.046,0.387,0.245,1.047,0.434,1.068C52.623,55.279,53.159,55.104,53.61,54.895z M53.834,26.587
		c0.015-2.063,1.672-3.643,3.848-3.668c2.181-0.025,4.016,1.719,4.059,3.859c0.043,2.118-1.677,3.833-3.853,3.843
		C55.645,30.631,53.817,28.812,53.834,26.587z"/>
	<path fill="#FFFFFF" d="M55.14,131.238c0.615,1.195,0.057,2.938,0.333,4.374c0.598,3.116,1.495,6.176,2.066,9.296
		c0.44,2.401,0.981,4.745,1.999,6.964c0.201,0.439,0.386,1.017,0.752,1.225c1.766,1.002,3.464,2.336,5.737,1.59
		c0.889-0.292,1.81-0.487,2.714-0.732c12.099-3.272,24.193-6.564,36.305-9.789c1.291-0.344,1.461-0.802,1.13-2.049
		c-1.522-5.719-2.957-11.462-4.334-17.217c-0.273-1.14-0.742-1.54-1.89-1.529c-10.519,0.098-21.038,0.151-31.558,0.226
		c-0.985,0.007-2.194-0.255-2.888,0.215c-0.637,0.431-0.613,1.745-1.085,2.549c-0.267,0.454-0.916,0.803-1.455,0.92
		c-0.214,0.047-0.678-0.617-0.872-1.031c-0.18-0.385-0.192-0.867-0.21-1.308c-0.313-8.038-0.692-16.075-0.881-24.117
		c-0.069-2.952,0.285-5.917,0.531-8.869c0.033-0.397,0.604-1.087,0.861-1.058c0.536,0.059,1.084,0.446,1.516,0.825
		c0.206,0.18,0.193,0.648,0.219,0.99c0.106,1.384,0.78,1.919,2.215,1.9c5.185-0.069,10.37-0.027,15.556-0.027
		c0,0.03,0,0.059,0,0.089c5.235,0,10.47-0.01,15.704,0.009c1.039,0.004,1.778-0.1,1.89-1.441c0.53-6.344,1.11-12.683,1.753-19.016
		c0.141-1.386-0.214-2.017-1.627-2.383c-11.089-2.867-22.172-5.762-33.221-8.778c-2.381-0.65-4.495-1.12-6.289,1.078
		c-0.144,0.177-0.413,0.281-0.645,0.352c-1.184,0.364-1.725,1.24-1.947,2.381c-0.557,2.856-1.293,5.69-1.631,8.571
		c-0.879,7.494-1.969,14.994-2.25,22.518c-0.292,7.827,0.096,15.696,0.53,23.527C54.35,124.719,53.501,128.052,55.14,131.238z"/>
	<path fill="#FFFFFF" d="M164.99,11.605c0.762,0.803,1.337,0.699,2.138,0.081c2.54-1.961,5.184-3.789,7.679-5.803
		c2.589-2.091,5.433-1.236,8.218-1.249c0.034,0.161,0.069,0.323,0.104,0.484c-0.353,0.243-0.707,0.485-1.059,0.731
		c-3.969,2.764-7.954,5.506-11.896,8.307c-1.282,0.911-1.263,1.368-0.217,2.487c0.236,0.253,0.476,0.502,0.721,0.746
		c16.356,16.263,32.712,32.526,49.069,48.788c2.64,2.625,2.713,2.729,5.772,0.647c1.394-0.949,3.736-1.241,3.418-3.858
		c-0.279-0.028-0.635-0.063-1.215-0.121c0.273-0.858,0.5-1.574,0.727-2.289c0.131,0.024,0.262,0.049,0.393,0.073
		c0.445,1.191,0.889,2.383,1.334,3.574c0.243-0.326,0.247-0.571,0.189-0.8c-1.333-5.26-2.608-10.536-4.023-15.774
		c-3.718-13.764-7.5-27.51-11.238-41.268c-0.158-0.582-0.714-1.548,0.471-1.577c0.896-0.022,2.193-0.924,2.668,0.831
		c1.854,6.858,3.69,13.723,5.659,20.548c2.419,8.383,4.953,16.734,7.485,25.084c0.149,0.492,0.727,0.854,1.197,1.379
		c0.367-1.089,0.599-1.777,0.871-2.582c-1.307-1.557-1.623-3.383-0.509-5.409c0.3-0.546,0.505-1.187,0.583-1.806
		c0.399-3.151,0.59-6.308,1.575-9.392c0.543-1.698,0.021-3.736,0.56-5.436c0.482-1.521,0.274-2.769,0.087-4.232
		c-0.148-1.159-0.486-2.081-1.143-2.912c-1.407-1.779-1.641-3.08-0.467-5.056c1.047-1.762,1.069-3.382-0.041-5.101
		c-0.595-0.921-1.166-1.899-1.504-2.931c-0.258-0.789-0.133-1.704-0.183-2.636c-4.891-0.665-9.746-1.324-14.745-2.003
		c0.923-0.097,1.741-0.182,2.559-0.268c-0.012-0.12-0.023-0.241-0.035-0.361c-2.571-0.132-5.14-0.317-7.712-0.381
		c-2.762-0.068-5.53-0.106-8.29-0.007c-5.589,0.199-11.181-0.199-16.772,0.167c-1.403,0.092-2.841-0.555-4.264-0.558
		c-6.369-0.018-12.738,0.051-19.106,0.154c-0.876,0.014-1.746,0.39-2.619,0.598c0.013,0.129,0.026,0.257,0.038,0.386
		c0.708,0.099,1.416,0.197,2.421,0.337c-1.339,0.129-2.421,0.072-3.381,0.386c-0.596,0.195-1.108,0.895-1.448,1.489
		c-0.12,0.21,0.306,0.851,0.614,1.167C161.428,8.044,163.257,9.779,164.99,11.605z M202.148,2.946c4.77,0,9.54,0,14.309,0
		c-0.001,0.082-0.001,0.164-0.002,0.247c-4.771,0-9.541,0-14.312,0C202.146,3.11,202.147,3.028,202.148,2.946z M190.267,3.083
		c0.001,0.057,0.001,0.114,0.002,0.171c-3.658,0-7.316,0-10.974,0c-0.015-0.057-0.03-0.114-0.045-0.171
		C182.922,3.083,186.595,3.083,190.267,3.083z"/>
	<path fill="#FFFFFF" d="M178.081,323.399c0.822,0.225,1.631,0.493,2.447,0.741c-3.62,0.63-7.182,1.125-10.759,1.417
		c-3.638,0.296-7.29,0.461-10.939,0.555c-3.531,0.091-7.066,0.02-10.599,0.02c0.001,0.122,0.002,0.245,0.002,0.367
		c28.091,0,56.183,0,84.112,0c0.245-1.294,0.511-2.382,0.647-3.487c0.19-1.539,0.299-3.088,0.414-4.635
		c0.065-0.867-0.482-1.064-1.228-1.077c-1.975-0.034-3.952-0.046-5.922-0.17c-4.482-0.282-8.958-0.644-13.441-0.914
		c-0.415-0.025-1.143,0.293-1.232,0.596c-0.277,0.947-0.697,1.58-1.737,1.321c-1.087-0.27-0.615-1.143-0.56-1.835
		c0.011-0.14-0.031-0.284-0.063-0.545c-2.912-0.646-5.829-1.352-8.77-1.932c-7.182-1.416-14.384-2.721-21.401-4.87
		c-20.901-6.399-40.371-15.778-58.038-28.631c-7.65-5.565-14.737-11.917-21.937-18.078c-2.091-1.789-5.345-2.348-5.922-5.811
		c-0.183,0.025-0.365,0.049-0.548,0.074c-3.223,3.453-6.462,6.891-9.657,10.37c-0.67,0.73-0.523,1.458,0.279,2.141
		c2.669,2.272,5.341,4.545,7.929,6.908c13.283,12.13,28.14,21.979,43.933,30.491C148.752,313.779,163.133,319.302,178.081,323.399z"
		/>
	<path fill="#FFFFFF" d="M336.257,182.362c9.426-11.311,16.357-23.789,20.745-37.873c-1.766-0.895-2.878-2.095-2.862-4.094
		c0.002-0.269-0.498-0.687-0.839-0.789c-1.792-0.538-3.61-0.99-5.415-1.483c-12.231-3.344-24.458-6.703-36.694-10.032
		c-7.757-2.11-15.53-4.161-23.283-6.282c-1.021-0.279-1.476-0.107-1.859,0.941c-0.642,1.756-1.385,3.5-2.314,5.118
		c-0.665,1.158-0.539,1.843,0.385,2.763c16.908,16.827,33.784,33.685,50.675,50.53C335.23,181.594,335.746,181.946,336.257,182.362z
		"/>
	<path fill="#FFFFFF" d="M29.204,173.768c1.114,0.014,1.274-0.438,1.247-1.424c-0.473-17.28-0.921-34.561-1.347-51.843
		c-0.066-2.684-0.207-5.301-1.735-7.67c-0.589-0.912-0.538-1.928-0.166-3.092c0.677-2.122,1.358-4.373,1.337-6.564
		c-0.097-10.071-0.434-20.139-0.69-30.209c-0.017-0.687,0.119-1.47-0.161-2.038c-0.546-1.106-1.062-0.106-1.569,0.198
		c-0.034,0.02-0.095-0.005-0.231-0.015c-0.239-0.192-0.535-0.43-0.898-0.721c0.338-0.228,0.585-0.394,0.744-0.501
		c-1.123-0.078-2.257-0.166-3.393-0.227c-0.289-0.016-0.808-0.015-0.84,0.092c-0.489,1.649-1.789,0.724-2.606,0.683
		c-1.24-0.062-2.586-0.452-2.453-2.236c0.004-0.057-0.131-0.125-0.232-0.215c-0.16,0.21-0.316,0.414-0.529,0.694
		c-0.315-0.415-0.57-0.753-0.702-0.927c-0.843,0.2-1.61,0.614-2.28,0.492c-1.397-0.254-1.715,0.05-1.646,1.452
		c0.113,2.311,0.991,4.631,0.011,6.969c-0.096,0.228-0.583,1.276,0.586,1.138c0.037,0.336,0.2,0.734,0.074,0.99
		c-0.117,0.238-0.542,0.325-0.949,0.541c0.528,1.072,3.209,0.134,2.112,2.513c-0.595-0.084-1.232-0.173-1.868-0.263
		c-0.061,0.129-0.122,0.257-0.183,0.386c0.59,0.315,1.18,0.629,1.803,0.962c-0.308,0.719-0.787,1.369-0.823,2.042
		c-0.042,0.793,0.177,3.077,0.031,3.683c-0.216,0.896-0.434,1.792-0.703,2.903c0.041-0.019-0.207,0.095-0.443,0.205
		c0.296,0.946,1.641,1.512,0.661,2.773c-0.382,0.491-0.699,1.387-0.509,1.898c0.462,1.242-0.199,2.174-0.502,3.213
		c-0.175,0.601-0.6,1.189-0.584,1.773c0.04,1.429-0.827,2.272-1.664,3.289c-0.311-1.222-0.639-2.296-0.851-3.392
		c-0.309-1.598-0.499-3.22-0.825-4.814c-0.068-0.331-0.507-0.586-0.776-0.876c-0.32,0.321-0.939,0.674-0.908,0.957
		c0.149,1.362,0.473,2.704,0.765,4.209c-1.208,0.815-2.111,1.896-2.372,2.878c-0.05,0.19-0.157,0.387-0.136,0.569
		c0.026,0.232,0.125,0.469,0.244,0.674c0.415,0.71,0.935,1.371,1.259,2.118c0.406,0.937,0.685,1.932,0.97,2.917
		c0.275,0.952-0.082,1.783-1.036,1.907c-1.161,0.151-1.179,0.722-1.031,1.603c0.928,5.498,1.773,11.01,2.766,16.496
		c2.588,14.295,6.111,28.352,10.784,42.117c0.445,1.312,1.136,1.778,2.467,1.747C22.685,173.745,25.946,173.727,29.204,173.768z"/>
	<path fill="#FFFFFF" d="M260.939,218.187c2.179,1.24,3.31,2.631,3.232,5.116c-0.054,1.725,0.853,2.405,2.592,2.151
		c-0.323-0.462-0.649-0.928-1.094-1.564c1.742-0.413,3.298-0.783,5.028-1.193c-1.404-0.643-1.517-2.083-0.206-2.666
		c1.757-0.782,1.437-1.88,1.062-3.245c-1.844-6.707-3.654-13.423-5.456-20.142c-3.962-14.771-7.909-29.545-11.869-44.316
		c-0.41-1.531-0.642-1.603-2.009-0.854c-0.376,0.206-0.809,0.368-1.232,0.421c-2.52,0.313-3.444,1.689-2.819,4.201
		c0.201,0.807,0.309,1.637,0.399,2.126c-0.403,0.477-0.84,0.767-0.809,0.993c0.237,1.706-0.64,1.439-1.5,1.008
		c-0.353,0.648-0.666,1.231-0.987,1.808c-0.135,0.243-0.414,0.478-0.41,0.712c0.014,0.817,0.131,1.632,0.19,2.45
		c0.01,0.137-0.082,0.279-0.107,0.422c-0.205,1.172-0.42,2.343-0.602,3.518c-0.112,0.725-0.084,1.483-0.281,2.18
		c-0.163,0.576-0.457,1.007-1.298,0.519c-1.306-0.758-1.987-2.344-1.405-3.927c0.579-1.574,1.189-3.136,1.774-4.673
		c-1.607-0.955-2.343-0.762-3.333,0.567c-1.107,1.485-1.794,3.392-3.675,3.925c-0.693-1.407-1.3-2.852-2.106-4.175
		c-0.349-0.573-1.108-0.895-1.681-1.331c-0.294,0.503-0.649,0.981-0.867,1.515c-0.317,0.773-0.575,1.577-0.79,2.385
		c-4.523,17.023-9.024,34.051-13.577,51.066c-0.333,1.246-0.367,2.11,0.873,2.871c1.012,0.621,1.373,1.593-0.014,2.988
		c4.138,0.481,7.875,0.916,11.632,1.352c-0.529-0.448-1.019-0.863-1.643-1.391c1.818-0.487,1.269-1.622,1.036-2.635
		c0.526-0.108,0.995-0.203,1.587-0.325c-0.397-1.284,0.43-1.374,1.33-1.706c2.498-0.923,4.927-2.033,7.376-3.085
		c2.157-0.927,2.271-1.207,1.695-3.11c-1.413-0.502-2.612-0.783-3.663-1.341c-1.147-0.609-1.125-1.334-0.126-2.248
		c-0.337-1.111-0.748-2.224-1.002-3.371c-0.279-1.261-0.444-2.52,0.968-3.386c0.385-0.236,0.531-0.885,0.75-1.361
		c0.415-0.905,0.661-1.922,1.225-2.717c2.67-3.767,5.36-4.236,9.12-1.583c1.19,0.839,2.264,1.862,3.294,2.897
		c0.503,0.505,0.866,1.198,1.145,1.867c0.574,1.374,0.944,2.84,1.587,4.177c1.09,2.267-0.423,5.241-2.977,5.644
		c-1.695,0.267-1.988,0.664-1.773,2.518c3.309-0.558,3.727,2.89,6.359,4.045C257.205,217.291,258.995,217.081,260.939,218.187z
		 M245.557,172.752c-0.124-0.663-0.238-1.271-0.352-1.879c0.15-0.079,0.3-0.159,0.45-0.238c0.402,0.524,0.804,1.048,1.329,1.734
		C246.322,172.547,245.977,172.64,245.557,172.752z"/>
	<path fill="#FFFFFF" d="M114.681,63.463c-3.671,13.782-5.136,27.824-4.379,42.092c0.575,10.843,2.391,21.473,5.569,31.837
		c4.777,15.576,12.101,29.872,22.166,42.719c1.966,2.509,4.049,4.928,6.208,7.546c1.219-1.279,2.183-2.406,3.271-3.398
		c0.909-0.829,0.977-1.439,0.175-2.455c-7.904-10.004-13.986-21.037-18.375-33c-0.617-1.682-1.278-3.175-3.167-3.781
		c-0.584-0.187-1.016-0.819-1.597-1.05c-0.715-0.285-1.568-0.634-2.265-0.489c-3.784,0.784-2.904,1.242-4.157-2.374
		c-0.044-0.126-0.006-0.281-0.006-0.872c1.403,0.232,2.706,0.447,4.264,0.704c-0.68-0.47-1.163-0.803-1.646-1.136
		c0.041-0.083,0.083-0.166,0.124-0.249c0.753,0.256,1.506,0.512,2.214,0.752c0.099-0.706-0.046-1.571,0.318-1.959
		c1.953-2.08,2.273-4.331,1.193-6.915c-0.258-0.617-0.183-1.365-0.311-2.044c-2.73-14.472-2.672-28.975-0.446-43.495
		c0.31-2.021,0.749-4.016-0.982-5.668c-0.132-0.126-0.212-0.346-0.24-0.534c-0.207-1.381-1.137-1.961-2.379-2.299
		c-2.279-0.622-4.541-1.308-6.956-2.009c0.197-1.269,0.381-2.459,0.602-3.882c2.719,0.709,5.143,1.342,7.615,1.986
		c-0.647-1.053-1.341-2.182-2.036-3.312c1.093,0.828,1.902,1.888,2.884,2.753c0.457,0.402,1.315,0.698,1.88,0.566
		c1.835-0.429,2.763-1.752,3.332-3.559c2.973-9.45,6.834-18.535,12.168-26.895c3.207-5.027,6.819-9.802,10.382-14.591
		c1.282-1.724,2.371-3.328,2.704-5.583c0.286-1.937-0.163-3.191-1.504-4.435c-2.454-2.275-4.831-4.633-7.341-7.053
		c0.732-0.786,1.213-1.302,1.684-1.807c29.341,29.189,58.568,58.265,87.794,87.34c-0.081-0.582-0.39-0.948-0.725-1.287
		c-6.777-6.844-13.529-13.712-20.343-20.52c-19.706-19.69-39.435-39.358-59.163-59.027c-2.063-2.057-4.146-4.098-6.283-6.077
		c-1.37-1.269-2.155-1.127-3.28,0.251c-1.305,1.598-2.675,3.144-4.004,4.723c-5.302,6.297-9.606,13.227-13.566,20.441
		C121.179,44.346,117.294,53.654,114.681,63.463z M123.192,152.658c0.428,0.21,1.105,0.313,1.248,0.646
		c1.721,4.011,3.364,8.056,5.027,12.092c-0.114,0.057-0.228,0.114-0.342,0.17c-2.127-4.128-4.254-8.256-6.381-12.384
		C122.893,153.007,123.043,152.832,123.192,152.658z M114.19,93.017c0.289-0.468,1.026-0.659,1.561-0.975
		c0.268,0.55,0.785,1.109,0.765,1.648c-0.234,6.309-0.736,12.613-0.772,18.921c-0.022,3.931,0.63,7.865,1.025,12.312
		c-0.088,0.11-0.408,0.862-0.783,0.891c-0.528,0.041-1.389-0.313-1.6-0.745c-1.272-2.603-2.053-5.319-1.125-8.246
		c0.581-1.832,0.038-3.447-0.821-5.089c-0.472-0.904-0.614-2.012-0.754-3.049c-0.132-0.985-0.229-1.886,0.817-2.738
		c1.252-1.02,1.339-4.29,0.496-5.728c-0.075-0.127-0.142-0.314-0.255-0.355c-2.41-0.88-1.142-2.867-1.29-4.406
		c-0.022-0.231,0.438-0.707,0.706-0.732C113.284,94.622,113.678,93.847,114.19,93.017z M128.316,44.592
		c1.388-0.958,2.138-2.381,2.469-4.063c0.183-0.93-0.042-1.518-0.855-1.956c-0.651-0.351-1.237-0.845-1.915-1.118
		c-1.297-0.521-1.25-1.27-0.596-2.28c0.579-0.895,1.087-1.837,1.665-2.825c1.035,0.563,1.931,0.976,2.746,1.513
		c1.129,0.743,2.07,0.695,2.999-0.335c0.305-0.339,0.8-0.68,1.225-0.704c1.167-0.065,1.684,0.942,1.103,1.982
		c-3.39,6.071-6.77,12.148-10.189,18.202c-0.217,0.385-0.738,0.598-1.118,0.891c-0.408-0.532-1.268-1.207-1.152-1.572
		c0.694-2.184-0.557-3.092-2.206-3.81c-0.926-0.404-1.099-0.982-0.66-1.872c0.518-1.047,0.964-2.13,1.502-3.333
		c1.114,0.588,2.019,1.216,3.023,1.536C126.937,45.034,127.822,44.933,128.316,44.592z"/>
	<path fill="#FFFFFF" d="M148.093,176.971c0.864,1.189,1.79,2.332,2.819,3.666c0.698-0.625,1.298-1.111,1.838-1.655
		c16.66-16.789,33.314-33.583,49.97-50.377c1.716-1.731,1.719-1.73,0.76-4.035c-0.246-0.592-0.574-1.161-0.738-1.775
		c-0.311-1.164-1-1.274-2.019-0.959c-1.647,0.509-3.32,0.936-4.98,1.404c-10.774,3.038-21.54,6.108-32.325,9.108
		c-9.023,2.51-18.068,4.938-27.103,7.401c-0.187,0.051-0.413,0.164-0.566,0.105c-1.2-0.456-1.224,0.313-1.441,1.169
		c-0.254,1.004-0.528,2.436-1.244,2.804c-1.774,0.91-1.424,1.948-0.923,3.355C135.96,157.919,141.409,167.776,148.093,176.971z"/>
	<path fill="#FFFFFF" d="M261.965,48.502c-1.264,4.924-2.548,9.843-3.774,14.776c-0.103,0.413,0.017,1.184,0.288,1.336
		c1.538,0.867,3.136,1.637,4.756,2.341c0.332,0.144,0.926-0.015,1.26-0.24c0.523-0.352,0.93-0.877,1.382-1.332
		c11.417-11.483,22.834-22.966,34.25-34.45c5.047-5.077,10.098-10.148,15.131-15.238c1.521-1.538,1.534-1.673-0.17-2.905
		c-2.437-1.761-4.893-3.506-7.43-5.117c-2.747-1.744-5.375-3.873-9.023-3.29c-1.186,0.189-2.432,0.117-3.64,0.029
		c-1.878-0.137-3.744-0.509-5.621-0.57c-4.185-0.135-8.374-0.165-12.561-0.182c-1.296-0.005-2.592,0.169-3.697,0.247
		c-0.147,1.165-0.165,1.986-0.363,2.761c-1.246,4.874-2.546,9.735-3.802,14.607C266.614,30.349,264.294,39.427,261.965,48.502z"/>
	<path fill="#FFFFFF" d="M108.657,149.295c-0.848-1.993-0.841-1.997-2.905-1.52c-0.241,0.055-0.479,0.121-0.717,0.186
		c-12.569,3.452-25.141,6.894-37.705,10.366c-3.024,0.836-4.726,4.014-4.003,7.077c0.774,3.278,1.85,6.424,3.317,9.464
		c1.3,2.694,2.334,5.515,3.555,8.249c3.617,8.098,7.511,16.063,12.305,23.538c5.279,8.231,11.189,15.996,17.693,23.31
		c0.905,1.018,1.434,1.039,2.332,0.122c10.855-11.075,21.732-22.128,32.592-33.197c0.43-0.438,0.753-0.98,1.126-1.473
		c-0.092-0.098-0.183-0.196-0.275-0.294c-0.347,0.158-0.711,0.289-1.039,0.479c-10.598,6.136-21.182,12.297-31.802,18.395
		c-1.375,0.789-1.691,1.613-0.9,2.959c0.495,0.842,0.602,1.656-0.426,2.276c-1.072,0.646-1.415-0.288-1.864-0.849
		c-5.694-7.103-10.938-14.524-15.212-22.571c-2.824-5.316-5.385-10.772-8.022-16.185c-0.592-1.214-0.262-1.928,0.951-1.982
		c0.517-0.023,1.183,0.518,1.574,0.979c1.341,1.581,1.322,1.638,3.124,0.601c10.015-5.764,20.014-11.555,30.042-17.296
		c1.075-0.615,1.151-1.255,0.694-2.291C111.579,156.205,110.125,152.747,108.657,149.295z"/>
	<path fill="#FFFFFF" d="M381.97,226.749c-0.262,0.34-0.354,1.174-0.123,1.468c1.152,1.471,2.438,2.838,3.719,4.291
		c1.017-0.852,1.621-1.217,2.041-1.733c1.832-2.245,3.685-4.48,5.393-6.818c3.834-5.25,7.831-10.404,11.323-15.876
		c8.263-12.949,14.735-26.789,19.716-41.324c0.578-1.687,1.09-3.303-0.462-4.784c-0.26-0.249-0.414-0.703-0.449-1.078
		c-0.149-1.61-1.194-2.232-2.596-2.618c-5.514-1.521-11.018-3.078-16.523-4.63c-8.652-2.439-17.313-4.845-25.941-7.365
		c-1.416-0.414-1.924-0.015-2.372,1.227c-0.937,2.598-1.971,5.162-3.001,7.726c-0.769,1.914-0.811,1.932,1.002,2.974
		c11.132,6.398,22.275,12.776,33.401,19.184c0.933,0.537,1.631,0.575,2.214-0.43c0.172-0.296,0.45-0.527,0.638-0.816
		c0.551-0.85,1.232-0.795,2.044-0.397c0.964,0.472,0.545,1.155,0.285,1.754c-1.138,2.628-2.296,5.248-3.483,7.854
		c-4.706,10.326-10.507,20.016-17.072,29.258c-0.385,0.542-0.728,1.268-1.638,0.751c-0.747-0.424-1.102-1.002-0.719-1.833
		c0.616-1.338,0.041-2.052-1.141-2.693c-8.465-4.592-16.904-9.231-25.357-13.846c-0.489-0.267-1.025-0.448-1.54-0.669
		c-0.102,0.098-0.203,0.196-0.305,0.294c0.293,0.517,0.515,1.093,0.889,1.541c6.207,7.426,12.452,14.821,18.636,22.266
		c1.016,1.223,1.903,1.555,3.147,0.4c0.73-0.678,1.477-0.279,1.88,0.366c0.209,0.335,0.085,1.118-0.186,1.468
		C384.302,224.064,383.054,225.343,381.97,226.749z"/>
	<path fill="#FFFFFF" d="M233.692,276.755c-0.094-0.553-0.37-1.075-0.561-1.611c-0.471,0.449-0.635,0.885-0.753,1.334
		c-0.562,2.149-1.118,4.299-1.664,6.452c-0.588,2.32-0.544,2.266,1.436,3.621c0.427,0.292,0.6,1.143,0.618,1.745
		c0.007,0.218-0.797,0.688-1.201,0.656c-2.852-0.225-5.703-0.507-8.537-0.891c-0.447-0.061-1.194-0.814-1.131-1.1
		c0.114-0.52,0.696-1.275,1.146-1.322c1.576-0.164,2.1-1.047,2.453-2.448c2.166-8.617,4.399-17.217,6.633-25.816
		c0.352-1.356,1.446-2.409,1.173-4.075c-0.168-1.029-0.291-1.502-1.346-1.58c-0.994-0.073-1.532-0.574-1.267-1.675
		c0.077-0.319,0.012-0.672,0.012-1.154c-0.619-0.032-1.146-0.083-1.673-0.083c-2.666,0.002-5.333,0.018-7.999,0.026
		c-3.753,0.012-7.505,0.044-11.258,0.02c-1.152-0.007-1.767,0.269-1.917,1.598c-0.181,1.6-0.664,3.174-1.115,4.73
		c-0.135,0.464-0.6,0.833-0.907,1.236c0,0.413,0.087,0.881-0.014,1.304c-0.904,3.781-1.802,7.565-2.777,11.328
		c-1.411,5.448-2.901,10.875-4.325,16.32c-0.569,2.176,0.977,5.037,3.091,5.571c2.479,0.626,4.991,1.138,7.507,1.597
		c3.288,0.6,6.577,1.284,9.898,1.6c4.999,0.475,10.024,0.697,15.042,0.956c2.065,0.106,2.385-0.218,2.066-2.323
		C235.511,287.421,234.594,282.089,233.692,276.755z"/>
	<path fill="#FFFFFF" d="M335.106,19.673c-0.449,0.486-0.81,1.33-0.746,1.962c0.189,1.867,0.856,3.518,2.087,5.085
		c3.717,4.732,7.484,9.46,10.755,14.499c5.777,8.896,10.113,18.53,13.477,28.596c0.801,2.396,3.224,3.81,5.681,3.317
		c0.973-0.195,1.915-0.546,3.102-0.893c-0.556,0.874-1.06,1.666-1.563,2.458c0.078,0.053,0.155,0.106,0.233,0.159
		c0.447-0.383,0.894-0.765,1.568-1.343c0.168,1.073,0.286,1.829,0.422,2.703c-1.07,0.307-1.94,0.504-2.768,0.815
		c-0.538,0.202-1.219,0.448-1.481,0.887c-1.077,1.8-2.052,3.53-1.629,5.914c1.669,9.412,2.263,18.908,1.791,28.473
		c-0.352,7.126-1.388,14.146-2.846,21.114c-0.254,1.215-0.334,2.22,0.802,3.181c0.74,0.626,1.34,1.674,1.543,2.631
		c0.604,2.841-1.34,4.524-3.451,5.527c-1.665,0.791-2.232,1.915-2.809,3.425c-4.909,12.861-11.253,24.923-20.115,35.549
		c-0.618,0.741-0.621,1.263,0.121,1.839c0.407,0.316,0.79,0.663,1.184,0.997c0.536-0.562,0.967-0.97,1.348-1.421
		c19.434-23.007,29.684-49.669,31.418-79.631c0.609-10.527-0.159-21.018-2.16-31.393c-1.676-8.691-4.15-17.131-7.468-25.359
		c-2.91-7.214-6.486-14.054-10.441-20.721c-0.613-1.034-1.105-2.315-2.54-2.112c0.039-0.566,0.275-1.166,0.071-1.461
		c-2.608-3.764-4.831-7.87-8.828-10.447c-0.284-0.183-0.985-0.136-1.22,0.088C338.749,15.918,336.882,17.754,335.106,19.673z
		 M360.475,47.904c0.781,0.257,1.729,0.762,2.073,1.43c0.659,1.279,0.941,2.752,1.451,4.369c-0.323,0.525-0.547,1.172-0.996,1.551
		c-0.668,0.565-1.313,0.478-1.718-0.474c-0.731-1.716-1.563-3.39-2.297-5.105C358.571,48.704,359.472,47.574,360.475,47.904z
		 M348.399,30.055c0.795,0.43,1.659,0.77,2.369,1.311c0.938,0.714,1.684,1.658,3.105,1.345c0.313-0.069,0.849,0.415,1.132,0.766
		c0.718,0.886,1.341,1.847,2.02,2.765c0.49,0.662,0.099,1.296-1.073,1.476c0,0.438,0.142,0.904-0.027,1.1
		c-0.463,0.533-1.012,1.04-1.629,1.358c-0.179,0.092-0.805-0.421-1.055-0.777c-1.617-2.302-3.219-4.617-4.748-6.978
		c-0.353-0.546-0.401-1.289-0.59-1.942C348.069,30.337,348.234,30.196,348.399,30.055z"/>
	<path fill="#FFFFFF" d="M476.535,141.354c-0.094-1.03-0.218-2.067-0.461-3.069c-0.092-0.381-0.656-1.009-0.816-0.956
		c-1.402,0.466-1.805-0.485-2.3-1.32c-0.59-0.112-1.485-0.316-1.536-0.65c-0.18-1.173-0.07-2.391-0.07-3.702
		c0.517,0.058,0.912,0.102,1.307,0.146c-0.128-0.092-0.257-0.184-0.385-0.276c0.552-1.408,1.104-2.816,1.588-4.05
		c-0.374-0.515-0.648-0.926-0.96-1.307c-0.119-0.145-0.328-0.322-0.485-0.313c-1.164,0.067-1.216-0.725-0.895-1.402
		c0.628-1.324,0.33-2.523-0.278-3.672c-0.837-1.584-1.8-3.105-0.479-5.386c-2.882,1.244-4.131-0.575-5.273-1.543
		c-1.389-0.192-2.404-0.465-3.413-0.445c-2.431,0.047-3.605,1.138-4.1,3.64c-0.162,0.821-0.314,1.657-0.343,2.491
		c-0.216,6.165-0.448,12.329-0.583,18.496c-0.157,7.206-0.241,14.414-0.318,21.622c-0.043,4.09-0.008,8.18-0.008,12.405
		c0.39,0.047,0.631,0.105,0.871,0.101c4.391-0.073,8.781-0.162,13.172-0.226c0.872-0.013,1.29-0.249,1.385-1.26
		c0.089-0.944,0.612-1.846,0.937-2.769c0.045-0.128,0.049-0.27,0.073-0.412c-0.425,0-0.81,0-1.035,0
		c0.124-1.576,0.238-3.034,0.356-4.539c1.031,0.273,1.345-0.001,0.957-0.976c-0.144-0.361-0.106-0.809-0.093-1.215
		c0.019-0.618,0.087-1.235,0.166-2.261c0.67-0.625,1.589-1.632,1.185-3.208c-0.049-0.193,0.196-0.443,0.23-0.678
		c0.285-2.004,1.253-4.257,0.656-5.957c-0.829-2.359,0.559-3.932,0.801-5.863C476.447,142.318,476.578,141.828,476.535,141.354z"/>
	<path fill="#FFFFFF" d="M382.821,117.821c-0.194,1.384,0.27,1.779,1.661,1.763c6.118-0.07,12.237-0.03,18.356-0.03
		c0,0.017,0,0.035,0,0.052c6.119,0,12.238-0.028,18.357,0.023c1.259,0.01,1.937-0.375,2.443-1.586
		c0.657-1.573,0.427-3.064,0.235-4.639c-0.16-1.31-0.703-1.974-2.023-2.301c-8.237-2.04-16.453-4.165-24.685-6.221
		c-0.582-0.145-1.306-0.123-1.86,0.091c-3.543,1.371-7.069,2.787-10.563,4.277c-0.471,0.201-0.965,0.867-1.043,1.38
		C383.333,113.016,383.155,115.43,382.821,117.821z"/>
	<path fill="#FFFFFF" d="M356.789,183.258c-0.964,1.43-2.009,2.814-3.114,4.139c-0.883,1.06-0.638,1.598,0.517,2.227
		c5.114,2.784,10.186,5.647,15.274,8.479c6.813,3.792,13.637,7.563,20.427,11.395c0.953,0.538,1.78,0.543,2.348-0.27
		c1.045-1.495,1.92-3.11,2.964-4.839c-0.595-0.633-0.897-1.125-1.335-1.391c-1.982-1.204-4-2.35-6.011-3.507
		c-9.625-5.537-19.258-11.061-28.868-16.623C358.054,182.328,357.45,182.277,356.789,183.258z"/>
	<path fill="#FFFFFF" d="M212.523,313.35c6.273,0.644,12.559,1.167,18.83,1.824c1.577,0.165,1.95-0.497,2.039-1.857
		c0.253-3.879,0.577-7.754,0.882-11.63c0.06-0.757,0.161-1.511,0.24-2.239c-5.525-0.514-10.869-1.011-16.214-1.508
		c-0.018,0.128-0.035,0.255-0.053,0.383c-0.505,0.203-1,0.541-1.518,0.582c-1.128,0.089-2.268,0.029-3.403,0.026
		c-1.028-0.003-1.785,0.533-1.805,1.506c-0.085,3.947-0.08,7.897-0.015,11.845C211.512,312.658,212.136,313.311,212.523,313.35z
		 M222.829,302.335c2.148,0.051,3.886,1.899,3.833,4.076c-0.051,2.11-1.939,3.832-4.137,3.775c-2.101-0.055-3.907-1.898-3.839-3.919
		C218.763,303.961,220.535,302.28,222.829,302.335z"/>
	<path fill="#FFFFFF" d="M363.083,173.852c-0.575,0.921-1.108,1.873-1.74,2.753c-0.745,1.036-0.62,1.65,0.563,2.301
		c5.061,2.784,10.08,5.644,15.1,8.502c6.478,3.689,12.936,7.413,19.426,11.082c0.494,0.279,1.356,0.538,1.725,0.302
		c1.651-1.054,2.68-2.589,2.781-5.015c-0.184-0.183-0.512-0.663-0.964-0.933c-2.672-1.593-5.37-3.14-8.063-4.696
		c-8.677-5.016-17.355-10.033-26.036-15.044C364.164,172.117,364.158,172.129,363.083,173.852z"/>
	<path fill="#FFFFFF" d="M389.512,180.963c4.238,2.424,8.47,4.859,12.739,7.227c0.46,0.255,1.329,0.352,1.688,0.088
		c0.689-0.507,1.295-1.254,1.674-2.029c1.084-2.217,0.72-3.325-1.416-4.565c-7.123-4.136-14.261-8.246-21.392-12.369
		c-4.265-2.466-8.527-4.938-13.011-7.536c-0.886,1.687-1.606,3.194-2.452,4.625c-0.66,1.115-0.403,1.676,0.712,2.305
		C375.229,172.753,382.362,176.873,389.512,180.963z"/>
	<path fill="#FFFFFF" d="M95.971,204.594c-0.539,0.318-0.978,0.806-1.51,1.255c0.567,1.238,0.848,2.347,1.496,3.166
		c1.606,2.027,2.383,2.094,4.622,0.807c1.412-0.812,2.822-1.626,4.231-2.443c8.963-5.201,17.915-10.422,26.902-15.582
		c1.168-0.671,1.167-1.249,0.379-2.156c-0.809-0.931-1.61-1.875-2.333-2.872c-0.709-0.978-1.374-1.127-2.47-0.475
		c-5.428,3.23-10.906,6.376-16.364,9.556C105.936,198.757,100.946,201.662,95.971,204.594z"/>
	<path fill="#FFFFFF" d="M122.772,177.031c-0.614-0.982-1.224-1.148-2.295-0.509c-5.431,3.237-10.913,6.387-16.374,9.574
		c-4.906,2.863-9.812,5.725-14.702,8.615c-0.494,0.292-0.877,0.772-1.273,1.13c0.342,1.184,0.478,2.142,0.884,2.968
		c1.042,2.118,2.476,2.531,4.494,1.375c4.5-2.578,8.989-5.176,13.479-7.771c5.773-3.337,11.532-6.699,17.323-10.003
		c1.124-0.641,1.362-1.256,0.543-2.314C124.097,179.121,123.426,178.077,122.772,177.031z"/>
	<path fill="#FFFFFF" d="M117.083,167.584c-1.156-2.114-1.15-2.113-3.283-0.869c-4.988,2.91-9.977,5.816-14.966,8.724
		c-4.904,2.858-9.815,5.702-14.703,8.588c-0.574,0.339-1.018,0.9-1.56,1.393c0.477,1.301,0.697,2.46,1.284,3.387
		c1.366,2.157,1.822,2.227,4.02,0.972c4.286-2.447,8.548-4.935,12.825-7.397c5.731-3.299,11.456-6.608,17.21-9.866
		c1.116-0.632,1.339-1.289,0.636-2.358C118.004,169.334,117.556,168.45,117.083,167.584z"/>
	<path fill="#FFFFFF" d="M215.184,81.574c-0.904-0.912-1.572-0.924-2.408,0.096c-3.065,3.741-5.263,7.948-6.935,12.463
		c-0.442,1.194-0.078,1.658,1.105,1.95c3.921,0.968,7.822,2.018,11.726,3.056c0.515,0.137,1,0.383,1.502,0.571
		c1.318,0.493,2.637,0.983,4.249,1.583c0.325-0.343,0.765-0.667,1.016-1.1c0.713-1.233,1.205-2.619,2.053-3.741
		c0.89-1.176,0.722-1.905-0.27-2.875C223.171,89.615,219.171,85.6,215.184,81.574z"/>
	<path fill="#FFFFFF" d="M97.597,99.449c-10.263,0.077-20.526,0.083-30.789,0.119c-2.74,0.01-2.949,0.192-3.518,2.863
		c-0.554,2.597,0.625,4.154,3.217,4.165c5.032,0.021,10.065,0.006,15.097,0.006c0-0.028,0-0.056,0-0.085
		c5.477,0,10.954-0.024,16.43,0.019c1.186,0.009,1.591-0.455,1.516-1.578c-0.082-1.23-0.203-2.474-0.1-3.695
		C99.576,99.783,98.978,99.439,97.597,99.449z"/>
	<path fill="#FFFFFF" d="M98.952,118.464c1.479,0.021,1.814-0.563,1.613-1.853c-0.182-1.17-0.358-2.347-0.429-3.527
		c-0.074-1.241-0.605-1.658-1.872-1.643c-5.63,0.068-11.262,0.023-16.892,0.045c-5.235,0.021-10.471,0.05-15.705,0.149
		c-0.572,0.011-1.411,0.367-1.639,0.813c-0.387,0.755-0.535,1.712-0.518,2.579c0.051,2.546,1.044,3.508,3.589,3.523
		c5.184,0.031,10.369,0.009,15.554,0.009c0-0.042,0-0.085,0-0.127C88.086,118.434,93.52,118.387,98.952,118.464z"/>
	<path fill="#FFFFFF" d="M267.319,112.775c1.391,0.239,2.787,0.485,4.151,0.842c3.624,0.947,7.24,1.93,10.843,2.955
		c1.124,0.32,1.665,0.027,1.8-1.144c0.35-3.028,0.736-6.052,1.014-8.316c-0.305-2.664-0.51-4.525-0.735-6.384
		c-0.089-0.739-0.37-1.174-1.271-0.936c-5.668,1.503-11.342,2.982-17.02,4.446c-0.983,0.254-1.372,0.853-1.343,1.82
		c0.035,1.183,0.109,2.369,0.06,3.549C264.739,111.555,265.433,112.451,267.319,112.775z"/>
	<path fill="#FFFFFF" d="M210.293,227.254c-0.324-0.406-0.878-0.83-1.055-1.377c-0.478-1.478-1.487-2.141-2.905-2.629
		c-7.946-2.735-15.642-6.044-22.977-10.18c-6.782-3.824-12.904-8.559-18.902-13.473c-0.845-0.692-1.587-0.942-2.789-0.75
		c-1.588,0.253-3.304,0.012-4.902-0.321c-0.41-0.085-0.576-1.315-0.868-2.014c-0.054-0.13-0.148-0.273-0.264-0.344
		c-1.508-0.935-0.859-2.013-0.11-2.966c0.727-0.925,1.575-1.769,2.455-2.552c0.488-0.434,1.151-0.671,1.727-0.992
		c-0.038-0.062-0.249-0.407-0.466-0.763c-2.159,2.316-4.318,4.632-6.483,6.955C162.529,207.589,198.966,227.463,210.293,227.254z"/>
	<path fill="#FFFFFF" d="M113.291,35.845c0.654-1.328,1.275-2.675,1.986-3.972c0.548-0.999,0.328-1.552-0.669-2.113
		c-8.26-4.651-16.492-9.35-24.734-14.031c-0.384-0.218-0.786-0.403-1.302-0.666c-0.291,0.204-0.699,0.353-0.883,0.643
		c-0.834,1.316-1.654,2.646-2.382,4.021c-0.51,0.964-0.082,1.63,0.85,2.162c8.444,4.827,16.878,9.671,25.29,14.552
		C112.421,37.007,112.879,36.681,113.291,35.845z"/>
	<path fill="#FFFFFF" d="M255.974,144.959c0.113,0.419,0.469,0.772,0.647,1.052c0.424-0.078,0.525-0.085,0.618-0.115
		c4.918-1.55,9.244-4.151,13.135-7.491c0.215-0.184,0.183-1.064-0.054-1.306c-3.698-3.764-7.407-7.52-11.208-11.18
		c-1.576-1.518-2.392-1.448-4.187-0.25c-0.779,0.52-1.646,0.94-2.33,1.563c-0.432,0.393-0.902,1.122-0.828,1.622
		c0.213,1.434,0.698,2.827,1.07,4.238C253.878,137.049,254.905,141.01,255.974,144.959z"/>
	<path fill="#FFFFFF" d="M218.197,112.973c1.724-1.539,3.29-3.261,4.863-4.962c1.349-1.458,0.988-2.932-0.912-3.482
		c-5.44-1.577-10.904-3.074-16.359-4.599c-0.855-0.239-1.427-0.095-1.522,0.965c-0.188,2.107-0.445,4.208-0.711,6.669
		c0.321,2.416,0.717,5.14,1.033,7.874c0.149,1.289,0.715,1.502,1.892,1.156c2.979-0.875,5.995-1.619,8.98-2.475
		C216.412,113.847,217.497,113.597,218.197,112.973z"/>
	<path fill="#FFFFFF" d="M233.652,140.321c0.697-2.779,1.245-5.605,2.12-8.326c1.056-3.284,0.601-4.792-2.38-6.315
		c-1.946-0.994-2.931-0.833-4.49,0.712c-3.398,3.369-6.801,6.733-10.2,10.099c-1.247,1.235-1.244,1.383,0.138,2.474
		c3.952,3.118,8.208,5.649,13.452,6.735C232.739,143.934,233.199,142.128,233.652,140.321z"/>
	<path fill="#FFFFFF" d="M460.9,108.55c0.328,0.221,1.174-0.324,2.029-0.599c0.353,0.183,1.011,0.781,1.692,0.808
		c0.715,0.029,1.52-0.382,2.164-0.793c1.349-0.861,2.632-0.884,4.028,0.345c0.729-3.718,2.64-6.936,1.714-10.779
		c-0.319-1.324-0.667-1.919-1.99-1.892c-0.255,0.005-0.713-0.145-0.74-0.289c-0.493-2.544-3.295-2.933-4.52-4.831
		c-0.318-0.493-1.921-0.835-2.219-0.535c-0.832,0.837-1.69,0.755-2.551,0.539c-1.17-0.294-1.628,0.464-1.778,1.232
		c-0.949,4.846-0.453,9.714,0.125,14.546C458.955,107.143,460.066,107.988,460.9,108.55z"/>
	<path fill="#FFFFFF" d="M259.853,314.76c1.708-0.221,3.434-0.303,5.149-0.482c3.464-0.361,6.925-0.749,10.466-1.134
		c0.053-0.637,0.13-1.119,0.126-1.6c-0.027-2.959-0.053-5.918-0.118-8.876c-0.087-3.961,0.24-3.877-3.934-3.818
		c-0.825,0.012-2.023,0.209-2.397-0.232c-0.667-0.787-1.273-0.516-1.954-0.468c-0.638,0.045-1.272,0.143-1.909,0.209
		c-2.381,0.247-4.763,0.49-7.086,0.729c0,2.979-0.03,5.829,0.01,8.678c0.029,2,0.139,4,0.242,5.998
		C258.494,314.648,258.986,314.872,259.853,314.76z M265.498,301.755c2.207-0.03,4.06,1.788,4.07,3.991
		c0.01,2.155-1.764,3.92-3.946,3.926c-2.325,0.007-4.108-1.713-4.082-3.936C261.566,303.627,263.399,301.783,265.498,301.755z"/>
	<path fill="#FFFFFF" d="M266.16,98.716c-1.037-0.029-2.078,0.114-3.162,0.184c0.622,2.551,0.754,2.67,2.919,2.021
		c1.488-0.446,2.908-1.12,4.399-1.553c4.204-1.22,8.429-2.369,12.713-3.565c0-0.369,0.036-0.525-0.005-0.656
		c-1.566-5.06-4.107-9.584-7.505-13.637c-0.687-0.82-1.215-0.486-1.815,0.131c-2.715,2.792-5.482,5.534-8.165,8.356
		c-0.885,0.931-1.781,1.442-3.106,1.272c-0.795-0.102-1.625,0.075-2.44,0.127c0.008,0.224,0.017,0.447,0.026,0.67
		c2.668,0,5.337,0,8.258,0c-0.15,1.989-0.263,3.644-0.403,5.297C267.785,98.405,267.177,98.744,266.16,98.716z"/>
	<path fill="#FFFFFF" d="M293.727,309.563c1.674-0.35,2.128-0.928,1.733-2.59c-0.694-2.924-1.514-5.822-2.39-8.698
		c-0.146-0.481-0.822-1.101-1.285-1.129c-1.511-0.091-2.458-0.798-3.167-2.063c-0.149-0.266-0.717-0.498-1.034-0.439
		c-2.418,0.454-4.811,1.039-7.233,1.466c-1.03,0.181-1.654,0.505-1.585,1.654c0.01,0.161-0.224,0.336-0.418,0.606
		c-0.236-0.5-0.402-0.853-0.678-1.437c0,5.399,0,10.5,0,15.723c0.693-0.068,1.23-0.076,1.748-0.18
		C284.19,311.519,288.962,310.559,293.727,309.563z M286.568,298.265c2.269,0.02,4.029,1.808,3.998,4.061
		c-0.029,2.171-1.926,3.992-4.146,3.977c-2.207-0.014-4.185-1.94-4.13-4.022C282.35,300.013,284.234,298.245,286.568,298.265z"/>
	<path fill="#FFFFFF" d="M208.048,296.703c-0.132-0.304-0.557-0.596-0.898-0.674c-2.017-0.462-4.042-0.894-6.08-1.249
		c-0.387-0.067-1.065,0.13-1.227,0.419c-0.707,1.261-1.867,1.636-3.128,1.997c-0.466,0.133-1.059,0.591-1.186,1.022
		c-0.933,3.165-1.752,6.364-2.629,9.546c-0.377,1.366,0.028,2.097,1.497,2.363c4.5,0.814,8.983,1.718,13.476,2.571
		c1.501,0.285,1.737,0.073,1.74-1.461c0.005-1.924,0.001-3.847,0.001-5.771c-0.062,0-0.123,0-0.185-0.001
		c0-1.726-0.098-3.458,0.03-5.175C209.57,298.815,208.559,297.876,208.048,296.703z M201.67,306.93
		c-2.191,0.008-3.937-1.717-3.958-3.911c-0.022-2.263,1.84-4.103,4.151-4.103c2.051,0,3.865,1.901,3.874,4.061
		C205.747,305.237,204.014,306.922,201.67,306.93z"/>
	<path fill="#FFFFFF" d="M404.069,250.016c3.045,3,6.106,5.983,9.144,8.99c1.802,1.783,2.99,1.994,4.739,0.164
		c3.464-3.625,6.734-7.436,10.221-11.323c-8.814,0-17.264,0-25.715,0C402.928,248.827,403.483,249.438,404.069,250.016z"/>
	<path fill="#FFFFFF" d="M322.417,248.415c-2.565-0.077-5.135-0.014-7.702,0.035c-0.476,0.009-0.949,0.186-1.493,0.3
		c0.941,1.359,1.831,2.58,2.654,3.845c2.853,4.387,5.718,8.766,8.497,13.2c0.715,1.142,1.637,1.553,2.708,1.004
		c1.28-0.657,2.411-1.612,3.585-2.466c0.868-0.632,0.89-1.348,0.355-2.3c-2.368-4.213-4.638-8.48-7.024-12.683
		C323.728,248.877,322.964,248.432,322.417,248.415z"/>
	<path fill="#FFFFFF" d="M274.859,72.586c-0.604,0.607-1.151,1.271-1.816,2.01c0.595-0.048,1.092-0.238,1.273-0.076
		c0.835,0.749,1.272,0.186,1.82-0.373c3.307-3.372,6.634-6.725,9.958-10.081c0.135-0.136,0.344-0.363,0.457-0.332
		c1.144,0.322,1.15-0.667,1.415-1.257c0.435-0.968,0.765-1.984,1.139-2.98c0.102,0.039,0.204,0.077,0.306,0.116
		c-0.358,1.57-0.717,3.141-1.075,4.711c0.147,0.043,0.294,0.086,0.441,0.129c0.212-0.623,0.405-1.253,0.639-1.868
		c0.419-1.097,0.606-2.415,1.342-3.235c2.306-2.568,4.836-4.934,7.256-7.4c8.365-8.527,16.723-17.061,25.071-25.604
		c0.289-0.296,0.671-0.743,0.633-1.076c-0.177-1.557,1.199-1.847,1.727-2.808c0.104,0.073,0.207,0.145,0.311,0.218
		c-0.377,0.8-0.755,1.601-1.132,2.401c0.221,0.114,0.441,0.228,0.662,0.343c0.706-1.347,1.39-2.706,2.126-4.036
		c0.352-0.636,0.69-1.352,1.228-1.797c1.158-0.958,2.547-1.649,3.651-2.657c2.038-1.861,3.953-3.859,5.878-5.839
		c0.199-0.205,0.126-0.675,0.179-1.022c-0.385-0.005-0.825-0.131-1.141,0.014c-0.382,0.176-0.665,0.574-0.979,0.888
		c-4.891,4.884-9.791,9.759-14.667,14.657C305.988,41.279,290.422,56.932,274.859,72.586z"/>
	<path fill="#FFFFFF" d="M331.52,195.831c0.616-0.59,0.65-1.028,0.137-1.609c-0.294-0.333-0.594-0.663-0.909-0.976
		c-15.648-15.578-31.298-31.156-46.949-46.731c-0.946-0.941-1.91-1.865-2.865-2.796c8.084,8.723,16.613,16.989,24.987,25.41
		c8.459,8.505,16.963,16.967,25.625,25.626c-1.335,1.153-2.579,2.249-3.854,3.309c-0.205,0.17-0.547,0.168-0.819,0.265
		c-0.884,0.316-1.883,0.475-2.624,0.998c-1.57,1.107-2.992,2.422-4.498,3.624c-7.721,6.16-16.113,11.199-25.063,15.386
		c-5.869,2.746-12.525,3.77-17.692,8.315c1.382-0.381,2.668-0.687,3.923-1.089C300.013,219.441,317.001,209.742,331.52,195.831z"/>
	<path fill="#FFFFFF" d="M457.752,186.586c-1.19-0.038-1.534,0.377-1.556,1.497c-0.074,3.795-0.254,7.589-0.332,11.384
		c-0.055,2.692-0.011,5.387-0.011,8.08c0.128,0.057,0.256,0.113,0.384,0.17c3.573-3.931,4.823-9.335,8.244-13.397
		c-0.223,0.612-0.446,1.223-0.669,1.835c0.259,0.083,0.518,0.166,0.777,0.249c1.139-3.166,2.278-6.332,3.479-9.669
		c-0.641-0.045-1.113-0.104-1.585-0.106C463.572,186.617,460.659,186.678,457.752,186.586z"/>
	<path fill="#FFFFFF" d="M160.854,188.07c1.455,0.481,2.099-0.53,2.861-1.291c9.922-9.91,19.83-19.833,29.734-29.76
		c1.813-1.817,3.644-3.622,5.358-5.53c0.669-0.745,0.898-1.944,2.032-1.628c0.288-0.531,0.417-0.979,0.705-1.267
		c3.141-3.144,6.268-6.303,9.487-9.365c1.085-1.032,0.99-1.736-0.206-2.625c-0.399,0.38-0.794,0.737-1.169,1.115
		c-4.068,4.098-8.13,8.201-12.199,12.298c-7.378,7.428-14.786,14.827-22.132,22.287c-5.365,5.449-10.65,10.976-15.971,16.469
		C159.879,188.468,160.474,187.944,160.854,188.07z"/>
	<path fill="#FFFFFF" d="M159.247,188.885c0.036-0.037,0.072-0.075,0.108-0.112c-0.047,0.028-0.095,0.056-0.141,0.08
		C159.213,188.851,159.246,188.884,159.247,188.885c-0.001-0.001-0.035-0.034-0.035-0.034c0.009,0.014,0.017,0.028,0.026,0.043
		C159.241,188.891,159.244,188.888,159.247,188.885L159.247,188.885z"/>
	<path fill="#FFFFFF" d="M260.426,20.424c-0.103,0.083-0.061,0.38-0.041,0.572c0.09,0.849,0.193,1.697,0.305,2.544
		c0.009,0.07,0.125,0.126,0.414,0.398c0.105-0.323,0.21-0.648,0.316-0.973c0.175,0.148,0.349,0.295,0.524,0.443
		c-0.296,0.342-0.623,0.662-0.879,1.032c-0.268,0.387-0.575,0.797-0.671,1.239c-0.108,0.493-0.003,1.034,0.017,1.553
		c0.055,1.407,0.065,2.819,0.2,4.219c0.04,0.41,0.438,0.785,0.672,1.176c0.574-0.828,0.709-1.626,0.976-2.377
		c0.851-2.399,1.914-4.735,2.598-7.179c1.556-5.556,2.933-11.163,4.389-16.747c0.415-1.59,0.081-2.064-1.605-1.888
		c-1.357,0.141-2.792,0.278-3.998,0.836c-0.678,0.314-1.652,1.093-1.251,2.364c0.246,0.781,0.539,1.71,0.333,2.437
		c-0.443,1.558-1.197,3.027-1.912,4.743c-0.047,0.024-0.351,0.18-0.655,0.336c0.368,0.393,0.737,0.786,1.117,1.191
		C261.221,17.663,261.847,19.267,260.426,20.424z"/>
	<path fill="#FFFFFF" d="M83.044,249.195c-6.24,0-12.324,0-18.69,0c0.335,0.499,0.51,0.841,0.758,1.117
		c2.236,2.491,4.518,4.941,6.714,7.465c1.008,1.159,1.792,1.004,2.789,0c2.671-2.69,5.404-5.32,8.105-7.981
		C82.84,249.679,82.889,249.49,83.044,249.195z"/>
	<path fill="#FFFFFF" d="M335.485,259.375c0.275,0.464,1.043,1.072,1.403,0.971c1.189-0.334,2.382-0.831,3.411-1.511
		c1.301-0.861,1.4-2.004,0.516-3.41c-1.229-1.955-2.324-4.008-3.295-6.103c-0.382-0.823-0.781-1.09-1.609-1.081
		c-2.552,0.028-5.104,0.01-7.61,0.01c0.692,0.651,1.368,1.061,1.724,1.661C331.879,253.045,333.627,256.243,335.485,259.375z"/>
	<path fill="#FFFFFF" d="M113.76,236.848c1.523-1.396,2.916-2.933,4.378-4.397c8.93-8.945,17.853-17.897,26.815-26.809
		c0.997-0.991,0.88-1.583-0.353-2.283c-11.247,11.416-22.475,22.814-33.704,34.212c0.168,0.221,0.336,0.442,0.505,0.662
		C112.195,237.781,113.103,237.451,113.76,236.848z"/>
	<path fill="#FFFFFF" d="M461.042,85.433c1.555-0.769,3.041-1.676,4.566-2.531c-0.858-1.225-0.792-1.226-0.819-3.187
		c-0.017-1.241-0.585-2.334-1.318-3.356c-1.175-1.637-3.25-1.273-4.632-2.411c-0.203,0.088-0.406,0.176-0.609,0.264
		c0,2.889-0.027,5.778,0.013,8.666C458.258,84.046,460.224,85.838,461.042,85.433z"/>
	<path fill="#FFFFFF" d="M30.985,201.267c0-4.32,0-8.579,0-12.878c-2.65,0-4.993,0-7.588,0
		C25.458,193.23,27.546,197.624,30.985,201.267z"/>
	<path fill="#FFFFFF" d="M248.94,77.426c-1.028-3.652-0.361-7.541-2.531-10.809c-0.214-0.321-0.77-0.654-1.115-0.606
		c-1.203,0.167-2.297,0.816-2.27,2.115c0.063,3.116,0.339,6.228,0.527,9.3C245.496,77.426,247.099,77.426,248.94,77.426z"/>
	<path fill="#FFFFFF" d="M349.493,195.844c4.745,4.74,9.477,9.493,14.231,14.223c1.733,1.724,3.516,3.397,5.277,5.094
		c0.099-0.092,0.198-0.185,0.297-0.277c-6.388-7.576-12.776-15.152-19.148-22.708C347.771,193.75,347.731,194.084,349.493,195.844z"
		/>
	<path fill="#FFFFFF" d="M225.372,71.183c-0.033,0.215-0.066,0.429-0.099,0.644c3.245,3.106,6.49,6.212,9.968,9.54
		c-1.055-4.258-2.029-8.192-3.092-12.483C229.83,69.671,227.601,70.427,225.372,71.183z"/>
	<path fill="#FFFFFF" d="M321.69,9.071c2.031-2.08,1.722-3.31-1.097-4.344c-0.156-0.057-0.328-0.067-0.493-0.098
		c0.007-0.054,0.013-0.108,0.02-0.162c0.504-0.033,1.008-0.065,1.512-0.098c-0.287-0.31-0.61-0.475-0.905-0.436
		c-0.885,0.117-1.835,0.617-2.623,0.42c-2.171-0.543-4.115,0.729-6.221,0.323c-0.049,0.162-0.098,0.324-0.146,0.486
		c1.934,1.417,3.879,2.818,5.798,4.254C319.74,11.065,319.73,11.078,321.69,9.071z"/>
	<path fill="#FFFFFF" d="M281.321,120.044c-2.436-0.617-4.851-1.317-7.279-1.963c-0.76-0.202-1.538-0.337-2.563-0.558
		c3.094,3.006,5.935,5.767,8.88,8.628c0.573-1.367,1.199-2.913,1.869-4.44C282.661,120.723,282.308,120.294,281.321,120.044z"/>
	<path fill="#FFFFFF" d="M222.511,127.756c1.633-1.646,3.326-3.234,4.95-4.888c0.739-0.753,1.185-1.608-0.227-2.774
		c-4.54,4.542-9.076,9.081-13.721,13.729c0.639,0.535,1.071,0.897,1.676,1.404C217.684,132.678,220.084,130.204,222.511,127.756z"/>
	<path fill="#FFFFFF" d="M272.298,78.452c-0.663-0.806-0.995-1.21-1.326-1.613c-0.203,0.097-0.364,0.13-0.459,0.227
		c-3.889,3.977-7.784,7.948-11.637,11.96c-0.429,0.447-0.606,1.135-0.9,1.711c0.105,0.125,0.209,0.249,0.314,0.374
		c0.488-0.19,1.093-0.257,1.445-0.591c1.746-1.658,3.397-3.416,5.134-5.084C267.311,83.091,269.8,80.796,272.298,78.452z"/>
	<path fill="#FFFFFF" d="M243.991,320.158c1.018,1.262,1.145,2.062,0.199,3.444c-1.074,1.568-1.03,2.255,0.318,3.804
		c-0.025-2.083,1.706-0.605,2.215-1.371c0.179-0.996,0.586-1.92,0.822-2.886c0.371-1.521,0.674-3.064,0.887-4.614
		c0.035-0.258-0.513-0.841-0.82-0.861c-1.412-0.094-2.835-0.041-4.72-0.041C243.331,318.681,243.5,319.55,243.991,320.158z"/>
	<path fill="#FFFFFF" d="M25.596,37.409c-0.1,0.966-0.401,2.048-0.095,2.89c0.53,1.456,0.694,2.701-0.304,3.985
		c-0.551,0.709-0.719,1.367,0.368,1.882c0.373,0.177,0.541,0.816,0.768,1.261c0.221,0.434,0.399,0.89,0.596,1.336
		c0.148-0.035,0.295-0.071,0.443-0.106c-0.147-2.43-0.36-4.859-0.423-7.292c-0.073-2.804,0.143-5.623-0.072-8.412
		c-0.117-1.518-0.866-2.988-1.343-4.476c-0.009-0.028-0.179-0.003-0.109-0.003c-0.225,0.777-0.448,1.501-0.635,2.235
		c-0.04,0.156,0.012,0.373,0.098,0.516c0.666,1.11-0.205,1.447-0.927,1.828c-0.318,0.168-0.688,0.237-1.418,0.477
		c1.415,0.139,2.413,0.237,3.544,0.348C25.911,35.109,25.715,36.255,25.596,37.409z"/>
	<path fill="#FFFFFF" d="M226.297,224.159c-0.481,0.451-0.966,0.755-1.243,1.191c-1.298,2.043-1.277,2.053-3.695,1.582
		c-0.483-0.094-0.983-0.114-1.455-0.244c-1.945-0.536-3.427,0.173-4.882,1.889c2.628,0.514,5.005,0.979,7.437,1.454
		c-0.54,1.408-1.024,2.669-1.508,3.931c1.356-1.78,2.459-3.677,3.633-5.529c0.27-0.426,0.783-0.698,1.184-1.041
		c0.048-0.041,0.095-0.083,0.152-0.133c-0.249-0.084-0.471-0.159-0.86-0.29C225.907,226.232,226.876,225.666,226.297,224.159z"/>
	<path fill="#FFFFFF" d="M390.71,103.388c-2.088-0.581-4.176-1.161-6.518-1.812c0,1.885,0,3.514,0,5.498
		c2.334-1.065,4.467-2.037,6.6-3.01C390.764,103.838,390.737,103.613,390.71,103.388z"/>
	<path fill="#FFFFFF" d="M235.653,117.876c0.98-0.733,2.525-1.296,2.682-2.123c0.383-2.02,0.125-4.162,0.125-6.318
		C235.413,111.215,234.371,114.235,235.653,117.876z"/>
	<path fill="#FFFFFF" d="M261.024,70.309c-1.658-0.493-2.931-0.872-4.401-1.31c-0.595,2.327-1.142,4.468-1.69,6.609
		c0.101,0.046,0.202,0.092,0.303,0.138C257.066,74.027,258.896,72.308,261.024,70.309z"/>
	<path fill="#FFFFFF" d="M340.131,202.81c0.164,0.563,0.461,0.948,0.803,1.288c5.176,5.151,10.351,10.304,15.547,15.435
		c0.696,0.687,1.492,1.273,2.247,1.901c-0.148-0.26-0.275-0.543-0.479-0.748c-5.783-5.804-11.576-11.599-17.375-17.388
		C340.669,203.093,340.381,202.971,340.131,202.81z"/>
	<path fill="#FFFFFF" d="M358.813,221.502c-0.028-0.023-0.057-0.045-0.084-0.068c0.018,0.032,0.035,0.067,0.055,0.098
		L358.813,221.502z"/>
	<path fill="#FFFFFF" d="M358.813,221.502c0,0-0.03,0.03-0.03,0.03c0.029,0.026,0.058,0.052,0.086,0.078
		C358.85,221.574,358.833,221.536,358.813,221.502z"/>
	<path fill="#FFFFFF" d="M375.525,238.565c0.254,0.254,0.568,0.449,0.854,0.672c-0.034-0.406-0.202-0.677-0.422-0.897
		c-4.317-4.323-8.626-8.654-12.969-12.949c-1.324-1.309-2.741-2.525-4.118-3.781c0.116,0.218,0.216,0.45,0.382,0.618
		C364.669,227.68,370.094,233.125,375.525,238.565z"/>
	<path fill="#FFFFFF" d="M267.124,226.613c-0.096,0.489-0.176,0.892-0.242,1.229c1.152,1.77,2.347,3.607,3.542,5.444
		c0.092-0.072,0.184-0.144,0.275-0.216c-0.689-1.421-1.377-2.842-2.08-4.294c2.351-0.591,4.536-1.14,6.64-1.669
		C272.509,226.941,269.715,226.771,267.124,226.613z"/>
	<path fill="#FFFFFF" d="M52.096,62.21c0,3.247,0,6.343,0,9.438c0.139,0.02,0.278,0.039,0.417,0.059
		c0.423-2.024,0.735-4.08,1.302-6.064C54.316,63.885,53.414,63.068,52.096,62.21z"/>
	<path fill="#FFFFFF" d="M243.044,314.223c0.083,0.165,0.166,0.33,0.249,0.495c1.259,0.179,2.514,0.413,3.779,0.501
		c0.353,0.025,1.043-0.363,1.055-0.59c0.091-1.683,0.049-3.373,0.049-5.062c-0.143-0.033-0.285-0.065-0.428-0.098
		c-0.254,0.649-0.571,1.281-0.748,1.951c-0.376,1.424-1.02,2.385-2.726,2.203C243.89,313.582,243.455,314.011,243.044,314.223z"/>
	<path fill="#FFFFFF" d="M206.375,121.421c0.134,0.802,0.498,1.566,0.861,2.615c1.596-1.611,3.098-3.127,4.601-4.644
		c-0.111-0.147-0.222-0.295-0.332-0.442c-1.552,0.398-3.121,0.742-4.64,1.241C206.584,120.283,206.31,121.032,206.375,121.421z"/>
	<path fill="#FFFFFF" d="M55.716,153.601c-0.34-2.325-0.972-4.607-1.496-6.905c-0.06,0.023-0.121,0.047-0.181,0.07
		c0,2.876,0,5.752,0,8.628c0.157,0.048,0.313,0.097,0.47,0.145C54.937,154.889,55.8,154.176,55.716,153.601z"/>
	<path fill="#FFFFFF" d="M244.856,300.587c2.586,0.52,1.691,3.391,3.299,4.646c0-2.017,0-3.852,0-5.673
		C245.073,299.377,245.073,299.377,244.856,300.587z"/>
	<path fill="#FFFFFF" d="M374.09,34.423c-0.112-0.163-0.225-0.326-0.337-0.49c-1.289,0.214-2.578,0.428-4.092,0.679
		c0.615,1.294,1.09,2.294,1.741,3.663C372.472,36.742,373.281,35.583,374.09,34.423z"/>
	<path fill="#FFFFFF" d="M101.045,249.444c-0.082-0.176-0.164-0.353-0.246-0.529c-0.576,0.222-1.268,0.311-1.706,0.692
		c-1.076,0.936-2.055,1.987-3.03,3.032c-0.325,0.349-0.519,0.82-0.773,1.235c0.11,0.088,0.219,0.175,0.329,0.263
		C97.823,253.033,99.265,251.041,101.045,249.444z"/>
	<path fill="#FFFFFF" d="M247.184,290.162c-0.17-0.008-0.34-0.017-0.51-0.025c-0.255,1.594-0.51,3.187-0.77,4.815
		c0.874,0,1.504,0,1.794,0C247.519,293.286,247.351,291.724,247.184,290.162z"/>
	<path fill="#FFFFFF" d="M280.148,2.881c2.056,0,4.112,0,6.168,0C284.251,1.361,282.21,2.578,280.148,2.881z"/>
	<path fill="#FFFFFF" d="M257.223,38.717c0.227-0.232,0.638-0.301,0.822-0.55c0.217-0.292,0.276-0.701,0.403-1.06
		c-0.44-0.108-0.941-0.403-1.308-0.284c-0.735,0.239-0.977,1.892-0.416,2.771C256.905,39.262,257.009,38.935,257.223,38.717z"/>
	<path fill="#FFFFFF" d="M251.596,144.413c-0.599,0.945-1.086,1.716-1.609,2.542c0.959,0,1.713,0,2.712,0
		C252.293,146.02,251.971,145.279,251.596,144.413z"/>
	<path fill="#FFFFFF" d="M257.184,36.096c0.643-0.695,1.127-1.465-0.108-2.581c-0.216,0.783-0.439,1.565-0.613,2.357
		C256.457,35.899,257.106,36.18,257.184,36.096z"/>
	<path fill="#FFFFFF" d="M275.365,2.917c1.128,0,2.177,0,3.527,0C277.714,1.84,276.452,1.9,275.365,2.917z"/>
	<path fill="#FFFFFF" d="M314.202,2.332c1.226,0.233,2.451,0.466,3.677,0.699C316.806,1.867,315.468,2.308,314.202,2.332z"/>
	<path fill="#FFFFFF" d="M10.107,63.697c-0.118,0.007-0.237,0.014-0.355,0.021c0,0.894,0,1.788,0,2.683
		c0.118-0.003,0.237-0.007,0.355-0.01C10.107,65.493,10.107,64.595,10.107,63.697z"/>
</g>
</svg>
