<?xml version="1.0" encoding="utf-8"?>
<!-- Generator: Adobe Illustrator 17.0.0, SVG Export Plug-In . SVG Version: 6.00 Build 0)  -->
<!DOCTYPE svg PUBLIC "-//W3C//DTD SVG 1.1//EN" "http://www.w3.org/Graphics/SVG/1.1/DTD/svg11.dtd">
<svg version="1.1" id="Layer_1" xmlns="http://www.w3.org/2000/svg" xmlns:xlink="http://www.w3.org/1999/xlink" x="0px" y="0px"
	 width="595.28px" height="595.276px" viewBox="4306.96 0 595.28 595.276" enable-background="new 4306.96 0 595.28 595.276"
	 xml:space="preserve">
<rect x="2461.12" y="1" fill="#B1B1C3" width="595.28" height="595.276"/>
<path d="M398.849,347.73c-3.715-21.73-13.72-40.176-29.236-55.686c-1.841-1.84-1.998-2.96,0.027-4.641
	c4.171-3.464,8.108-7.212,12.325-10.616c11.195-9.035,17.998-20.53,18.442-34.986c0.825-26.814-19.757-47.631-46.768-47.751
	c-18.202-0.081-36.405-0.016-55.396-0.016c1.607-1.705,2.661-2.88,3.774-3.996c8.494-8.509,17.144-16.866,25.454-25.55
	c6.703-7.004,14.384-10.615,24.586-8.52c-1.692-5.332-4.552-9.288-8.653-12.503c-3.567-2.797-9.023-2.344-11.716-5.253
	c-2.765-2.986-3.208-8.012-5.841-11.703c-7.883-11.05-20.892-16.903-28.142-28.894c-3.471,5.428-7.525,9.383-11.941,13.136
	c-8.856,7.526-18.351,14.682-21.418,26.85c-0.511,2.027-2.035,1.633-3.427,1.976c-8.724,2.149-14.584,7.387-17.512,16.421
	c9.816-2.008,17.476,1.034,23.898,7.862c3.383,3.598,6.93,7.044,10.471,10.489c6.428,6.257,12.907,12.463,19.364,18.691
	c-1.355,1.021-1.95,1.011-2.545,1.022c-19.904,0.376-39.837-1.015-59.714,0.736c-21.512,1.896-39.632,21.783-39.901,43.617
	c-0.292,23.629,0.077,28.657-0.11,42.983c-0.045,3.461,0.933,4.487,4.411,4.417c10.813-0.216,21.634-0.079,32.451-0.079
	c-2.549,2.708-4.85,5.067-7.099,7.458c-2.364,2.511-4.69,5.077-6.826,7.782c-18.923,23.954-26.286,51.132-21.406,81.213
	c4.214,25.979,16.962,47.294,37.621,63.729c22.649,18.016,48.652,24.938,77.05,21.364c27.952-3.517,51.004-16.869,68.09-39.328
	C397.22,404.219,403.911,377.325,398.849,347.73z M290.214,154.31c-2.24-2.355-3.566-5.034-4.028-8.197
	c0.055-3.692,6.97-13.275,10.581-14.863c1.161-0.51,1.906-0.101,2.604,0.609c2.413,2.451,5.099,4.715,7.097,7.475
	c3.993,5.515,3.477,9.817-1.21,14.932C297.82,162.386,297.858,162.35,290.214,154.31z M377.553,367.476
	c-1.103,39.508-29.931,70.463-66.23,76.517c-44.905,7.49-85.284-22.223-92.298-65.523c-4.888-30.176,5.661-55.065,28.793-75.335
	c15.311-13.417,27.54-23.935,41.244-35.978c1.028-0.903,2.973-1.754,2.38-3.356c-0.624-1.686-2.618-0.826-3.978-0.829
	c-21.57-0.054-43.14-0.112-64.709,0.03c-3.713,0.025-5.094-0.716-5.092-4.891c0.004-10.396-0.86-15.454,0.903-23.102
	c2.449-10.625,10.501-17.518,21.381-17.554c38.529-0.128,77.058-0.124,115.588-0.014c9.938,0.029,16.644,5.303,20.388,14.327
	c3.604,8.686,1.809,17.784-5.411,24.274c-15.4,13.842-31.073,27.381-46.641,41.037c-14.333,12.573-28.617,25.202-43.04,37.671
	c-5.734,4.958-10.962,10.438-16.576,15.495c-5.777,5.205-12.823,6.919-20.989,4.944c3.254,9.098,8.876,14.769,17.869,16.437
	c2.226,0.413,3.143,1.33,3.643,3.176c2.299,8.495,8.03,14.546,14.394,20.106c6.517,5.694,13.558,10.84,18.559,18.741
	c5.863-9.486,15.019-15.03,22.435-22.371c4.725-4.678,8.692-9.806,10.456-16.377c0.479-1.786,1.295-2.867,3.589-3.271
	c9.029-1.591,14.636-7.292,17.946-16.333c-11.069,2.43-19.143-2.008-25.875-9.791c-0.644-0.745-1.44-1.359-2.083-2.105
	c-2.644-3.069-8.14-5.594-7.683-8.834c0.44-3.119,5.489-5.624,8.578-8.325c7.176-6.275,14.493-12.393,21.533-18.815
	c2.353-2.148,3.704-2.205,6.035,0.047C369.661,323.9,378.207,344.091,377.553,367.476z M309.267,365.651
	c0.071,2.961-7.356,13.332-10.838,14.557c-1.233,0.434-1.858-0.277-2.532-0.942c-2.224-2.196-4.634-4.255-6.558-6.694
	c-4.877-6.182-4.049-10.812,2.787-17.476c5.699-5.554,5.656-5.511,11.19-0.071C306.176,357.839,308.772,360.736,309.267,365.651z"/>
<g>
	<path d="M946.688,304.62c-1.302-7.614-4.808-14.078-10.244-19.512c-0.645-0.645-0.7-1.037,0.009-1.626
		c1.461-1.214,2.841-2.527,4.319-3.72c3.923-3.166,6.306-7.194,6.462-12.259c0.289-9.396-6.923-16.69-16.388-16.732
		c-6.378-0.028-12.756-0.006-19.411-0.006c0.563-0.597,0.932-1.009,1.323-1.4c2.976-2.981,6.007-5.91,8.919-8.953
		c2.349-2.454,5.04-3.719,8.615-2.985c-0.593-1.868-1.595-3.255-3.032-4.381c-1.25-0.98-3.161-0.821-4.105-1.841
		c-0.969-1.046-1.124-2.808-2.047-4.101c-2.762-3.872-7.32-5.923-9.861-10.125c-1.216,1.902-2.637,3.288-4.184,4.603
		c-3.103,2.637-6.43,5.145-7.505,9.408c-0.179,0.71-0.713,0.572-1.201,0.692c-3.057,0.753-5.11,2.588-6.136,5.754
		c3.44-0.704,6.124,0.362,8.374,2.755c1.185,1.261,2.428,2.468,3.669,3.675c2.252,2.193,4.523,4.367,6.785,6.549
		c-0.475,0.358-0.683,0.354-0.892,0.358c-6.974,0.132-13.959-0.356-20.924,0.258c-7.538,0.664-13.887,7.633-13.981,15.283
		c-0.102,8.28,0.027,10.041-0.038,15.061c-0.016,1.213,0.327,1.572,1.546,1.548c3.789-0.076,7.581-0.028,11.371-0.028
		c-0.893,0.949-1.699,1.776-2.488,2.613c-0.828,0.88-1.643,1.779-2.392,2.727c-6.631,8.394-9.211,17.917-7.5,28.457
		c1.477,9.103,5.943,16.572,13.182,22.331c7.936,6.313,17.048,8.738,26.998,7.486c9.794-1.233,17.872-5.911,23.859-13.781
		C946.117,324.414,948.462,314.99,946.688,304.62z M908.622,236.846c-0.785-0.825-1.25-1.764-1.412-2.872
		c0.019-1.294,2.442-4.652,3.708-5.208c0.407-0.179,0.668-0.035,0.913,0.213c0.845,0.859,1.787,1.652,2.487,2.619
		c1.399,1.932,1.218,3.44-0.424,5.232C911.287,239.676,911.301,239.663,908.622,236.846z M939.226,311.539
		c-0.386,13.844-10.488,24.69-23.207,26.812c-15.735,2.624-29.884-7.787-32.341-22.959c-1.713-10.574,1.984-19.295,10.089-26.398
		c5.365-4.701,9.65-8.387,14.452-12.607c0.36-0.317,1.042-0.615,0.834-1.176c-0.219-0.591-0.917-0.29-1.394-0.291
		c-7.558-0.019-15.116-0.039-22.674,0.01c-1.301,0.009-1.785-0.251-1.784-1.714c0.001-3.643-0.301-5.415,0.317-8.095
		c0.858-3.723,3.68-6.138,7.492-6.151c13.5-0.045,27.001-0.043,40.502-0.005c3.482,0.01,5.832,1.858,7.144,5.02
		c1.263,3.043,0.634,6.232-1.896,8.505c-5.396,4.85-10.888,9.594-16.343,14.379c-5.022,4.405-10.028,8.831-15.081,13.2
		c-2.009,1.737-3.841,3.657-5.808,5.43c-2.024,1.824-4.493,2.425-7.355,1.732c1.14,3.188,3.11,5.175,6.261,5.76
		c0.78,0.145,1.101,0.466,1.277,1.113c0.805,2.977,2.814,5.097,5.044,7.045c2.284,1.995,4.751,3.798,6.503,6.567
		c2.054-3.324,5.263-5.266,7.861-7.839c1.656-1.639,3.046-3.436,3.664-5.738c0.168-0.626,0.454-1.005,1.258-1.146
		c3.164-0.558,5.129-2.555,6.288-5.723c-3.879,0.852-6.708-0.704-9.067-3.431c-0.226-0.261-0.505-0.476-0.73-0.738
		c-0.926-1.075-2.852-1.96-2.692-3.095c0.154-1.093,1.923-1.971,3.006-2.917c2.515-2.199,5.078-4.342,7.545-6.593
		c0.825-0.753,1.298-0.773,2.115,0.017C936.46,296.27,939.455,303.345,939.226,311.539z M915.298,310.9
		c0.025,1.038-2.578,4.671-3.798,5.101c-0.432,0.152-0.651-0.097-0.887-0.33c-0.779-0.77-1.624-1.491-2.298-2.346
		c-1.709-2.166-1.419-3.789,0.977-6.124c1.997-1.946,1.982-1.931,3.921-0.025C914.215,308.163,915.125,309.178,915.298,310.9z"/>
</g>
<path d="M1666.874,333.322c-2.064-12.071-7.621-22.317-16.24-30.933c-1.023-1.022-1.11-1.644,0.015-2.578
	c2.317-1.924,4.504-4.006,6.846-5.897c6.219-5.019,9.997-11.404,10.245-19.434c0.458-14.895-10.975-26.458-25.979-26.525
	c-10.111-0.045-20.222-0.009-30.771-0.009c0.893-0.947,1.478-1.6,2.097-2.22c4.718-4.726,9.523-9.369,14.139-14.192
	c3.723-3.891,7.99-5.896,13.657-4.732c-0.94-2.962-2.529-5.16-4.807-6.945c-1.981-1.554-5.012-1.302-6.508-2.918
	c-1.536-1.659-1.782-4.451-3.245-6.501c-4.379-6.138-11.605-9.389-15.632-16.05c-1.928,3.015-4.18,5.212-6.633,7.297
	c-4.919,4.181-10.193,8.156-11.898,14.915c-0.284,1.126-1.13,0.907-1.903,1.097c-4.846,1.194-8.101,4.103-9.728,9.122
	c5.453-1.116,9.708,0.574,13.275,4.367c1.879,1.998,3.85,3.913,5.816,5.827c3.571,3.476,7.17,6.923,10.756,10.382
	c-0.753,0.567-1.083,0.562-1.414,0.568c-11.057,0.209-22.129-0.564-33.17,0.409c-11.95,1.053-22.015,12.1-22.165,24.228
	c-0.162,13.126,0.043,15.919-0.061,23.876c-0.025,1.923,0.518,2.492,2.45,2.454c6.007-0.12,12.017-0.044,18.026-0.044
	c-1.416,1.504-2.694,2.815-3.943,4.143c-1.313,1.395-2.605,2.82-3.792,4.323c-10.511,13.306-14.601,28.403-11.891,45.113
	c2.341,14.431,9.422,26.271,20.898,35.401c12.581,10.008,27.026,13.853,42.8,11.867c15.527-1.954,28.332-9.37,37.823-21.846
	C1665.968,364.7,1669.685,349.761,1666.874,333.322z M1606.528,225.88c-1.244-1.308-1.981-2.796-2.238-4.553
	c0.031-2.051,3.872-7.374,5.878-8.256c0.645-0.283,1.058-0.056,1.447,0.338c1.34,1.362,2.832,2.619,3.942,4.152
	c2.218,3.063,1.932,5.453-0.672,8.294C1610.753,230.366,1610.774,230.345,1606.528,225.88z M1655.044,344.29
	c-0.613,21.946-16.626,39.141-36.79,42.504c-24.944,4.16-47.374-12.344-51.27-36.397c-2.715-16.762,3.145-30.588,15.994-41.848
	c8.505-7.453,15.298-13.295,22.911-19.985c0.571-0.502,1.651-0.975,1.322-1.864c-0.346-0.937-1.454-0.459-2.21-0.461
	c-11.982-0.03-23.964-0.062-35.945,0.016c-2.063,0.014-2.83-0.397-2.828-2.717c0.002-5.775-0.478-8.584,0.502-12.833
	c1.36-5.902,5.833-9.731,11.877-9.751c21.402-0.071,42.805-0.069,64.207-0.008c5.52,0.016,9.245,2.946,11.326,7.958
	c2.002,4.825,1.005,9.879-3.006,13.484c-8.555,7.689-17.261,15.21-25.908,22.795c-7.962,6.984-15.897,13.999-23.908,20.926
	c-3.185,2.754-6.089,5.798-9.208,8.607c-3.209,2.891-7.123,3.844-11.659,2.746c1.807,5.054,4.931,8.204,9.926,9.131
	c1.236,0.229,1.746,0.739,2.024,1.764c1.277,4.719,4.461,8.08,7.996,11.168c3.62,3.163,7.531,6.022,10.309,10.41
	c3.257-5.269,8.343-8.349,12.463-12.427c2.625-2.598,4.828-5.447,5.808-9.097c0.266-0.992,0.719-1.593,1.993-1.817
	c5.016-0.884,8.13-4.051,9.969-9.073c-6.149,1.35-10.634-1.116-14.373-5.439c-0.358-0.414-0.8-0.755-1.157-1.169
	c-1.469-1.705-4.522-3.107-4.268-4.907c0.244-1.733,3.049-3.124,4.765-4.624c3.986-3.486,8.051-6.884,11.961-10.452
	c1.307-1.193,2.058-1.225,3.352,0.026C1650.66,320.084,1655.407,331.3,1655.044,344.29z M1617.112,343.277
	c0.04,1.645-4.086,7.406-6.02,8.086c-0.685,0.241-1.032-0.154-1.407-0.523c-1.235-1.22-2.574-2.363-3.643-3.718
	c-2.709-3.434-2.249-6.006,1.548-9.708c3.166-3.085,3.142-3.061,6.216-0.04C1615.395,338.937,1616.837,340.547,1617.112,343.277z"/>
<g>
	<path d="M2240.647,331.204c-2.338-13.677-8.636-25.287-18.401-35.049c-1.159-1.158-1.258-1.863,0.017-2.921
		c2.625-2.18,5.104-4.539,7.757-6.682c7.046-5.687,11.328-12.922,11.608-22.021c0.52-16.877-12.435-29.979-29.436-30.055
		c-11.457-0.051-22.913-0.01-34.866-0.01c1.011-1.073,1.675-1.813,2.376-2.515c5.346-5.355,10.79-10.616,16.021-16.081
		c4.219-4.409,9.053-6.681,15.475-5.362c-1.065-3.356-2.865-5.846-5.446-7.869c-2.245-1.76-5.679-1.476-7.374-3.306
		c-1.74-1.879-2.019-5.043-3.676-7.366c-4.962-6.955-13.149-10.639-17.713-18.186c-2.185,3.416-4.736,5.906-7.516,8.268
		c-5.574,4.737-11.55,9.241-13.481,16.9c-0.322,1.276-1.281,1.028-2.157,1.244c-5.491,1.352-9.179,4.649-11.022,10.336
		c6.178-1.264,11,0.651,15.042,4.949c2.129,2.264,4.362,4.433,6.59,6.602c4.046,3.938,8.124,7.844,12.188,11.764
		c-0.853,0.643-1.227,0.636-1.602,0.643c-12.528,0.236-25.074-0.639-37.584,0.463c-13.54,1.193-24.944,13.71-25.114,27.452
		c-0.183,14.872,0.049,18.037-0.069,27.054c-0.029,2.178,0.587,2.824,2.776,2.78c6.806-0.136,13.616-0.05,20.425-0.05
		c-1.604,1.704-3.052,3.189-4.468,4.694c-1.488,1.581-2.952,3.196-4.297,4.898c-11.91,15.077-16.545,32.183-13.473,51.116
		c2.653,16.351,10.676,29.767,23.679,40.112c14.255,11.34,30.622,15.696,48.496,13.447c17.593-2.214,32.103-10.617,42.856-24.753
		C2239.622,366.758,2243.833,349.831,2240.647,331.204z M2172.271,209.465c-1.409-1.482-2.244-3.168-2.535-5.159
		c0.035-2.324,4.387-8.356,6.66-9.355c0.731-0.321,1.199-0.063,1.639,0.383c1.519,1.543,3.209,2.968,4.467,4.705
		c2.513,3.471,2.188,6.179-0.761,9.398C2177.059,214.548,2177.083,214.525,2172.271,209.465z M2227.244,343.632
		c-0.694,24.867-18.839,44.35-41.685,48.16c-28.264,4.714-53.678-13.987-58.093-41.241c-3.077-18.993,3.563-34.658,18.123-47.416
		c9.637-8.445,17.334-15.065,25.96-22.645c0.647-0.569,1.871-1.104,1.498-2.113c-0.393-1.061-1.648-0.52-2.504-0.522
		c-13.576-0.034-27.153-0.07-40.728,0.019c-2.337,0.016-3.206-0.45-3.205-3.079c0.003-6.544-0.541-9.727,0.569-14.54
		c1.542-6.687,6.61-11.026,13.457-11.049c24.25-0.081,48.501-0.078,72.751-0.009c6.255,0.018,10.476,3.338,12.833,9.017
		c2.269,5.467,1.138,11.194-3.406,15.278c-9.693,8.712-19.558,17.234-29.356,25.829c-9.021,7.913-18.012,15.862-27.09,23.71
		c-3.609,3.12-6.899,6.57-10.433,9.753c-3.636,3.276-8.071,4.355-13.211,3.112c2.048,5.726,5.587,9.296,11.247,10.346
		c1.401,0.26,1.978,0.837,2.293,1.999c1.447,5.347,5.054,9.156,9.06,12.655c4.102,3.584,8.534,6.823,11.681,11.796
		c3.69-5.971,9.453-9.46,14.121-14.081c2.974-2.944,5.471-6.172,6.581-10.308c0.302-1.124,0.815-1.805,2.259-2.059
		c5.683-1.002,9.212-4.59,11.295-10.28c-6.967,1.53-12.049-1.264-16.286-6.162c-0.406-0.469-0.906-0.855-1.311-1.325
		c-1.664-1.932-5.124-3.521-4.836-5.56c0.277-1.963,3.455-3.54,5.399-5.24c4.517-3.949,9.122-7.8,13.553-11.842
		c1.481-1.352,2.331-1.388,3.798,0.03C2222.276,316.205,2227.655,328.914,2227.244,343.632z M2184.264,342.484
		c0.045,1.864-4.63,8.391-6.822,9.162c-0.776,0.273-1.169-0.174-1.594-0.593c-1.4-1.382-2.917-2.678-4.127-4.213
		c-3.07-3.891-2.549-6.805,1.754-10.999c3.587-3.496,3.56-3.469,7.043-0.045C2182.319,337.566,2183.952,339.39,2184.264,342.484z"/>
</g>
<path d="M2793.852,306.411c-1.302-7.614-4.807-14.078-10.244-19.512c-0.645-0.645-0.7-1.037,0.009-1.626
	c1.461-1.214,2.841-2.527,4.319-3.72c3.923-3.166,6.306-7.194,6.462-12.259c0.289-9.396-6.923-16.69-16.388-16.732
	c-6.378-0.028-12.756-0.006-19.411-0.006c0.563-0.597,0.932-1.009,1.323-1.4c2.976-2.981,6.007-5.91,8.919-8.953
	c2.349-2.454,5.04-3.719,8.615-2.985c-0.593-1.868-1.595-3.255-3.032-4.381c-1.25-0.98-3.162-0.821-4.105-1.841
	c-0.969-1.046-1.124-2.808-2.047-4.101c-2.762-3.872-7.32-5.923-9.861-10.125c-1.216,1.902-2.637,3.288-4.184,4.603
	c-3.103,2.637-6.43,5.145-7.505,9.408c-0.179,0.71-0.713,0.572-1.201,0.692c-3.057,0.753-5.11,2.588-6.136,5.754
	c3.44-0.704,6.124,0.362,8.374,2.755c1.185,1.261,2.428,2.468,3.669,3.675c2.252,2.193,4.523,4.367,6.785,6.549
	c-0.475,0.358-0.683,0.354-0.892,0.358c-6.974,0.132-13.959-0.356-20.924,0.258c-7.538,0.664-13.887,7.633-13.981,15.283
	c-0.102,8.28,0.027,10.041-0.039,15.061c-0.016,1.213,0.327,1.572,1.546,1.548c3.789-0.076,7.581-0.028,11.371-0.028
	c-0.893,0.949-1.699,1.776-2.488,2.613c-0.828,0.88-1.643,1.779-2.392,2.727c-6.631,8.394-9.211,17.917-7.5,28.457
	c1.477,9.103,5.943,16.572,13.182,22.331c7.936,6.313,17.048,8.738,26.998,7.486c9.795-1.233,17.872-5.911,23.859-13.781
	C2793.281,326.204,2795.625,316.781,2793.852,306.411z M2755.786,238.636c-0.785-0.825-1.25-1.764-1.412-2.872
	c0.02-1.294,2.442-4.652,3.708-5.208c0.407-0.179,0.668-0.035,0.913,0.213c0.845,0.859,1.787,1.652,2.487,2.619
	c1.399,1.932,1.218,3.44-0.424,5.232C2758.451,241.466,2758.464,241.453,2755.786,238.636z M2786.39,313.33
	c-0.386,13.844-10.488,24.69-23.207,26.812c-15.735,2.624-29.884-7.787-32.341-22.959c-1.713-10.574,1.984-19.295,10.089-26.398
	c5.365-4.701,9.65-8.387,14.452-12.607c0.36-0.317,1.042-0.615,0.834-1.176c-0.219-0.591-0.917-0.29-1.394-0.291
	c-7.558-0.019-15.116-0.039-22.674,0.01c-1.301,0.009-1.785-0.251-1.784-1.714c0.001-3.643-0.301-5.415,0.316-8.095
	c0.858-3.723,3.68-6.138,7.492-6.151c13.5-0.045,27.001-0.043,40.502-0.005c3.482,0.01,5.832,1.858,7.144,5.02
	c1.263,3.043,0.634,6.232-1.896,8.505c-5.396,4.85-10.888,9.594-16.343,14.379c-5.022,4.405-10.028,8.831-15.081,13.2
	c-2.009,1.737-3.841,3.657-5.808,5.43c-2.024,1.824-4.493,2.425-7.355,1.732c1.14,3.188,3.11,5.175,6.261,5.76
	c0.78,0.145,1.101,0.466,1.276,1.113c0.806,2.977,2.814,5.097,5.044,7.045c2.283,1.995,4.751,3.798,6.503,6.567
	c2.054-3.324,5.263-5.266,7.861-7.839c1.656-1.639,3.046-3.436,3.664-5.738c0.168-0.626,0.454-1.005,1.257-1.146
	c3.164-0.558,5.129-2.555,6.289-5.723c-3.879,0.852-6.708-0.704-9.067-3.431c-0.226-0.261-0.505-0.476-0.73-0.738
	c-0.927-1.075-2.852-1.96-2.692-3.095c0.154-1.093,1.924-1.971,3.006-2.917c2.514-2.199,5.078-4.342,7.545-6.593
	c0.824-0.753,1.298-0.773,2.115,0.017C2783.624,298.061,2786.618,305.135,2786.39,313.33z M2762.462,312.69
	c0.025,1.038-2.578,4.671-3.798,5.101c-0.432,0.152-0.651-0.097-0.887-0.33c-0.779-0.77-1.624-1.491-2.298-2.346
	c-1.709-2.166-1.419-3.789,0.977-6.124c1.997-1.946,1.982-1.931,3.921-0.025C2761.379,309.953,2762.289,310.968,2762.462,312.69z"/>
<g>
	<path d="M4061.476,331.474c-2.681-15.68-9.9-28.991-21.097-40.183c-1.329-1.328-1.442-2.136,0.019-3.349
		c3.01-2.5,5.851-5.204,8.894-7.66c8.078-6.52,12.987-14.814,13.308-25.246c0.595-19.349-14.257-34.371-33.748-34.457
		c-13.135-0.058-26.27-0.011-39.973-0.011c1.16-1.23,1.92-2.078,2.724-2.883c6.129-6.14,12.371-12.171,18.367-18.437
		c4.837-5.054,10.38-7.66,17.741-6.148c-1.221-3.848-3.285-6.703-6.244-9.022c-2.574-2.018-6.511-1.692-8.454-3.791
		c-1.996-2.155-2.315-5.782-4.215-8.445c-5.688-7.973-15.075-12.197-20.307-20.85c-2.505,3.917-5.43,6.771-8.617,9.479
		c-6.39,5.431-13.242,10.594-15.455,19.375c-0.369,1.463-1.469,1.178-2.473,1.426c-6.295,1.55-10.524,5.33-12.637,11.85
		c7.083-1.449,12.611,0.746,17.245,5.673c2.441,2.596,5.001,5.083,7.555,7.569c4.639,4.515,9.313,8.993,13.973,13.487
		c-0.978,0.737-1.407,0.73-1.837,0.737c-14.363,0.271-28.746-0.732-43.089,0.531c-15.523,1.368-28.598,15.719-28.793,31.474
		c-0.21,17.051,0.056,20.679-0.079,31.017c-0.033,2.498,0.673,3.238,3.183,3.187c7.803-0.156,15.611-0.057,23.417-0.057
		c-1.839,1.954-3.5,3.656-5.123,5.382c-1.706,1.812-3.384,3.664-4.926,5.616c-13.655,17.286-18.968,36.897-15.446,58.603
		c3.041,18.746,12.24,34.127,27.147,45.987c16.343,13.001,35.107,17.995,55.599,15.416c20.17-2.538,36.805-12.173,49.134-28.379
		C4060.3,372.236,4065.129,352.829,4061.476,331.474z M3983.085,191.902c-1.616-1.7-2.573-3.632-2.907-5.915
		c0.04-2.664,5.029-9.58,7.635-10.725c0.838-0.368,1.375-0.073,1.879,0.439c1.741,1.769,3.679,3.403,5.121,5.394
		c2.881,3.98,2.509,7.084-0.873,10.775C3988.573,197.73,3988.601,197.703,3983.085,191.902z M4046.109,345.722
		c-0.796,28.509-21.598,50.846-47.792,55.215c-32.404,5.405-61.541-16.036-66.603-47.281c-3.527-21.775,4.085-39.735,20.777-54.362
		c11.049-9.682,19.873-17.271,29.762-25.961c0.742-0.652,2.145-1.266,1.718-2.422c-0.45-1.217-1.889-0.596-2.871-0.598
		c-15.565-0.039-31.13-0.081-46.694,0.021c-2.679,0.018-3.676-0.516-3.674-3.53c0.003-7.502-0.621-11.151,0.652-16.67
		c1.767-7.667,7.578-12.641,15.428-12.667c27.802-0.093,55.605-0.089,83.408-0.01c7.171,0.021,12.01,3.827,14.712,10.338
		c2.601,6.267,1.305,12.833-3.905,17.516c-11.113,9.988-22.423,19.758-33.656,29.612c-10.343,9.072-20.65,18.186-31.058,27.183
		c-4.138,3.577-7.91,7.532-11.961,11.181c-4.169,3.756-9.253,4.993-15.146,3.567c2.348,6.565,6.405,10.657,12.894,11.861
		c1.606,0.298,2.268,0.96,2.629,2.291c1.659,6.13,5.795,10.497,10.387,14.508c4.703,4.109,9.783,7.822,13.392,13.523
		c4.231-6.845,10.838-10.845,16.189-16.143c3.41-3.376,6.272-7.076,7.545-11.818c0.346-1.289,0.934-2.069,2.59-2.361
		c6.516-1.148,10.562-5.262,12.95-11.786c-7.988,1.754-13.814-1.449-18.671-7.065c-0.465-0.538-1.039-0.981-1.503-1.519
		c-1.908-2.214-5.874-4.037-5.544-6.374c0.317-2.251,3.961-4.058,6.19-6.007c5.178-4.528,10.458-8.943,15.538-13.577
		c1.698-1.55,2.673-1.591,4.355,0.034C4040.414,314.278,4046.581,328.848,4046.109,345.722z M3996.834,344.406
		c0.051,2.137-5.308,9.62-7.821,10.505c-0.89,0.313-1.341-0.2-1.827-0.68c-1.605-1.585-3.344-3.07-4.732-4.83
		c-3.52-4.461-2.922-7.802,2.011-12.611c4.112-4.008,4.082-3.977,8.075-0.051C3994.604,338.768,3996.476,340.859,3996.834,344.406z"
		/>
</g>
<g>
	<path d="M4672.627,324.727c-2.409-14.089-8.896-26.049-18.956-36.105c-1.194-1.193-1.296-1.919,0.017-3.009
		c2.704-2.246,5.257-4.676,7.991-6.883c7.259-5.858,11.669-13.311,11.958-22.684c0.535-17.385-12.81-30.883-30.323-30.96
		c-11.802-0.053-23.604-0.01-35.917-0.01c1.042-1.105,1.725-1.867,2.447-2.591c5.507-5.517,11.115-10.935,16.503-16.566
		c4.346-4.541,9.326-6.882,15.941-5.524c-1.097-3.457-2.952-6.022-5.61-8.106c-2.313-1.813-5.85-1.52-7.596-3.406
		c-1.793-1.936-2.08-5.195-3.787-7.588c-5.111-7.164-13.546-10.959-18.247-18.734c-2.25,3.519-4.879,6.084-7.742,8.517
		c-5.742,4.88-11.898,9.519-13.887,17.409c-0.332,1.314-1.319,1.059-2.222,1.281c-5.657,1.393-9.456,4.789-11.354,10.647
		c6.364-1.302,11.331,0.67,15.495,5.098c2.193,2.333,4.494,4.567,6.789,6.801c4.167,4.057,8.368,8.081,12.555,12.118
		c-0.879,0.662-1.265,0.656-1.65,0.663c-12.905,0.243-25.829-0.658-38.716,0.477c-13.948,1.229-25.696,14.124-25.871,28.28
		c-0.189,15.321,0.05,18.58-0.071,27.869c-0.029,2.244,0.605,2.909,2.86,2.864c7.011-0.14,14.026-0.051,21.04-0.051
		c-1.652,1.756-3.144,3.285-4.603,4.836c-1.533,1.628-3.041,3.292-4.426,5.046c-12.269,15.531-17.043,33.152-13.879,52.656
		c2.732,16.844,10.998,30.664,24.393,41.32c14.685,11.681,31.545,16.169,49.957,13.852c18.124-2.281,33.07-10.937,44.148-25.499
		C4671.571,361.352,4675.909,343.915,4672.627,324.727z M4602.191,199.319c-1.452-1.527-2.312-3.264-2.612-5.315
		c0.036-2.394,4.519-8.607,6.86-9.637c0.753-0.331,1.235-0.065,1.688,0.395c1.564,1.589,3.306,3.057,4.602,4.846
		c2.589,3.576,2.254,6.365-0.784,9.681C4607.123,204.555,4607.147,204.531,4602.191,199.319z M4658.82,337.529
		c-0.715,25.616-19.406,45.686-42.941,49.612c-29.115,4.856-55.296-14.409-59.844-42.483c-3.169-19.565,3.671-35.703,18.669-48.845
		c9.928-8.699,17.856-15.519,26.742-23.327c0.667-0.586,1.928-1.137,1.543-2.176c-0.404-1.093-1.697-0.536-2.579-0.538
		c-13.985-0.035-27.971-0.072-41.955,0.019c-2.408,0.016-3.303-0.464-3.302-3.171c0.003-6.741-0.557-10.02,0.586-14.978
		c1.588-6.889,6.809-11.358,13.863-11.381c24.98-0.083,49.962-0.08,74.943-0.009c6.443,0.019,10.792,3.439,13.22,9.289
		c2.337,5.631,1.172,11.531-3.509,15.738c-9.985,8.975-20.147,17.753-30.241,26.607c-9.293,8.152-18.555,16.34-27.906,24.425
		c-3.718,3.214-7.107,6.768-10.747,10.047c-3.746,3.375-8.314,4.486-13.609,3.205c2.109,5.899,5.755,9.576,11.586,10.657
		c1.443,0.268,2.038,0.863,2.362,2.059c1.491,5.508,5.207,9.431,9.333,13.036c4.225,3.692,8.791,7.028,12.033,12.151
		c3.801-6.151,9.738-9.745,14.546-14.505c3.063-3.033,5.636-6.358,6.779-10.618c0.311-1.158,0.84-1.859,2.327-2.121
		c5.854-1.032,9.49-4.728,11.636-10.59c-7.177,1.576-12.412-1.302-16.776-6.348c-0.418-0.483-0.934-0.881-1.351-1.365
		c-1.714-1.99-5.278-3.627-4.981-5.728c0.285-2.022,3.559-3.646,5.562-5.398c4.653-4.069,9.397-8.035,13.961-12.199
		c1.526-1.392,2.402-1.43,3.913,0.031C4653.703,309.276,4659.244,322.367,4658.82,337.529z M4614.545,336.346
		c0.046,1.92-4.77,8.644-7.027,9.439c-0.799,0.281-1.205-0.179-1.642-0.611c-1.442-1.424-3.005-2.759-4.252-4.34
		c-3.162-4.008-2.625-7.01,1.807-11.331c3.695-3.601,3.667-3.573,7.255-0.046C4612.541,331.281,4614.224,333.16,4614.545,336.346z"
		/>
</g>
<path fill="#747474" d="M3167.363,538.228c-0.777-4.452-2.871-8.231-6.117-11.409c-0.385-0.377-0.418-0.607,0.006-0.951
	c0.873-0.71,1.697-1.478,2.579-2.175c2.342-1.851,3.766-4.206,3.859-7.168c0.173-5.494-4.134-9.759-9.786-9.783
	c-3.809-0.017-7.617-0.003-11.591-0.003c0.336-0.349,0.557-0.59,0.79-0.819c1.777-1.743,3.587-3.456,5.326-5.235
	c1.403-1.435,3.01-2.175,5.144-1.745c-0.354-1.092-0.952-1.903-1.811-2.562c-0.746-0.573-1.888-0.48-2.451-1.076
	c-0.579-0.612-0.671-1.642-1.222-2.398c-1.649-2.264-4.371-3.463-5.888-5.92c-0.726,1.112-1.574,1.922-2.499,2.691
	c-1.853,1.542-3.84,3.008-4.481,5.501c-0.107,0.415-0.426,0.335-0.717,0.405c-1.825,0.44-3.052,1.513-3.664,3.364
	c2.054-0.411,3.656,0.212,5,1.611c0.708,0.737,1.45,1.443,2.191,2.149c1.345,1.282,2.7,2.553,4.052,3.829
	c-0.283,0.209-0.408,0.207-0.532,0.209c-4.165,0.077-8.335-0.208-12.494,0.151c-4.501,0.388-8.292,4.463-8.349,8.936
	c-0.061,4.841,0.016,5.871-0.023,8.806c-0.01,0.709,0.195,0.919,0.923,0.905c2.262-0.044,4.527-0.016,6.79-0.016
	c-0.533,0.555-1.015,1.038-1.485,1.528c-0.495,0.515-0.981,1.04-1.428,1.594c-3.959,4.908-5.5,10.476-4.479,16.639
	c0.882,5.323,3.549,9.69,7.872,13.057c4.739,3.691,10.18,5.109,16.122,4.377c5.849-0.721,10.672-3.456,14.247-8.058
	C3167.022,549.802,3168.422,544.292,3167.363,538.228z M3144.632,498.6c-0.469-0.483-0.746-1.031-0.843-1.679
	c0.012-0.757,1.458-2.72,2.214-3.045c0.243-0.104,0.399-0.021,0.545,0.125c0.505,0.502,1.067,0.966,1.485,1.531
	c0.835,1.13,0.728,2.011-0.253,3.059C3146.224,500.255,3146.231,500.247,3144.632,498.6z M3162.907,542.274
	c-0.231,8.095-6.263,14.437-13.858,15.677c-9.396,1.534-17.845-4.553-19.312-13.425c-1.023-6.183,1.185-11.282,6.025-15.435
	c3.204-2.749,5.762-4.904,8.63-7.371c0.215-0.185,0.622-0.359,0.498-0.688c-0.131-0.345-0.548-0.169-0.833-0.17
	c-4.513-0.011-9.026-0.023-13.54,0.006c-0.777,0.005-1.066-0.147-1.065-1.002c0.001-2.13-0.18-3.166,0.189-4.733
	c0.512-2.177,2.197-3.589,4.474-3.596c8.062-0.026,16.123-0.025,24.185-0.003c2.079,0.006,3.482,1.087,4.266,2.935
	c0.754,1.78,0.378,3.644-1.132,4.973c-3.222,2.836-6.502,5.61-9.759,8.408c-2.999,2.576-5.988,5.163-9.006,7.718
	c-1.2,1.016-2.294,2.139-3.468,3.175c-1.209,1.066-2.683,1.418-4.392,1.013c0.681,1.864,1.857,3.026,3.739,3.368
	c0.466,0.085,0.657,0.273,0.762,0.651c0.481,1.74,1.68,2.98,3.012,4.119c1.364,1.167,2.837,2.221,3.883,3.84
	c1.227-1.944,3.143-3.079,4.694-4.583c0.989-0.958,1.819-2.009,2.188-3.355c0.1-0.366,0.271-0.587,0.751-0.67
	c1.889-0.326,3.063-1.494,3.755-3.346c-2.316,0.498-4.005-0.411-5.414-2.006c-0.135-0.153-0.301-0.278-0.436-0.431
	c-0.553-0.629-1.703-1.146-1.608-1.81c0.092-0.639,1.149-1.152,1.795-1.706c1.501-1.286,3.032-2.539,4.505-3.855
	c0.492-0.44,0.775-0.452,1.263,0.01C3161.255,533.346,3163.043,537.483,3162.907,542.274z M3148.619,541.9
	c0.015,0.607-1.539,2.731-2.268,2.983c-0.258,0.089-0.389-0.057-0.53-0.193c-0.465-0.45-0.969-0.872-1.372-1.371
	c-1.021-1.267-0.847-2.215,0.583-3.581c1.192-1.138,1.184-1.129,2.341-0.015C3147.972,540.3,3148.515,540.893,3148.619,541.9z"/>
<g>
	<path fill="#747474" d="M3190.209,519.321l3.666,14.092c0.802,3.093,1.547,5.957,2.063,8.821h0.171
		c0.631-2.807,1.547-5.785,2.464-8.765l4.525-14.148h4.238l4.296,13.862c1.031,3.322,1.833,6.244,2.464,9.051h0.172
		c0.458-2.807,1.202-5.729,2.119-8.993l3.952-13.92h4.983l-8.936,27.725h-4.583l-4.238-13.232c-0.974-3.093-1.776-5.843-2.464-9.107
		h-0.114c-0.688,3.322-1.547,6.187-2.521,9.165L3198,547.045h-4.582l-8.363-27.725H3190.209z"/>
	<path fill="#747474" d="M3245.717,547.045l-0.401-3.494h-0.172c-1.546,2.177-4.525,4.124-8.478,4.124
		c-5.613,0-8.478-3.952-8.478-7.962c0-6.702,5.957-10.368,16.669-10.311v-0.573c0-2.291-0.63-6.415-6.301-6.415
		c-2.578,0-5.271,0.802-7.218,2.062l-1.146-3.322c2.291-1.489,5.613-2.463,9.107-2.463c8.478,0,10.54,5.785,10.54,11.342v10.368
		c0,2.405,0.114,4.754,0.458,6.645H3245.717z M3244.972,532.897c-5.499-0.114-11.742,0.859-11.742,6.243
		c0,3.266,2.177,4.813,4.754,4.813c3.609,0,5.9-2.292,6.702-4.641c0.172-0.515,0.286-1.088,0.286-1.604V532.897z"/>
	<path fill="#747474" d="M3264.047,511.359v7.962h7.218v3.838h-7.218v14.951c0,3.437,0.975,5.384,3.781,5.384
		c1.317,0,2.291-0.172,2.921-0.344l0.229,3.781c-0.974,0.4-2.521,0.688-4.468,0.688c-2.349,0-4.239-0.745-5.442-2.12
		c-1.432-1.489-1.947-3.952-1.947-7.217v-15.123h-4.296v-3.838h4.296v-6.645L3264.047,511.359z"/>
	<path fill="#747474" d="M3279.743,534.1c0.114,6.816,4.468,9.623,9.509,9.623c3.608,0,5.785-0.63,7.676-1.432l0.859,3.608
		c-1.776,0.802-4.812,1.719-9.223,1.719c-8.535,0-13.633-5.614-13.633-13.978c0-8.362,4.926-14.95,13.003-14.95
		c9.051,0,11.456,7.962,11.456,13.061c0,1.031-0.114,1.833-0.172,2.349H3279.743z M3294.521,530.491
		c0.058-3.207-1.317-8.191-6.988-8.191c-5.098,0-7.332,4.697-7.732,8.191H3294.521z"/>
	<path fill="#747474" d="M3305.635,527.97c0-3.265-0.058-6.071-0.229-8.649h4.411l0.172,5.442h0.229
		c1.261-3.724,4.297-6.072,7.676-6.072c0.573,0,0.975,0.058,1.433,0.172v4.755c-0.516-0.115-1.031-0.172-1.719-0.172
		c-3.552,0-6.071,2.691-6.759,6.473c-0.115,0.688-0.229,1.489-0.229,2.349v14.778h-4.983V527.97z"/>
	<path fill="#747474" d="M3324.367,526.825c0-2.863-0.058-5.212-0.229-7.504h4.411l0.229,4.469h0.172
		c1.547-2.636,4.125-5.099,8.707-5.099c3.78,0,6.645,2.291,7.848,5.557h0.114c0.859-1.547,1.948-2.75,3.094-3.609
		c1.661-1.26,3.494-1.947,6.129-1.947c3.666,0,9.107,2.406,9.107,12.029v16.325h-4.926V531.35c0-5.327-1.947-8.535-6.015-8.535
		c-2.864,0-5.098,2.12-5.957,4.583c-0.229,0.688-0.401,1.604-0.401,2.521v17.127h-4.926v-16.611c0-4.411-1.948-7.619-5.786-7.619
		c-3.15,0-5.441,2.521-6.243,5.041c-0.286,0.745-0.401,1.604-0.401,2.463v16.727h-4.926V526.825z"/>
	<path fill="#747474" d="M3387.494,547.045l-0.401-3.494h-0.172c-1.547,2.177-4.525,4.124-8.478,4.124
		c-5.613,0-8.478-3.952-8.478-7.962c0-6.702,5.957-10.368,16.669-10.311v-0.573c0-2.291-0.63-6.415-6.301-6.415
		c-2.578,0-5.271,0.802-7.218,2.062l-1.146-3.322c2.291-1.489,5.613-2.463,9.107-2.463c8.478,0,10.54,5.785,10.54,11.342v10.368
		c0,2.405,0.114,4.754,0.458,6.645H3387.494z M3386.749,532.897c-5.499-0.114-11.742,0.859-11.742,6.243
		c0,3.266,2.177,4.813,4.754,4.813c3.609,0,5.9-2.292,6.702-4.641c0.172-0.515,0.286-1.088,0.286-1.604V532.897z"/>
	<path fill="#747474" d="M3399.752,527.97c0-3.265-0.058-6.071-0.229-8.649h4.411l0.172,5.442h0.229
		c1.261-3.724,4.297-6.072,7.676-6.072c0.573,0,0.975,0.058,1.433,0.172v4.755c-0.516-0.115-1.031-0.172-1.719-0.172
		c-3.552,0-6.071,2.691-6.759,6.473c-0.115,0.688-0.229,1.489-0.229,2.349v14.778h-4.983V527.97z"/>
	<path fill="#747474" d="M3423.467,532.037h0.114c0.688-0.974,1.661-2.177,2.464-3.15l8.134-9.566h6.071l-10.711,11.399l12.2,16.325
		h-6.129l-9.565-13.289l-2.578,2.864v10.425h-4.983v-40.67h4.983V532.037z"/>
</g>
<g>
	<path d="M5299.569,339.126c-3.005-17.575-11.097-32.494-23.646-45.039c-1.489-1.488-1.616-2.394,0.021-3.754
		c3.374-2.802,6.558-5.833,9.968-8.586c9.054-7.308,14.557-16.605,14.916-28.297c0.667-21.687-15.979-38.524-37.826-38.621
		c-14.722-0.066-29.444-0.013-44.804-0.013c1.3-1.379,2.152-2.329,3.053-3.232c6.87-6.882,13.866-13.641,20.587-20.665
		c5.421-5.665,11.634-8.585,19.885-6.891c-1.369-4.313-3.682-7.512-6.999-10.112c-2.885-2.262-7.297-1.896-9.476-4.249
		c-2.237-2.415-2.595-6.48-4.725-9.465c-6.375-8.937-16.897-13.671-22.761-23.37c-2.807,4.39-6.086,7.589-9.658,10.624
		c-7.163,6.087-14.842,11.875-17.323,21.716c-0.413,1.639-1.646,1.321-2.771,1.598c-7.056,1.738-11.795,5.974-14.164,13.282
		c7.939-1.624,14.135,0.836,19.329,6.359c2.736,2.91,5.605,5.697,8.468,8.484c5.199,5.061,10.439,10.08,15.661,15.117
		c-1.096,0.826-1.577,0.818-2.058,0.827c-16.099,0.304-32.22-0.821-48.296,0.596c-17.399,1.533-32.054,17.618-32.272,35.277
		c-0.236,19.111,0.062,23.178-0.089,34.765c-0.037,2.799,0.754,3.629,3.567,3.572c8.746-0.175,17.498-0.064,26.247-0.064
		c-2.062,2.19-3.922,4.098-5.742,6.032c-1.912,2.031-3.793,4.106-5.521,6.294c-15.305,19.374-21.26,41.355-17.313,65.685
		c3.408,21.011,13.719,38.251,30.428,51.544c18.318,14.572,39.35,20.17,62.318,17.279c22.607-2.845,41.252-13.644,55.071-31.809
		C5298.251,384.814,5303.663,363.063,5299.569,339.126z M5211.705,182.689c-1.812-1.905-2.884-4.071-3.258-6.63
		c0.045-2.986,5.637-10.737,8.558-12.021c0.939-0.412,1.541-0.082,2.106,0.492c1.951,1.982,4.124,3.814,5.74,6.046
		c3.229,4.46,2.812,7.94-0.979,12.077C5217.857,189.22,5217.888,189.191,5211.705,182.689z M5282.345,355.097
		c-0.892,31.954-24.208,56.99-53.566,61.887c-36.319,6.058-68.978-17.974-74.651-52.995c-3.954-24.406,4.579-44.537,23.288-60.931
		c12.384-10.851,22.274-19.358,33.359-29.099c0.831-0.731,2.404-1.419,1.925-2.715c-0.504-1.364-2.118-0.668-3.218-0.671
		c-17.445-0.044-34.892-0.09-52.336,0.024c-3.003,0.02-4.12-0.579-4.119-3.956c0.003-8.409-0.695-12.499,0.73-18.684
		c1.981-8.593,8.494-14.169,17.293-14.198c31.162-0.104,62.325-0.1,93.487-0.011c8.038,0.023,13.461,4.289,16.49,11.588
		c2.915,7.025,1.462,14.384-4.377,19.633c-12.456,11.195-25.132,22.146-37.723,33.191c-11.593,10.169-23.146,20.383-34.811,30.468
		c-4.638,4.01-8.866,8.442-13.406,12.533c-4.672,4.209-10.371,5.596-16.977,3.998c2.632,7.358,7.179,11.945,14.453,13.294
		c1.8,0.334,2.542,1.076,2.947,2.568c1.859,6.871,6.495,11.765,11.642,16.262c5.271,4.605,10.966,8.767,15.01,15.158
		c4.742-7.672,12.147-12.156,18.146-18.094c3.822-3.783,7.03-7.931,8.457-13.246c0.388-1.444,1.047-2.319,2.902-2.646
		c7.303-1.287,11.838-5.898,14.515-13.21c-8.953,1.966-15.483-1.624-20.928-7.919c-0.521-0.603-1.165-1.099-1.685-1.703
		c-2.138-2.482-6.583-4.524-6.214-7.145c0.356-2.523,4.44-4.548,6.938-6.733c5.804-5.075,11.722-10.023,17.416-15.218
		c1.903-1.737,2.996-1.783,4.881,0.038C5275.962,319.853,5282.874,336.183,5282.345,355.097z M5227.115,353.621
		c0.058,2.395-5.95,10.783-8.766,11.774c-0.998,0.351-1.503-0.224-2.048-0.762c-1.799-1.776-3.749-3.441-5.304-5.414
		c-3.945-5-3.275-8.745,2.254-14.134c4.609-4.492,4.575-4.457,9.05-0.058C5224.616,347.302,5226.715,349.646,5227.115,353.621z"/>
</g>
<g>
	<path d="M3445.492,331.499c-2.681-15.68-9.9-28.991-21.097-40.183c-1.329-1.328-1.442-2.136,0.019-3.349
		c3.01-2.5,5.851-5.204,8.893-7.66c8.078-6.52,12.987-14.814,13.308-25.246c0.596-19.349-14.257-34.371-33.748-34.457
		c-13.135-0.058-26.27-0.011-39.973-0.011c1.16-1.23,1.92-2.078,2.724-2.883c6.129-6.14,12.371-12.171,18.367-18.437
		c4.837-5.054,10.38-7.66,17.741-6.148c-1.221-3.848-3.285-6.703-6.244-9.022c-2.574-2.018-6.511-1.692-8.454-3.791
		c-1.996-2.155-2.315-5.782-4.215-8.445c-5.688-7.973-15.075-12.197-20.307-20.85c-2.505,3.917-5.43,6.771-8.617,9.479
		c-6.39,5.431-13.242,10.594-15.456,19.375c-0.369,1.463-1.469,1.178-2.473,1.426c-6.295,1.55-10.524,5.33-12.637,11.85
		c7.083-1.449,12.611,0.746,17.245,5.673c2.441,2.596,5.001,5.083,7.555,7.569c4.639,4.515,9.314,8.993,13.973,13.487
		c-0.978,0.737-1.407,0.73-1.836,0.737c-14.363,0.271-28.747-0.732-43.089,0.531c-15.523,1.368-28.598,15.719-28.793,31.474
		c-0.21,17.051,0.056,20.679-0.079,31.017c-0.033,2.498,0.673,3.238,3.183,3.187c7.803-0.156,15.611-0.057,23.417-0.057
		c-1.839,1.954-3.5,3.657-5.123,5.382c-1.706,1.812-3.384,3.664-4.926,5.616c-13.655,17.286-18.968,36.897-15.446,58.603
		c3.041,18.746,12.24,34.127,27.147,45.987c16.344,13.001,35.107,17.995,55.599,15.416c20.17-2.538,36.805-12.173,49.134-28.379
		C3444.316,372.261,3449.145,352.855,3445.492,331.499z M3367.101,191.928c-1.616-1.7-2.573-3.632-2.907-5.915
		c0.04-2.664,5.03-9.58,7.635-10.725c0.838-0.368,1.375-0.073,1.879,0.439c1.741,1.769,3.679,3.403,5.121,5.394
		c2.881,3.98,2.509,7.084-0.873,10.775C3372.59,197.755,3372.617,197.729,3367.101,191.928z M3430.125,345.748
		c-0.796,28.509-21.598,50.846-47.792,55.215c-32.404,5.405-61.541-16.036-66.602-47.281c-3.528-21.775,4.085-39.735,20.777-54.362
		c11.049-9.682,19.873-17.271,29.762-25.961c0.742-0.652,2.145-1.266,1.717-2.422c-0.45-1.217-1.889-0.596-2.871-0.598
		c-15.564-0.039-31.13-0.081-46.694,0.021c-2.679,0.018-3.676-0.516-3.674-3.53c0.003-7.502-0.62-11.151,0.652-16.67
		c1.767-7.667,7.578-12.641,15.428-12.667c27.802-0.093,55.605-0.089,83.408-0.01c7.171,0.021,12.01,3.827,14.712,10.338
		c2.601,6.267,1.305,12.833-3.905,17.516c-11.113,9.988-22.423,19.758-33.656,29.612c-10.343,9.072-20.65,18.186-31.058,27.183
		c-4.138,3.577-7.91,7.532-11.961,11.181c-4.168,3.756-9.253,4.993-15.146,3.567c2.348,6.565,6.405,10.657,12.895,11.861
		c1.606,0.298,2.268,0.96,2.629,2.291c1.659,6.13,5.795,10.497,10.387,14.508c4.703,4.109,9.783,7.822,13.392,13.523
		c4.23-6.845,10.837-10.845,16.189-16.143c3.41-3.376,6.272-7.076,7.545-11.818c0.346-1.289,0.934-2.069,2.59-2.361
		c6.516-1.148,10.562-5.262,12.95-11.786c-7.988,1.754-13.814-1.449-18.671-7.065c-0.465-0.538-1.039-0.981-1.503-1.519
		c-1.908-2.214-5.874-4.037-5.544-6.374c0.317-2.251,3.961-4.058,6.19-6.007c5.178-4.528,10.458-8.943,15.538-13.577
		c1.698-1.55,2.673-1.591,4.355,0.034C3424.43,314.303,3430.597,328.873,3430.125,345.748z M3380.85,344.431
		c0.052,2.137-5.308,9.62-7.821,10.505c-0.89,0.313-1.341-0.2-1.827-0.68c-1.605-1.585-3.344-3.07-4.732-4.83
		c-3.52-4.461-2.922-7.802,2.011-12.611c4.112-4.008,4.082-3.977,8.075-0.051C3378.62,338.794,3380.493,340.885,3380.85,344.431z"/>
</g>
<path opacity="0.1" fill="#747474" d="M3637.967,112.677c-2.477-14.186-9.147-26.228-19.492-36.353
	c-1.228-1.201-1.332-1.932,0.018-3.03c2.781-2.261,5.406-4.708,8.217-6.93c7.464-5.899,11.999-13.402,12.296-22.84
	c0.55-17.505-13.172-31.095-31.18-31.173c-12.136-0.053-24.271-0.01-36.933-0.01c1.072-1.113,1.774-1.88,2.517-2.609
	c5.663-5.555,11.43-11.011,16.97-16.679c4.469-4.573,9.59-6.93,16.392-5.562c-1.128-3.481-3.035-6.064-5.769-8.162
	c-2.378-1.826-6.015-1.53-7.811-3.429c-1.844-1.949-2.139-5.231-3.894-7.64c-5.256-7.214-13.928-11.034-18.762-18.863
	c-2.314,3.544-5.017,6.126-7.961,8.576c-5.904,4.913-12.234,9.585-14.28,17.529c-0.341,1.323-1.357,1.066-2.285,1.29
	c-5.816,1.403-9.723,4.822-11.676,10.72c6.544-1.311,11.651,0.675,15.933,5.133c2.256,2.349,4.62,4.598,6.981,6.848
	c4.286,4.085,8.605,8.136,12.91,12.202c-0.904,0.667-1.3,0.66-1.697,0.667c-13.27,0.245-26.56-0.663-39.811,0.481
	c-14.342,1.238-26.423,14.221-26.602,28.474c-0.195,15.426,0.051,18.708-0.073,28.06c-0.03,2.26,0.622,2.929,2.941,2.883
	c7.209-0.141,14.423-0.052,21.635-0.052c-1.699,1.768-3.233,3.308-4.733,4.869c-1.576,1.639-3.127,3.314-4.551,5.08
	c-12.616,15.638-17.525,33.38-14.271,53.018c2.81,16.96,11.309,30.875,25.082,41.604c15.1,11.762,32.437,16.28,51.37,13.947
	c18.636-2.296,34.005-11.013,45.396-25.674C3636.88,149.554,3641.341,131.997,3637.967,112.677z M3565.539-13.592
	c-1.493-1.538-2.377-3.286-2.686-5.351c0.037-2.411,4.647-8.667,7.054-9.703c0.774-0.333,1.271-0.066,1.736,0.397
	c1.608,1.6,3.399,3.078,4.732,4.88c2.662,3.6,2.318,6.409-0.806,9.748C3570.61-8.32,3570.635-8.344,3565.539-13.592z
	 M3623.769,125.568c-0.735,25.792-19.955,46-44.156,49.953c-29.938,4.889-56.859-14.508-61.535-42.775
	c-3.259-19.7,3.774-35.948,19.197-49.181c10.208-8.759,18.361-15.625,27.498-23.487c0.685-0.59,1.982-1.145,1.587-2.191
	c-0.416-1.101-1.745-0.539-2.652-0.541c-14.38-0.035-28.762-0.073-43.141,0.019c-2.476,0.016-3.396-0.467-3.395-3.193
	c0.003-6.787-0.573-10.089,0.602-15.081c1.633-6.936,7.001-11.436,14.255-11.46c25.687-0.084,51.375-0.081,77.063-0.009
	c6.625,0.019,11.096,3.462,13.593,9.353c2.403,5.67,1.206,11.61-3.608,15.846c-10.268,9.036-20.717,17.875-31.096,26.79
	c-9.556,8.208-19.079,16.452-28.695,24.592c-3.823,3.236-7.308,6.814-11.051,10.116c-3.852,3.398-8.549,4.517-13.994,3.227
	c2.169,5.939,5.918,9.641,11.914,10.731c1.484,0.27,2.095,0.868,2.429,2.073c1.533,5.546,5.354,9.496,9.597,13.126
	c4.345,3.717,9.039,7.077,12.374,12.235c3.909-6.193,10.013-9.812,14.958-14.604c3.15-3.054,5.795-6.402,6.971-10.691
	c0.32-1.166,0.863-1.872,2.393-2.136c6.02-1.039,9.758-4.76,11.965-10.663c-7.38,1.587-12.763-1.311-17.251-6.392
	c-0.43-0.486-0.96-0.887-1.389-1.374c-1.762-2.003-5.427-3.652-5.122-5.767c0.293-2.036,3.66-3.671,5.719-5.435
	c4.784-4.096,9.663-8.09,14.356-12.283c1.569-1.402,2.469-1.439,4.023,0.031C3618.506,97.12,3624.204,110.301,3623.769,125.568z
	 M3578.242,124.377c0.047,1.933-4.905,8.703-7.226,9.503c-0.823,0.283-1.239-0.181-1.688-0.615c-1.483-1.434-3.09-2.778-4.372-4.37
	c-3.252-4.036-2.699-7.059,1.858-11.409c3.8-3.626,3.771-3.598,7.46-0.046C3576.181,119.276,3577.912,121.168,3578.242,124.377z"/>
</svg>
